<svg width="65" height="63" viewBox="0 0 65 63" fill="none" xmlns="http://www.w3.org/2000/svg">
<mask id="path-1-outside-1_3508_213" maskUnits="userSpaceOnUse" x="-1" y="-1" width="67" height="65" fill="black">
<rect fill="white" x="-1" y="-1" width="67" height="65"/>
<path d="M21.92 62.2C14.56 62.2 9.14667 59.3733 5.68 53.72C2.21333 48.0667 0.48 40.7067 0.48 31.64C0.48 22.3067 2.16 14.92 5.52 9.48C8.88 3.98666 14.3467 1.24 21.92 1.24C36.16 1.24 43.28 11.3733 43.28 31.64C43.28 40.8667 41.5467 48.28 38.08 53.88C34.6133 59.4267 29.2267 62.2 21.92 62.2ZM21.92 54.04C26.2933 54.04 29.3067 51.96 30.96 47.8C32.6667 43.5867 33.52 38.2 33.52 31.64C33.52 24.76 32.6933 19.32 31.04 15.32C29.3867 11.32 26.3467 9.32 21.92 9.32C17.4933 9.32 14.4267 11.32 12.72 15.32C11.0667 19.32 10.24 24.76 10.24 31.64C10.24 46.5733 14.1333 54.04 21.92 54.04ZM55.6169 3.08L64.6569 0.519997V61H55.6169V3.08Z"/>
</mask>
<path d="M5.68 53.72L6.53249 53.1973L5.68 53.72ZM5.52 9.48L6.37081 10.0055L6.37308 10.0018L5.52 9.48ZM38.08 53.88L38.928 54.41L38.9303 54.4064L38.08 53.88ZM30.96 47.8L30.0331 47.4246L30.0307 47.4307L30.96 47.8ZM31.04 15.32L31.9642 14.938L31.04 15.32ZM12.72 15.32L11.8002 14.9275L11.7958 14.938L12.72 15.32ZM21.92 61.2C14.8621 61.2 9.79466 58.5171 6.53249 53.1973L4.82751 54.2428C8.49867 60.2296 14.2579 63.2 21.92 63.2V61.2ZM6.53249 53.1973C3.19149 47.7489 1.48 40.5874 1.48 31.64H-0.52C-0.52 40.8259 1.23517 48.3845 4.82751 54.2428L6.53249 53.1973ZM1.48 31.64C1.48 22.412 3.14333 15.2309 6.3708 10.0055L4.6692 8.9545C1.17667 14.6091 -0.52 22.2014 -0.52 31.64H1.48ZM6.37308 10.0018C9.5167 4.86221 14.6228 2.24 21.92 2.24V0.239997C14.0705 0.239997 8.2433 3.11111 4.66692 8.95821L6.37308 10.0018ZM21.92 2.24C28.7706 2.24 33.7792 4.65766 37.1218 9.4149C40.5097 14.2366 42.28 21.5932 42.28 31.64H44.28C44.28 21.4201 42.4903 13.5767 38.7582 8.26509C34.9808 2.88901 29.3094 0.239997 21.92 0.239997V2.24ZM42.28 31.64C42.28 40.752 40.5668 47.963 37.2297 53.3536L38.9303 54.4064C42.5265 48.597 44.28 40.9814 44.28 31.64H42.28ZM37.232 53.35C33.9721 58.5658 28.9299 61.2 21.92 61.2V63.2C29.5235 63.2 35.2545 60.2876 38.928 54.41L37.232 53.35ZM21.92 55.04C24.2694 55.04 26.3241 54.4792 28.0281 53.303C29.7303 52.128 31.0061 50.3917 31.8893 48.1693L30.0307 47.4307C29.2606 49.3683 28.203 50.752 26.8919 51.657C25.5826 52.5608 23.944 53.04 21.92 53.04V55.04ZM31.8868 48.1754C33.6582 43.8024 34.52 38.2764 34.52 31.64H32.52C32.52 38.1236 31.6751 43.3709 30.0331 47.4246L31.8868 48.1754ZM34.52 31.64C34.52 24.6973 33.6883 19.1094 31.9642 14.938L30.1158 15.702C31.6983 19.5306 32.52 24.8227 32.52 31.64H34.52ZM31.9642 14.938C31.0757 12.7885 29.7868 11.1143 28.0696 9.98458C26.3541 8.85594 24.286 8.32 21.92 8.32V10.32C23.9807 10.32 25.6459 10.7841 26.9704 11.6554C28.2932 12.5257 29.351 13.8515 30.1158 15.702L31.9642 14.938ZM21.92 8.32C19.5537 8.32 17.4808 8.85606 15.7537 9.98239C14.0255 11.1095 12.7164 12.7803 11.8002 14.9276L13.6398 15.7124C14.4303 13.8597 15.5079 12.5305 16.8463 11.6576C18.1859 10.7839 19.8597 10.32 21.92 10.32V8.32ZM11.7958 14.938C10.0717 19.1094 9.24 24.6973 9.24 31.64H11.24C11.24 24.8227 12.0617 19.5306 13.6442 15.702L11.7958 14.938ZM9.24 31.64C9.24 39.161 10.215 44.9548 12.2733 48.9023C13.3101 50.8908 14.6355 52.4368 16.2714 53.4826C17.9115 54.531 19.8067 55.04 21.92 55.04V53.04C20.1399 53.04 18.6285 52.6156 17.3486 51.7974C16.0645 50.9765 14.9565 49.7225 14.0467 47.9776C12.2117 44.4585 11.24 39.0523 11.24 31.64H9.24ZM55.6169 3.08L55.3444 2.11783L54.6169 2.32386V3.08H55.6169ZM64.6569 0.519997H65.6569V-0.802513L64.3844 -0.442167L64.6569 0.519997ZM64.6569 61V62H65.6569V61H64.6569ZM55.6169 61H54.6169V62H55.6169V61ZM55.8893 4.04216L64.9293 1.48216L64.3844 -0.442167L55.3444 2.11783L55.8893 4.04216ZM63.6569 0.519997V61H65.6569V0.519997H63.6569ZM64.6569 60H55.6169V62H64.6569V60ZM56.6169 61V3.08H54.6169V61H56.6169Z" fill="#C8F31D" mask="url(#path-1-outside-1_3508_213)"/>
</svg>
