<svg width="91" height="62" viewBox="0 0 91 62" fill="none" xmlns="http://www.w3.org/2000/svg">
<mask id="path-1-outside-1_3508_241" maskUnits="userSpaceOnUse" x="-1" y="-1" width="93" height="64" fill="black">
<rect fill="white" x="-1" y="-1" width="93" height="64"/>
<path d="M21.92 61.2C14.56 61.2 9.14667 58.3733 5.68 52.72C2.21333 47.0667 0.48 39.7067 0.48 30.64C0.48 21.3067 2.16 13.92 5.52 8.48C8.88 2.98666 14.3467 0.239997 21.92 0.239997C36.16 0.239997 43.28 10.3733 43.28 30.64C43.28 39.8667 41.5467 47.28 38.08 52.88C34.6133 58.4267 29.2267 61.2 21.92 61.2ZM21.92 53.04C26.2933 53.04 29.3067 50.96 30.96 46.8C32.6667 42.5867 33.52 37.2 33.52 30.64C33.52 23.76 32.6933 18.32 31.04 14.32C29.3867 10.32 26.3467 8.32 21.92 8.32C17.4933 8.32 14.4267 10.32 12.72 14.32C11.0667 18.32 10.24 23.76 10.24 30.64C10.24 45.5733 14.1333 53.04 21.92 53.04ZM70.7369 35.28C73.2435 31.92 75.3235 28.8 76.9769 25.92C78.6835 23.04 79.5369 20.3733 79.5369 17.92C79.5369 14.9333 78.7369 12.6667 77.1369 11.12C75.5902 9.52 73.2435 8.72 70.0969 8.72C67.2169 8.72 64.8969 9.52 63.1369 11.12C61.3769 12.72 59.9102 14.6667 58.7369 16.96L51.2969 12.96C53.1635 9.38667 55.6169 6.37333 58.6569 3.92C61.6969 1.46666 65.5902 0.239997 70.3369 0.239997C76.2569 0.239997 80.7902 1.78666 83.9369 4.88C87.0835 7.92 88.6569 11.92 88.6569 16.88C88.6569 23.3333 85.4569 30.48 79.0569 38.32L68.1769 52.08H90.9769V60H50.9769L70.7369 35.28Z"/>
</mask>
<path d="M5.68 52.72L6.53249 52.1973L5.68 52.72ZM5.52 8.48L6.37081 9.00549L6.37308 9.00178L5.52 8.48ZM38.08 52.88L38.928 53.41L38.9303 53.4064L38.08 52.88ZM30.96 46.8L30.0331 46.4246L30.0307 46.4307L30.96 46.8ZM31.04 14.32L31.9642 13.938L31.04 14.32ZM12.72 14.32L11.8002 13.9275L11.7958 13.938L12.72 14.32ZM21.92 60.2C14.8621 60.2 9.79466 57.5171 6.53249 52.1973L4.82751 53.2428C8.49867 59.2296 14.2579 62.2 21.92 62.2V60.2ZM6.53249 52.1973C3.19149 46.7489 1.48 39.5874 1.48 30.64H-0.52C-0.52 39.8259 1.23517 47.3845 4.82751 53.2428L6.53249 52.1973ZM1.48 30.64C1.48 21.412 3.14333 14.2309 6.3708 9.00549L4.6692 7.9545C1.17667 13.6091 -0.52 21.2014 -0.52 30.64H1.48ZM6.37308 9.00178C9.5167 3.86221 14.6228 1.24 21.92 1.24V-0.760003C14.0705 -0.760003 8.2433 2.11111 4.66692 7.95821L6.37308 9.00178ZM21.92 1.24C28.7706 1.24 33.7792 3.65766 37.1218 8.4149C40.5097 13.2366 42.28 20.5932 42.28 30.64H44.28C44.28 20.4201 42.4903 12.5767 38.7582 7.26509C34.9808 1.88901 29.3094 -0.760003 21.92 -0.760003V1.24ZM42.28 30.64C42.28 39.752 40.5668 46.963 37.2297 52.3536L38.9303 53.4064C42.5265 47.597 44.28 39.9814 44.28 30.64H42.28ZM37.232 52.35C33.9721 57.5658 28.9299 60.2 21.92 60.2V62.2C29.5235 62.2 35.2545 59.2876 38.928 53.41L37.232 52.35ZM21.92 54.04C24.2694 54.04 26.3241 53.4792 28.0281 52.303C29.7303 51.128 31.0061 49.3917 31.8893 47.1693L30.0307 46.4307C29.2606 48.3683 28.203 49.752 26.8919 50.657C25.5826 51.5608 23.944 52.04 21.92 52.04V54.04ZM31.8868 47.1754C33.6582 42.8024 34.52 37.2764 34.52 30.64H32.52C32.52 37.1236 31.6751 42.3709 30.0331 46.4246L31.8868 47.1754ZM34.52 30.64C34.52 23.6973 33.6883 18.1094 31.9642 13.938L30.1158 14.702C31.6983 18.5306 32.52 23.8227 32.52 30.64H34.52ZM31.9642 13.938C31.0757 11.7885 29.7868 10.1143 28.0696 8.98458C26.3541 7.85594 24.286 7.32 21.92 7.32V9.32C23.9807 9.32 25.6459 9.78405 26.9704 10.6554C28.2932 11.5257 29.351 12.8515 30.1158 14.702L31.9642 13.938ZM21.92 7.32C19.5537 7.32 17.4808 7.85606 15.7537 8.98239C14.0255 10.1095 12.7164 11.7803 11.8002 13.9276L13.6398 14.7124C14.4303 12.8597 15.5079 11.5305 16.8463 10.6576C18.1859 9.78394 19.8597 9.32 21.92 9.32V7.32ZM11.7958 13.938C10.0717 18.1094 9.24 23.6973 9.24 30.64H11.24C11.24 23.8227 12.0617 18.5306 13.6442 14.702L11.7958 13.938ZM9.24 30.64C9.24 38.161 10.215 43.9548 12.2733 47.9023C13.3101 49.8908 14.6355 51.4368 16.2714 52.4826C17.9115 53.531 19.8067 54.04 21.92 54.04V52.04C20.1399 52.04 18.6285 51.6156 17.3486 50.7974C16.0645 49.9765 14.9565 48.7225 14.0467 46.9776C12.2117 43.4585 11.24 38.0523 11.24 30.64H9.24ZM70.7369 35.28L71.518 35.9044L71.5284 35.8913L71.5384 35.878L70.7369 35.28ZM76.9769 25.92L76.1165 25.4101L76.1096 25.4221L76.9769 25.92ZM77.1369 11.12L76.4179 11.815L76.4297 11.8272L76.4419 11.839L77.1369 11.12ZM63.1369 11.12L63.8095 11.8599L63.1369 11.12ZM58.7369 16.96L58.2633 17.8408L59.1623 18.3241L59.6271 17.4155L58.7369 16.96ZM51.2969 12.96L50.4105 12.497L49.953 13.3728L50.8233 13.8408L51.2969 12.96ZM58.6569 3.92L59.2849 4.69819L58.6569 3.92ZM83.9369 4.88L83.2358 5.59315L83.2421 5.59919L83.9369 4.88ZM79.0569 38.32L78.2822 37.6876L78.2773 37.6937L78.2725 37.6998L79.0569 38.32ZM68.1769 52.08L67.3925 51.4598L66.1113 53.08H68.1769V52.08ZM90.9769 52.08H91.9769V51.08H90.9769V52.08ZM90.9769 60V61H91.9769V60H90.9769ZM50.9769 60L50.1958 59.3756L48.8973 61H50.9769V60ZM71.5384 35.878C74.0631 32.4938 76.1665 29.3401 77.8441 26.4179L76.1096 25.4221C74.4805 28.2599 72.424 31.3462 69.9354 34.682L71.5384 35.878ZM77.8372 26.4298C79.6032 23.4495 80.5369 20.6066 80.5369 17.92H78.5369C78.5369 20.1401 77.7638 22.6304 76.1166 25.4102L77.8372 26.4298ZM80.5369 17.92C80.5369 14.7583 79.6865 12.1938 77.8319 10.401L76.4419 11.839C77.7872 13.1395 78.5369 15.1083 78.5369 17.92H80.5369ZM77.8559 10.425C76.054 8.56098 73.4006 7.72 70.0969 7.72V9.72C73.0865 9.72 75.1264 10.479 76.4179 11.815L77.8559 10.425ZM70.0969 7.72C67.0233 7.72 64.4454 8.57898 62.4642 10.3801L63.8095 11.8599C65.3484 10.461 67.4105 9.72 70.0969 9.72V7.72ZM62.4642 10.3801C60.608 12.0675 59.0702 14.113 57.8466 16.5045L59.6271 17.4155C60.7502 15.2204 62.1457 13.3725 63.8095 11.8599L62.4642 10.3801ZM59.2104 16.0792L51.7704 12.0792L50.8233 13.8408L58.2633 17.8408L59.2104 16.0792ZM52.1832 13.423C53.9884 9.96737 56.3552 7.06253 59.2849 4.69819L58.0289 3.1418C54.8786 5.68413 52.3387 8.80596 50.4105 12.497L52.1832 13.423ZM59.2849 4.69819C62.1112 2.41735 65.7679 1.24 70.3369 1.24V-0.760003C65.4125 -0.760003 61.2826 0.515984 58.0289 3.1418L59.2849 4.69819ZM70.3369 1.24C76.0867 1.24 80.333 2.73944 83.2358 5.59312L84.6379 4.16688C81.2475 0.833885 76.427 -0.760003 70.3369 -0.760003V1.24ZM83.2421 5.59919C86.1669 8.42486 87.6569 12.1515 87.6569 16.88H89.6569C89.6569 11.6885 88.0002 7.41514 84.6317 4.16081L83.2421 5.59919ZM87.6569 16.88C87.6569 23.0039 84.6146 29.9304 78.2822 37.6876L79.8315 38.9524C86.2991 31.0296 89.6569 23.6628 89.6569 16.88H87.6569ZM78.2725 37.6998L67.3925 51.4598L68.9613 52.7002L79.8413 38.9402L78.2725 37.6998ZM68.1769 53.08H90.9769V51.08H68.1769V53.08ZM89.9769 52.08V60H91.9769V52.08H89.9769ZM90.9769 59H50.9769V61H90.9769V59ZM51.758 60.6244L71.518 35.9044L69.9558 34.6556L50.1958 59.3756L51.758 60.6244Z" fill="#C8F31D" mask="url(#path-1-outside-1_3508_241)"/>
</svg>
