<svg width="91" height="62" viewBox="0 0 91 62" fill="none" xmlns="http://www.w3.org/2000/svg">
<mask id="path-1-outside-1_3508_238" maskUnits="userSpaceOnUse" x="-1" y="-1" width="94" height="64" fill="black">
<rect fill="white" x="-1" y="-1" width="94" height="64"/>
<path d="M21.92 61.2C14.56 61.2 9.14667 58.3733 5.68 52.72C2.21333 47.0667 0.48 39.7067 0.48 30.64C0.48 21.3067 2.16 13.92 5.52 8.48C8.88 2.98666 14.3467 0.239997 21.92 0.239997C36.16 0.239997 43.28 10.3733 43.28 30.64C43.28 39.8667 41.5467 47.28 38.08 52.88C34.6133 58.4267 29.2267 61.2 21.92 61.2ZM21.92 53.04C26.2933 53.04 29.3067 50.96 30.96 46.8C32.6667 42.5867 33.52 37.2 33.52 30.64C33.52 23.76 32.6933 18.32 31.04 14.32C29.3867 10.32 26.3467 8.32 21.92 8.32C17.4933 8.32 14.4267 10.32 12.72 14.32C11.0667 18.32 10.24 23.76 10.24 30.64C10.24 45.5733 14.1333 53.04 21.92 53.04ZM67.4569 61.2C64.0435 61.2 60.6035 60.72 57.1369 59.76C53.7235 58.7467 51.2435 57.4667 49.6969 55.92L53.4569 48.32C55.0569 49.6 57.0835 50.72 59.5369 51.68C61.9902 52.5867 64.4969 53.04 67.0569 53.04C76.1769 53.04 80.7369 49.3333 80.7369 41.92C80.7369 38.7733 79.4835 36.24 76.9769 34.32C74.5235 32.4 71.1902 31.44 66.9769 31.44C64.0435 31.44 61.5635 31.6 59.5369 31.92L74.2569 9.04H52.1769V1.2H90.1769L73.5369 24.96C76.8969 25.0667 79.8569 25.8667 82.4169 27.36C85.0302 28.8533 87.0302 30.8267 88.4169 33.28C89.8035 35.68 90.4969 38.3467 90.4969 41.28C90.4969 45.12 89.5902 48.56 87.7769 51.6C85.9635 54.5867 83.3235 56.9333 79.8569 58.64C76.3902 60.3467 72.2569 61.2 67.4569 61.2Z"/>
</mask>
<path d="M5.68 52.72L6.53249 52.1973L5.68 52.72ZM5.52 8.48L6.37081 9.00549L6.37308 9.00178L5.52 8.48ZM38.08 52.88L38.928 53.41L38.9303 53.4064L38.08 52.88ZM30.96 46.8L30.0331 46.4246L30.0307 46.4307L30.96 46.8ZM31.04 14.32L31.9642 13.938L31.04 14.32ZM12.72 14.32L11.8002 13.9275L11.7958 13.938L12.72 14.32ZM21.92 60.2C14.8621 60.2 9.79466 57.5171 6.53249 52.1973L4.82751 53.2428C8.49867 59.2296 14.2579 62.2 21.92 62.2V60.2ZM6.53249 52.1973C3.19149 46.7489 1.48 39.5874 1.48 30.64H-0.52C-0.52 39.8259 1.23517 47.3845 4.82751 53.2428L6.53249 52.1973ZM1.48 30.64C1.48 21.412 3.14333 14.2309 6.3708 9.00549L4.6692 7.9545C1.17667 13.6091 -0.52 21.2014 -0.52 30.64H1.48ZM6.37308 9.00178C9.5167 3.86221 14.6228 1.24 21.92 1.24V-0.760003C14.0705 -0.760003 8.2433 2.11111 4.66692 7.95821L6.37308 9.00178ZM21.92 1.24C28.7706 1.24 33.7792 3.65766 37.1218 8.4149C40.5097 13.2366 42.28 20.5932 42.28 30.64H44.28C44.28 20.4201 42.4903 12.5767 38.7582 7.26509C34.9808 1.88901 29.3094 -0.760003 21.92 -0.760003V1.24ZM42.28 30.64C42.28 39.752 40.5668 46.963 37.2297 52.3536L38.9303 53.4064C42.5265 47.597 44.28 39.9814 44.28 30.64H42.28ZM37.232 52.35C33.9721 57.5658 28.9299 60.2 21.92 60.2V62.2C29.5235 62.2 35.2545 59.2876 38.928 53.41L37.232 52.35ZM21.92 54.04C24.2694 54.04 26.3241 53.4792 28.0281 52.303C29.7303 51.128 31.0061 49.3917 31.8893 47.1693L30.0307 46.4307C29.2606 48.3683 28.203 49.752 26.8919 50.657C25.5826 51.5608 23.944 52.04 21.92 52.04V54.04ZM31.8868 47.1754C33.6582 42.8024 34.52 37.2764 34.52 30.64H32.52C32.52 37.1236 31.6751 42.3709 30.0331 46.4246L31.8868 47.1754ZM34.52 30.64C34.52 23.6973 33.6883 18.1094 31.9642 13.938L30.1158 14.702C31.6983 18.5306 32.52 23.8227 32.52 30.64H34.52ZM31.9642 13.938C31.0757 11.7885 29.7868 10.1143 28.0696 8.98458C26.3541 7.85594 24.286 7.32 21.92 7.32V9.32C23.9807 9.32 25.6459 9.78405 26.9704 10.6554C28.2932 11.5257 29.351 12.8515 30.1158 14.702L31.9642 13.938ZM21.92 7.32C19.5537 7.32 17.4808 7.85606 15.7537 8.98239C14.0255 10.1095 12.7164 11.7803 11.8002 13.9276L13.6398 14.7124C14.4303 12.8597 15.5079 11.5305 16.8463 10.6576C18.1859 9.78394 19.8597 9.32 21.92 9.32V7.32ZM11.7958 13.938C10.0717 18.1094 9.24 23.6973 9.24 30.64H11.24C11.24 23.8227 12.0617 18.5306 13.6442 14.702L11.7958 13.938ZM9.24 30.64C9.24 38.161 10.215 43.9548 12.2733 47.9023C13.3101 49.8908 14.6355 51.4368 16.2714 52.4826C17.9115 53.531 19.8067 54.04 21.92 54.04V52.04C20.1399 52.04 18.6285 51.6156 17.3486 50.7974C16.0645 49.9765 14.9565 48.7225 14.0467 46.9776C12.2117 43.4585 11.24 38.0523 11.24 30.64H9.24ZM57.1369 59.76L56.8523 60.7186L56.8611 60.7213L56.87 60.7237L57.1369 59.76ZM49.6969 55.92L48.8006 55.4766L48.4824 56.1197L48.9898 56.6271L49.6969 55.92ZM53.4569 48.32L54.0816 47.5391L53.1115 46.763L52.5606 47.8766L53.4569 48.32ZM59.5369 51.68L59.1725 52.6112L59.1813 52.6147L59.1902 52.618L59.5369 51.68ZM76.9769 34.32L76.3605 35.1075L76.3688 35.1139L76.9769 34.32ZM59.5369 31.92L58.6959 31.3789L57.4884 33.2558L59.6928 32.9078L59.5369 31.92ZM74.2569 9.04L75.0979 9.58105L76.0893 8.04H74.2569V9.04ZM52.1769 9.04H51.1769V10.04H52.1769V9.04ZM52.1769 1.2V0.199999H51.1769V1.2H52.1769ZM90.1769 1.2L90.996 1.77365L92.0981 0.199999H90.1769V1.2ZM73.5369 24.96L72.7178 24.3863L71.6571 25.9008L73.5051 25.9595L73.5369 24.96ZM82.4169 27.36L81.913 28.2238L81.9207 28.2282L82.4169 27.36ZM88.4169 33.28L87.5463 33.7721L87.551 33.7803L88.4169 33.28ZM87.7769 51.6L88.6317 52.119L88.6357 52.1123L87.7769 51.6ZM67.4569 60.2C64.1385 60.2 60.7882 59.7335 57.4038 58.7963L56.87 60.7237C60.4189 61.7065 63.9486 62.2 67.4569 62.2V60.2ZM57.4215 58.8014C54.0784 57.8089 51.7811 56.59 50.404 55.2129L48.9898 56.6271C50.706 58.3433 53.3687 59.6844 56.8523 60.7186L57.4215 58.8014ZM50.5932 56.3634L54.3532 48.7634L52.5606 47.8766L48.8006 55.4766L50.5932 56.3634ZM52.8322 49.1009C54.5296 50.4588 56.6507 51.6244 59.1725 52.6112L59.9013 50.7488C57.5164 49.8156 55.5841 48.7412 54.0816 47.5391L52.8322 49.1009ZM59.1902 52.618C61.7521 53.5648 64.376 54.04 67.0569 54.04V52.04C64.6178 52.04 62.2283 51.6086 59.8835 50.742L59.1902 52.618ZM67.0569 54.04C71.7265 54.04 75.4144 53.0952 77.9476 51.036C80.5206 48.9445 81.7369 45.8419 81.7369 41.92H79.7369C79.7369 45.4114 78.6732 47.8688 76.6861 49.484C74.6594 51.1315 71.5072 52.04 67.0569 52.04V54.04ZM81.7369 41.92C81.7369 38.4609 80.3377 35.6346 77.585 33.5261L76.3688 35.1139C78.6294 36.8454 79.7369 39.0858 79.7369 41.92H81.7369ZM77.5932 33.5325C74.9109 31.4333 71.3354 30.44 66.9769 30.44V32.44C71.045 32.44 74.1362 33.3667 76.3606 35.1075L77.5932 33.5325ZM66.9769 30.44C64.0115 30.44 61.4759 30.6015 59.3809 30.9322L59.6928 32.9078C61.6512 32.5985 64.0756 32.44 66.9769 32.44V30.44ZM60.3779 32.4611L75.0979 9.58105L73.4159 8.49894L58.6959 31.3789L60.3779 32.4611ZM74.2569 8.04H52.1769V10.04H74.2569V8.04ZM53.1769 9.04V1.2H51.1769V9.04H53.1769ZM52.1769 2.2H90.1769V0.199999H52.1769V2.2ZM89.3578 0.626351L72.7178 24.3863L74.356 25.5336L90.996 1.77365L89.3578 0.626351ZM73.5051 25.9595C76.7215 26.0616 79.515 26.8249 81.913 28.2238L82.9207 26.4962C80.1988 24.9084 77.0722 24.0717 73.5686 23.9605L73.5051 25.9595ZM81.9207 28.2282C84.3887 29.6385 86.2544 31.4863 87.5463 33.7721L89.2874 32.7879C87.8061 30.167 85.6717 28.0681 82.913 26.4918L81.9207 28.2282ZM87.551 33.7803C88.8446 36.0192 89.4969 38.5117 89.4969 41.28H91.4969C91.4969 38.1816 90.7625 35.3408 89.2827 32.7797L87.551 33.7803ZM89.4969 41.28C89.4969 44.9555 88.6312 48.2157 86.9181 51.0877L88.6357 52.1123C90.5492 48.9043 91.4969 45.2845 91.4969 41.28H89.4969ZM86.9221 51.081C85.2179 53.8879 82.7297 56.1111 79.4152 57.7428L80.2986 59.5372C83.9174 57.7556 86.7092 55.2855 88.6317 52.119L86.9221 51.081ZM79.4152 57.7428C76.1152 59.3675 72.14 60.2 67.4569 60.2V62.2C72.3738 62.2 76.6653 61.3259 80.2986 59.5372L79.4152 57.7428Z" fill="#C8F31D" mask="url(#path-1-outside-1_3508_238)"/>
</svg>
