<svg width="974" height="651" viewBox="0 0 974 651" fill="none" xmlns="http://www.w3.org/2000/svg">
<g clip-path="url(#clip0_3629_1324)">
<path d="M695.867 651.001L856.779 651.001L611.681 405.743C600.491 394.547 586.105 389.215 571.186 389.215C556.8 389.215 541.881 395.08 531.224 405.743C508.846 428.136 508.846 463.859 531.224 486.252L695.867 651.001Z" fill="#C8F31D"/>
<path d="M974 188.743L974 29.3255C964.409 22.3943 952.687 19.1953 941.498 19.1953C927.112 19.1953 912.193 24.527 901.003 35.7236C878.625 58.1167 878.625 93.839 901.003 116.232L974 188.743Z" fill="#C8F31D"/>
<path d="M902.602 651.001L974 651.001L974 561.428L937.768 525.173C926.579 513.976 912.193 508.645 897.274 508.645C882.887 508.645 867.968 513.976 856.779 525.173C834.4 547.566 834.4 583.288 856.779 605.681L902.602 651.001Z" fill="#C8F31D"/>
<path d="M-4.80095e-06 651.001L109.761 651.001L0 541.168L-4.80095e-06 651.001Z" fill="url(#paint0_linear_3629_1324)"/>
<path d="M847.721 518.773L848.254 518.24C870.1 496.38 870.1 460.658 848.254 438.265L837.065 427.068C825.875 415.872 820.547 401.476 820.547 387.081C820.547 372.685 825.875 358.289 837.065 347.093C858.91 325.233 894.609 325.233 916.988 347.093L974 404.142L974 243.125L883.42 152.486C861.574 130.626 825.875 130.626 803.497 152.486L802.964 153.019C781.118 174.879 744.886 174.879 723.041 153.019L587.704 16.5278C565.858 -5.33217 530.159 -5.33217 507.78 16.5278L507.247 17.0609C485.402 38.9209 485.402 75.1764 507.247 97.0364L518.437 108.233C540.282 130.093 540.282 165.815 518.437 188.208L518.437 188.742C496.591 210.601 496.591 246.324 518.437 268.717L768.33 518.773C790.176 540.633 825.875 540.633 847.721 518.773Z" fill="#C8F31D"/>
<path d="M167.839 650.999L648.978 650.999L411.872 413.739C390.026 391.879 354.327 391.879 331.949 413.739L331.416 414.272C309.57 436.132 309.57 471.854 331.416 494.247L342.605 505.444C353.794 516.64 359.123 531.036 359.123 545.432C359.123 559.827 353.794 574.223 342.605 585.419C320.759 607.279 284.527 607.279 262.682 585.419L126.812 448.928C104.966 427.068 69.267 427.068 46.8884 448.928L46.3556 449.461C24.5099 471.321 24.5099 507.043 46.3556 529.437L167.839 650.999Z" fill="url(#paint1_linear_3629_1324)"/>
<path d="M916.455 24.5254C916.988 24.5254 917.521 23.9922 917.521 23.9922L973.467 79.975L973.467 82.1077L916.455 24.5254Z" fill="#131313"/>
<path d="M904.2 32.5234C904.733 31.9902 904.733 31.9902 905.266 31.457L974 100.236L974 102.369L904.2 32.5234Z" fill="#131313"/>
<path d="M931.907 19.7266C932.44 19.7266 932.973 19.7266 933.505 19.7266L974 60.2474L974 62.3801L931.907 19.7266Z" fill="#131313"/>
<path d="M952.154 20.2578C952.687 20.2578 953.753 20.791 954.285 20.791L973.467 39.9851L973.467 42.1178L952.154 20.2578Z" fill="#131313"/>
<path d="M885.019 73.5761C885.019 73.0429 885.019 72.5097 885.019 71.9766L974 161.016L974 163.149L885.019 73.5761Z" fill="#131313"/>
<path d="M889.814 98.6365C889.281 97.5702 888.748 96.5038 888.748 95.4375L974 181.278L974 183.41L889.814 98.6365Z" fill="#131313"/>
<path d="M894.609 43.1874C894.609 42.6543 895.142 42.6543 895.142 42.1211L973.467 120.497L973.467 122.63L894.609 43.1874Z" fill="#131313"/>
<path d="M888.215 57.0487C888.215 56.5156 888.748 55.9824 888.748 55.4492L974.533 141.29L974.533 143.422L888.215 57.0487Z" fill="#131313"/>
<path d="M549.873 393.479C550.406 393.479 550.939 392.945 551.472 392.945L809.358 650.999L807.226 650.999L549.873 393.479Z" fill="#131313"/>
<path d="M588.769 391.879C589.835 392.412 590.9 392.412 591.433 392.945L849.319 650.999L847.188 650.999L588.769 391.879Z" fill="#131313"/>
<path d="M537.085 400.943C537.618 400.41 537.618 400.41 538.151 400.41L789.11 651.533L786.979 651.533L537.085 400.943Z" fill="#131313"/>
<path d="M566.391 389.215C566.923 389.215 567.456 389.215 567.989 389.215L829.605 651.001L827.474 651.001L566.391 389.215Z" fill="#131313"/>
<path d="M519.502 423.336C519.502 422.803 520.035 422.27 520.035 422.27L748.616 650.999L746.485 650.999L519.502 423.336Z" fill="#131313"/>
<path d="M516.838 461.193C516.838 460.127 516.305 459.594 516.305 458.527L708.121 650.468L705.99 650.468L516.838 461.193Z" fill="#131313"/>
<path d="M515.24 439.334C515.24 438.801 515.24 438.268 515.24 437.734L728.369 651.002L726.237 651.002L515.24 439.334Z" fill="#131313"/>
<path d="M526.962 411.074C527.494 410.541 527.494 410.541 528.027 410.008L768.863 651L766.732 651L526.962 411.074Z" fill="#131313"/>
<path d="M887.683 508.645C888.215 508.645 888.748 508.645 889.281 508.645L974 593.418L974 595.551L887.683 508.645Z" fill="#131313"/>
<path d="M872.764 513.443C873.296 513.443 873.829 512.91 873.829 512.91L974 613.146L974 615.279L872.764 513.443Z" fill="#131313"/>
<path d="M860.509 521.973C861.041 521.439 861.041 521.439 861.574 520.906L974.533 633.938L974.533 636.071L860.509 521.973Z" fill="#131313"/>
<path d="M908.463 509.176C909.528 509.176 910.061 509.709 911.127 509.709L974.533 573.156L974.533 575.289L908.463 509.176Z" fill="#131313"/>
<path d="M840.794 562.494C840.794 561.961 840.794 561.428 840.794 560.895L930.841 651L928.71 651L840.794 562.494Z" fill="#131313"/>
<path d="M845.057 587.554C844.524 586.488 843.991 585.422 843.991 584.355L910.594 651.002L908.463 651.002L845.057 587.554Z" fill="#131313"/>
<path d="M843.991 545.967C843.991 545.434 844.524 544.9 844.524 544.367L951.088 651.001L948.957 651.001L843.991 545.967Z" fill="#131313"/>
<path d="M850.918 532.105C850.918 531.572 851.451 531.572 851.451 531.039L970.803 650.469L968.672 650.469L850.918 532.105Z" fill="#131313"/>
<path d="M749.149 167.414C750.214 167.414 750.747 167.947 751.813 167.947L974.533 390.812L974.533 392.945L749.149 167.414Z" fill="#131313"/>
<path d="M563.727 2.66406C564.792 3.19723 565.858 3.19723 566.391 3.7304L896.741 334.295C895.675 333.762 894.609 333.762 894.077 333.229L563.727 2.66406Z" fill="#131313"/>
<path d="M770.462 168.48C770.994 168.48 771.527 168.48 772.06 168.48L974 370.552L974 372.684L770.462 168.48Z" fill="#131313"/>
<path d="M525.363 4.26364C525.896 4.26364 526.429 3.73047 526.429 3.73047L856.246 333.762C855.713 333.762 855.181 334.296 854.648 334.296L525.363 4.26364Z" fill="#131313"/>
<path d="M541.881 0.53125C542.413 0.53125 542.946 0.53125 543.479 0.53125L873.829 331.096C873.296 331.096 872.764 331.096 872.231 331.096L541.881 0.53125Z" fill="#131313"/>
<path d="M839.196 135.957C839.729 135.957 840.261 135.957 840.794 135.957L974 269.249L974 271.382L839.196 135.957Z" fill="#131313"/>
<path d="M862.64 139.156C863.706 139.689 864.771 139.689 865.837 140.223L974.533 248.989L974.533 250.589L862.64 139.156Z" fill="#131313"/>
<path d="M786.446 164.213C786.979 164.213 787.512 163.68 787.512 163.68L974 350.289L974 351.889L786.446 164.213Z" fill="#131313"/>
<path d="M513.108 12.2597C513.641 11.7266 513.641 11.7266 514.174 11.7266L843.991 341.225C843.458 341.225 843.458 341.758 842.926 341.758L513.108 12.2597Z" fill="#131313"/>
<path d="M822.678 139.689C823.211 139.689 823.744 139.156 824.277 139.156L974.533 289.51L974.533 291.643L822.678 139.689Z" fill="#131313"/>
<path d="M798.701 156.75C799.234 156.217 799.234 156.217 799.767 155.684L974 330.03L974 332.163L798.701 156.75Z" fill="#131313"/>
<path d="M809.891 147.154C810.423 146.621 810.423 146.621 810.956 146.621L974 309.771L974 311.904L809.891 147.154Z" fill="#131313"/>
<path d="M530.159 171.144C530.159 170.611 530.692 170.078 530.692 170.078L860.509 500.11C860.509 500.643 859.976 501.176 859.976 501.176L530.159 171.144Z" fill="#131313"/>
<path d="M505.649 207.402C505.649 206.869 506.181 206.336 506.181 206.336L830.671 531.036C830.138 531.036 829.605 531.569 829.605 531.569L505.649 207.402Z" fill="#131313"/>
<path d="M522.166 183.41C522.699 182.877 522.699 182.877 522.699 182.344L852.516 512.376C851.984 512.909 851.984 512.909 851.451 513.442L522.166 183.41Z" fill="#131313"/>
<path d="M513.108 194.605C513.641 194.072 513.641 194.072 513.641 193.539L842.926 523.038C842.393 523.571 842.393 523.571 841.86 523.571L513.108 194.605Z" fill="#131313"/>
<path d="M501.919 223.396C501.919 222.863 501.919 222.33 501.919 221.797L814.686 534.767C814.153 534.767 813.62 534.767 813.087 534.767L501.919 223.396Z" fill="#131313"/>
<path d="M504.583 246.857C504.05 245.791 504.05 245.258 503.518 244.191L792.307 533.169C791.242 532.636 790.176 532.636 789.643 532.103L504.583 246.857Z" fill="#131313"/>
<path d="M534.421 155.15C534.421 154.617 534.421 154.084 534.421 153.551L864.771 484.116C864.771 484.649 864.771 485.182 864.771 485.715L534.421 155.15Z" fill="#131313"/>
<path d="M490.73 50.6503C490.73 50.1171 490.73 49.584 490.73 49.0508L821.08 379.616C821.08 380.149 821.08 380.682 821.08 381.215L490.73 50.6503Z" fill="#131313"/>
<path d="M494.992 34.6523C495.525 34.1191 495.525 34.1191 495.525 33.5859L825.875 363.618C825.875 364.151 825.342 364.684 825.342 364.684L494.992 34.6523Z" fill="#131313"/>
<path d="M492.861 73.0408C492.861 71.9745 492.328 71.4413 492.328 70.375L822.678 400.94C822.678 402.006 823.211 402.54 823.211 403.606L492.861 73.0408Z" fill="#131313"/>
<path d="M532.823 133.291C532.823 132.225 532.29 131.691 531.757 130.625L862.107 461.19C862.64 462.256 862.64 462.79 862.64 463.856L532.823 133.291Z" fill="#131313"/>
<path d="M502.452 21.8593C502.985 21.3261 502.985 21.3261 503.518 20.793L833.335 350.825C832.802 351.358 832.802 351.358 832.269 351.891L502.452 21.8593Z" fill="#131313"/>
<g opacity="0.5">
<path d="M317.029 469.721C317.029 468.654 316.497 468.121 316.497 467.055L499.788 650.465L497.656 650.465L317.029 469.721Z" fill="#131313"/>
<path d="M319.161 431.867C319.161 431.334 319.694 430.801 319.694 430.801L539.75 651L538.151 651L319.161 431.867Z" fill="#131313"/>
<path d="M314.898 447.861C314.898 447.328 314.898 446.795 314.898 446.262L519.502 650.999L517.371 650.999L314.898 447.861Z" fill="#131313"/>
<path d="M356.991 529.971C356.991 528.904 356.458 528.371 355.926 527.305L479.54 651L477.409 651L356.991 529.971Z" fill="#131313"/>
<path d="M346.867 580.621C347.4 580.088 347.4 580.088 347.4 579.555L418.798 650.999L416.667 650.999L346.867 580.621Z" fill="#131313"/>
<path d="M354.327 567.824C354.327 567.291 354.86 566.758 354.86 566.758L439.046 650.999L436.915 650.999L354.327 567.824Z" fill="#131313"/>
<path d="M358.59 551.83C358.59 551.297 358.59 550.764 358.59 550.23L459.293 651L457.162 651L358.59 551.83Z" fill="#131313"/>
<path d="M366.049 397.211C366.582 397.211 367.115 397.211 367.648 397.211L621.271 651L619.14 651L366.049 397.211Z" fill="#131313"/>
<path d="M388.428 399.344C389.493 399.877 390.559 399.877 391.092 400.41L641.519 651L639.387 651L388.428 399.344Z" fill="#131313"/>
<path d="M350.064 401.475C350.597 401.475 351.13 400.941 351.663 400.941L601.557 650.998L599.426 650.998L350.064 401.475Z" fill="#131313"/>
<path d="M337.277 408.939C337.809 408.406 337.809 408.406 338.342 408.406L580.777 650.998L578.645 650.998L337.277 408.939Z" fill="#131313"/>
<path d="M327.153 419.07C327.686 418.537 327.686 418.537 328.219 418.004L561.062 650.999L558.931 650.999L327.153 419.07Z" fill="#131313"/>
<path d="M33.5677 469.721C33.5677 469.187 34.1006 468.654 34.1006 468.121L216.859 650.998L214.727 650.998L33.5677 469.721Z" fill="#131313"/>
<path d="M40.4945 456.394C40.4945 455.861 41.0273 455.861 41.5602 455.328L237.106 651.001L234.975 651.001L40.4945 456.394Z" fill="#131313"/>
<path d="M62.873 438.264C63.4059 438.264 63.9387 437.73 63.9387 437.73L277.068 650.998L274.936 650.998L62.873 438.264Z" fill="#131313"/>
<path d="M50.0853 446.262C50.6181 445.728 50.6182 445.728 51.151 445.195L256.821 650.999L254.689 650.999L50.0853 446.262Z" fill="#131313"/>
<path d="M29.838 486.252C29.838 485.719 29.838 485.186 29.838 484.652L196.079 651.001L193.947 651.001L29.838 486.252Z" fill="#131313"/>
<path d="M33.5677 510.244C33.0349 509.178 33.0349 508.111 32.5021 507.578L175.831 651.001L173.7 651.001L33.5677 510.244Z" fill="#131313"/>
<path d="M336.211 590.217C336.744 589.684 336.744 589.684 337.277 589.684L398.551 650.998L396.42 650.998L336.211 590.217Z" fill="#131313"/>
<path d="M306.906 601.414C307.439 601.414 307.971 601.414 308.504 601.414L358.057 650.999L355.925 650.999L306.906 601.414Z" fill="#131313"/>
<path d="M323.423 597.682C323.956 597.682 324.489 597.148 324.489 597.148L378.304 650.999L376.173 650.999L323.423 597.682Z" fill="#131313"/>
<path d="M78.3248 433.465C78.8577 433.465 79.3905 433.465 79.9233 433.465L297.848 651.531L295.716 651.531L78.3248 433.465Z" fill="#131313"/>
<path d="M283.462 598.215C284.527 598.748 285.593 598.748 286.126 599.281L337.81 650.999L335.678 650.999L283.462 598.215Z" fill="#131313"/>
<path d="M99.105 434C100.171 434 100.703 434.533 101.769 434.533L318.095 651L315.964 651L99.105 434Z" fill="#131313"/>
</g>
<g opacity="0.5">
<path d="M-9.32227e-08 577.957L0 575.824L75.128 651.001L72.9967 651.001L-9.32227e-08 577.957Z" fill="#131313"/>
<path d="M-9.32209e-08 598.215L0 596.082L54.8807 650.998L52.7494 650.998L-9.32209e-08 598.215Z" fill="#131313"/>
<path d="M-9.32227e-08 557.695L0 555.562L95.3753 651L93.244 651L-9.32227e-08 557.695Z" fill="#131313"/>
<path d="M-9.32227e-08 618.476L0 616.344L34.6335 651L32.5022 651L-9.32227e-08 618.476Z" fill="#131313"/>
<path d="M-9.32227e-08 638.738L0 636.605L14.3862 651.001L12.2549 651.001L-9.32227e-08 638.738Z" fill="#131313"/>
</g>
</g>
<defs>
<linearGradient id="paint0_linear_3629_1324" x1="-2.40047e-06" y1="596.084" x2="109.761" y2="596.084" gradientUnits="userSpaceOnUse">
<stop stop-color="#C8F31D" stop-opacity="0"/>
<stop offset="1" stop-color="#C8F31D" stop-opacity="0.42"/>
</linearGradient>
<linearGradient id="paint1_linear_3629_1324" x1="29.9713" y1="524.171" x2="648.978" y2="524.171" gradientUnits="userSpaceOnUse">
<stop stop-color="#C8F31D" stop-opacity="0"/>
<stop offset="1" stop-color="#C8F31D"/>
</linearGradient>
<clipPath id="clip0_3629_1324">
<rect width="651" height="974" fill="white" transform="matrix(-4.37114e-08 1 1 4.37114e-08 0 0)"/>
</clipPath>
</defs>
</svg>
