<svg width="130" height="68" viewBox="0 0 130 68" fill="none" xmlns="http://www.w3.org/2000/svg">
<path d="M47.6429 0.295341L62.3401 26.0801C63.1705 27.5377 64.523 28.6259 66.1246 29.1252C67.7262 29.6245 69.4576 29.4976 70.9692 28.7701L129.354 0.673373L72.3426 31.4615C70.867 32.2587 69.7486 33.5859 69.2132 35.1754C68.6778 36.7648 68.7651 38.4982 69.4577 40.0258L81.7112 67.0587L67.014 41.274C66.1835 39.8169 64.8312 38.729 63.23 38.2298C61.6288 37.7307 59.8979 37.8574 58.3864 38.5845L-2.80701e-06 66.6807L57.0115 35.8925C58.4871 35.0953 59.6055 33.7681 60.1409 32.1787C60.6763 30.5892 60.5889 28.8559 59.8964 27.3283L47.6429 0.295341Z" fill="#C8F31D"/>
</svg>
