<svg width="379" height="253" viewBox="0 0 379 253" fill="none" xmlns="http://www.w3.org/2000/svg">
<g clip-path="url(#clip0_3629_1430)">
<path d="M108.092 -0.000979645L45.5562 -0.000982378L140.81 95.3148C145.159 99.6662 150.75 101.738 156.548 101.738C162.139 101.738 167.937 99.459 172.078 95.3148C180.775 86.6121 180.775 72.7291 172.078 64.0264L108.092 -0.000979645Z" fill="#C8F31D"/>
<path d="M-3.52667e-05 179.651L-3.79749e-05 241.606C3.72728 244.3 8.28292 245.543 12.6315 245.543C18.2224 245.543 24.0205 243.471 28.369 239.12C37.0661 230.417 37.0661 216.534 28.369 207.831L-3.52667e-05 179.651Z" fill="#C8F31D"/>
<path d="M27.7479 -0.000386348L-1.28405e-05 -0.000387561L-1.43621e-05 34.8106L14.081 48.9008C18.4295 53.2521 24.0205 55.3242 29.8186 55.3242C35.4096 55.3242 41.2076 53.2521 45.5562 48.9008C54.2533 40.198 54.2533 26.3151 45.5562 17.6123L27.7479 -0.000386348Z" fill="#C8F31D"/>
<path d="M378.53 -0.00130844L335.873 -0.00131031L378.53 42.6836L378.53 -0.00130844Z" fill="url(#paint0_linear_3629_1430)"/>
<path d="M49.0764 51.3874L48.8693 51.5946C40.3793 60.0901 40.3793 73.9731 48.8693 82.6758L53.2179 87.0272C57.5664 91.3786 59.6372 96.9732 59.6372 102.568C59.6372 108.162 57.5664 113.757 53.2179 118.108C44.7279 126.604 30.8539 126.604 22.1568 118.108L-2.36544e-05 95.9371L-2.63897e-05 158.514L35.2025 193.739C43.6925 202.235 57.5664 202.235 66.2635 193.739L66.4706 193.532C74.9606 185.037 89.0416 185.037 97.5316 193.532L150.128 246.578C158.618 255.073 172.492 255.073 181.189 246.578L181.396 246.37C189.886 237.875 189.886 223.785 181.396 215.289L177.048 210.938C168.558 202.442 168.558 188.559 177.048 179.857L177.048 179.649C185.538 171.154 185.538 157.271 177.048 148.568L79.9304 51.3874C71.4404 42.8918 57.5664 42.8918 49.0764 51.3874Z" fill="#C8F31D"/>
<path d="M313.302 -0.00121542L126.315 -0.00122359L218.463 92.2065C226.953 100.702 240.827 100.702 249.524 92.2065L249.731 91.9993C258.221 83.5037 258.221 69.6208 249.731 60.918L245.382 56.5666C241.034 52.2153 238.963 46.6206 238.963 41.026C238.963 35.4314 241.034 29.8368 245.382 25.4854C253.872 16.9898 267.953 16.9898 276.443 25.4854L329.247 78.5307C337.737 87.0263 351.611 87.0263 360.308 78.5307L360.515 78.3235C369.005 69.828 369.005 55.945 360.515 47.2423L313.302 -0.00121542Z" fill="url(#paint1_linear_3629_1430)"/>
<path d="M22.3639 243.472C22.1568 243.472 21.9498 243.68 21.9498 243.68L0.20703 221.923L0.20703 221.094L22.3639 243.472Z" fill="#131313"/>
<path d="M27.1266 240.363C26.9195 240.57 26.9195 240.57 26.7124 240.777L-5.98668e-05 214.047L-5.98305e-05 213.219L27.1266 240.363Z" fill="#131313"/>
<path d="M16.3588 245.336C16.1518 245.336 15.9447 245.336 15.7376 245.336L-1.21899e-06 229.588L-1.18276e-06 228.759L16.3588 245.336Z" fill="#131313"/>
<path d="M8.48999 245.129C8.28292 245.129 7.86875 244.922 7.66168 244.922L0.207048 237.462L0.207048 236.633L8.48999 245.129Z" fill="#131313"/>
<path d="M34.5812 224.41C34.5812 224.617 34.5812 224.824 34.5812 225.031L-3.28197e-05 190.427L-3.27835e-05 189.599L34.5812 224.41Z" fill="#131313"/>
<path d="M32.7176 214.671C32.9246 215.085 33.1317 215.5 33.1317 215.914L-5.57622e-05 182.554L-5.5726e-05 181.725L32.7176 214.671Z" fill="#131313"/>
<path d="M30.8539 236.218C30.8539 236.426 30.6469 236.426 30.6469 236.633L0.207057 206.173L0.207057 205.344L30.8539 236.218Z" fill="#131313"/>
<path d="M33.3388 230.831C33.3388 231.039 33.1317 231.246 33.1317 231.453L-0.207102 198.093L-0.207102 197.264L33.3388 230.831Z" fill="#131313"/>
<path d="M164.83 100.082C164.623 100.082 164.416 100.289 164.209 100.289L63.9857 0.000247362L64.8139 0.000247398L164.83 100.082Z" fill="#131313"/>
<path d="M149.714 100.703C149.3 100.496 148.886 100.496 148.679 100.289L48.4552 -9.59789e-05L49.2835 -9.59427e-05L149.714 100.703Z" fill="#131313"/>
<path d="M169.8 97.1795C169.593 97.3867 169.593 97.3867 169.386 97.3867L71.8545 -0.208394L72.6828 -0.208394L169.8 97.1795Z" fill="#131313"/>
<path d="M158.411 101.738C158.204 101.738 157.997 101.738 157.79 101.738L56.117 -0.000981034L56.9452 -0.000980998L158.411 101.738Z" fill="#131313"/>
<path d="M176.634 88.4762C176.634 88.6834 176.427 88.8906 176.427 88.8906L87.5921 -0.00173576L88.4203 -0.00173573L176.634 88.4762Z" fill="#131313"/>
<path d="M177.669 73.7647C177.669 74.1792 177.876 74.3864 177.876 74.8008L103.33 0.205792L104.158 0.205792L177.669 73.7647Z" fill="#131313"/>
<path d="M178.29 82.2612C178.29 82.4684 178.29 82.6756 178.29 82.8828L95.4609 -0.000499531L96.2892 -0.000499495L178.29 82.2612Z" fill="#131313"/>
<path d="M173.735 93.2418C173.528 93.449 173.528 93.449 173.32 93.6562L79.7232 -0.0018962L80.5516 -0.00189616L173.735 93.2418Z" fill="#131313"/>
<path d="M33.5459 55.3242C33.3388 55.3242 33.1318 55.3242 32.9247 55.3242L-1.0004e-05 22.3781L-9.96774e-06 21.5493L33.5459 55.3242Z" fill="#131313"/>
<path d="M39.3439 53.4607C39.1369 53.4607 38.9298 53.668 38.9298 53.668L-3.26295e-05 14.7128L-3.25933e-05 13.884L39.3439 53.4607Z" fill="#131313"/>
<path d="M44.1066 50.1442C43.8996 50.3514 43.8996 50.3514 43.6925 50.5586L-0.207094 6.63043L-0.207094 5.80159L44.1066 50.1442Z" fill="#131313"/>
<path d="M25.47 55.1172C25.0559 55.1172 24.8488 54.91 24.4347 54.91L-0.207072 30.2522L-0.207072 29.4234L25.47 55.1172Z" fill="#131313"/>
<path d="M51.7684 34.3979C51.7684 34.6051 51.7684 34.8123 51.7684 35.0195L16.773 0.0013298L17.6012 0.00132984L51.7684 34.3979Z" fill="#131313"/>
<path d="M50.1118 24.6591C50.3188 25.0735 50.5259 25.4879 50.5259 25.9023L24.6418 0.00130731L25.47 0.00130735L50.1118 24.6591Z" fill="#131313"/>
<path d="M50.5259 40.8198C50.5259 41.027 50.3189 41.2342 50.3189 41.4414L8.90415 -0.000249775L9.73243 -0.000249738L50.5259 40.8198Z" fill="#131313"/>
<path d="M47.834 46.2067C47.834 46.4139 47.6269 46.4139 47.6269 46.6211L1.24244 0.20643L2.07072 0.20643L47.834 46.2067Z" fill="#131313"/>
<path d="M87.385 187.938C86.9709 187.937 86.7638 187.73 86.3496 187.73L-0.207058 101.117L-0.207058 100.288L87.385 187.938Z" fill="#131313"/>
<path d="M159.447 251.965C159.032 251.758 158.618 251.758 158.411 251.55L30.0256 123.081C30.4397 123.288 30.8539 123.288 31.0609 123.496L159.447 251.965Z" fill="#131313"/>
<path d="M79.1021 187.523C78.895 187.523 78.6879 187.523 78.4809 187.523L-2.70848e-05 108.991L-2.70486e-05 108.163L79.1021 187.523Z" fill="#131313"/>
<path d="M174.356 251.344C174.149 251.344 173.942 251.551 173.942 251.551L45.7632 123.289C45.9703 123.289 46.1773 123.082 46.3844 123.082L174.356 251.344Z" fill="#131313"/>
<path d="M167.937 252.793C167.73 252.793 167.522 252.793 167.315 252.793L38.9298 124.324C39.1369 124.324 39.344 124.324 39.551 124.324L167.937 252.793Z" fill="#131313"/>
<path d="M52.3896 200.16C52.1825 200.16 51.9754 200.16 51.7684 200.16L-1.68091e-05 148.358L-1.67729e-05 147.529L52.3896 200.16Z" fill="#131313"/>
<path d="M43.2784 198.918C42.8642 198.711 42.4501 198.711 42.0359 198.504L-0.20706 156.233L-0.20706 155.611L43.2784 198.918Z" fill="#131313"/>
<path d="M72.8898 189.18C72.6828 189.18 72.4757 189.387 72.4757 189.387L-3.49769e-05 116.864L-3.49497e-05 116.242L72.8898 189.18Z" fill="#131313"/>
<path d="M179.119 248.234C178.911 248.441 178.911 248.441 178.704 248.441L50.5259 120.387C50.733 120.387 50.7329 120.179 50.94 120.179L179.119 248.234Z" fill="#131313"/>
<path d="M58.8089 198.711C58.6018 198.711 58.3947 198.918 58.1877 198.918L-0.207052 140.485L-0.207052 139.656L58.8089 198.711Z" fill="#131313"/>
<path d="M68.1272 192.082C67.9201 192.289 67.9201 192.289 67.713 192.496L-1.2297e-05 124.739L-1.22608e-05 123.91L68.1272 192.082Z" fill="#131313"/>
<path d="M63.7786 195.812C63.5716 196.02 63.5716 196.02 63.3645 196.02L-3.15607e-05 132.614L-3.15245e-05 131.785L63.7786 195.812Z" fill="#131313"/>
<path d="M172.492 186.488C172.492 186.695 172.285 186.902 172.285 186.902L44.1066 58.6404C44.1066 58.4332 44.3137 58.226 44.3137 58.226L172.492 186.488Z" fill="#131313"/>
<path d="M182.018 172.398C182.018 172.605 181.811 172.812 181.811 172.812L55.7027 46.6226C55.9098 46.6226 56.1169 46.4154 56.1169 46.4154L182.018 172.398Z" fill="#131313"/>
<path d="M175.598 181.722C175.391 181.93 175.391 181.93 175.391 182.137L47.2128 53.8748C47.4199 53.6676 47.4199 53.6676 47.627 53.4604L175.598 181.722Z" fill="#131313"/>
<path d="M179.119 177.371C178.911 177.578 178.911 177.578 178.911 177.785L50.94 49.7304C51.1471 49.5232 51.1471 49.5232 51.3542 49.5232L179.119 177.371Z" fill="#131313"/>
<path d="M183.467 166.179C183.467 166.386 183.467 166.594 183.467 166.801L61.915 45.1695C62.1221 45.1695 62.3291 45.1695 62.5362 45.1695L183.467 166.179Z" fill="#131313"/>
<path d="M182.432 157.062C182.639 157.476 182.639 157.683 182.846 158.098L70.6121 45.7908C71.0263 45.998 71.4404 45.998 71.6475 46.2052L182.432 157.062Z" fill="#131313"/>
<path d="M170.836 192.703C170.836 192.91 170.836 193.117 170.836 193.324L42.4501 64.8551C42.4501 64.6479 42.4501 64.4407 42.4501 64.2335L170.836 192.703Z" fill="#131313"/>
<path d="M187.816 233.316C187.816 233.523 187.816 233.73 187.816 233.938L59.4301 105.468C59.4301 105.261 59.4301 105.054 59.4301 104.847L187.816 233.316Z" fill="#131313"/>
<path d="M186.159 239.531C185.952 239.738 185.952 239.738 185.952 239.945L57.5664 111.683C57.5664 111.476 57.7735 111.269 57.7735 111.269L186.159 239.531Z" fill="#131313"/>
<path d="M186.987 224.612C186.987 225.027 187.194 225.234 187.194 225.648L58.8089 97.1793C58.8089 96.7649 58.6018 96.5577 58.6018 96.1433L186.987 224.612Z" fill="#131313"/>
<path d="M171.457 201.198C171.457 201.613 171.664 201.82 171.871 202.234L43.4854 73.7652C43.2783 73.3508 43.2783 73.1436 43.2783 72.7292L171.457 201.198Z" fill="#131313"/>
<path d="M183.26 244.504C183.053 244.711 183.053 244.711 182.846 244.918L54.6674 116.656C54.8744 116.449 54.8744 116.449 55.0815 116.242L183.26 244.504Z" fill="#131313"/>
<g opacity="0.5">
<path d="M255.322 70.4483C255.322 70.8628 255.529 71.07 255.529 71.4844L184.296 0.204724L185.124 0.204724L255.322 70.4483Z" fill="#131313"/>
<path d="M254.493 85.1598C254.493 85.367 254.286 85.5742 254.286 85.5742L168.765 -0.00279611L169.386 -0.00279608L254.493 85.1598Z" fill="#131313"/>
<path d="M256.15 78.9448C256.15 79.152 256.15 79.3592 256.15 79.5664L176.634 -0.00157513L177.462 -0.00157509L256.15 78.9448Z" fill="#131313"/>
<path d="M239.791 47.0343C239.791 47.4487 239.998 47.6559 240.205 48.0703L192.164 -0.00200863L192.993 -0.00200859L239.791 47.0343Z" fill="#131313"/>
<path d="M243.726 27.3512C243.519 27.5584 243.519 27.5584 243.519 27.7656L215.771 -0.000289232L216.599 -0.000289195L243.726 27.3512Z" fill="#131313"/>
<path d="M240.827 32.3239C240.827 32.5311 240.619 32.7383 240.619 32.7383L207.902 -0.00061942L208.73 -0.000619384L240.827 32.3239Z" fill="#131313"/>
<path d="M239.17 38.5385C239.17 38.7457 239.17 38.9529 239.17 39.1602L200.033 -0.00221424L200.861 -0.0022142L239.17 38.5385Z" fill="#131313"/>
<path d="M236.271 98.6289C236.064 98.6289 235.857 98.6289 235.65 98.6289L137.083 -0.00223212L137.911 -0.00223208L236.271 98.6289Z" fill="#131313"/>
<path d="M227.574 97.8008C227.16 97.5936 226.746 97.5936 226.538 97.3864L129.214 -0.00152255L130.042 -0.00152251L227.574 97.8008Z" fill="#131313"/>
<path d="M242.483 96.9725C242.276 96.9725 242.069 97.1797 241.862 97.1797L144.744 -0.00100372L145.573 -0.00100369L242.483 96.9725Z" fill="#131313"/>
<path d="M247.453 94.0701C247.246 94.2773 247.246 94.2773 247.039 94.2773L152.82 -0.00242265L153.649 -0.00242262L247.453 94.0701Z" fill="#131313"/>
<path d="M251.387 90.1325C251.18 90.3397 251.18 90.3397 250.973 90.5469L160.482 -0.00313965L161.31 -0.00313962L251.387 90.1325Z" fill="#131313"/>
<path d="M365.485 70.4487C365.485 70.6559 365.278 70.8631 365.278 71.0703L294.252 -0.00211646L295.08 -0.00211642L365.485 70.4487Z" fill="#131313"/>
<path d="M362.793 75.6286C362.793 75.8358 362.586 75.8358 362.379 76.043L286.383 -0.00247526L287.211 -0.00247523L362.793 75.6286Z" fill="#131313"/>
<path d="M354.096 82.6756C353.889 82.6756 353.682 82.8828 353.682 82.8828L270.852 -0.000499549L271.681 -0.000499513L354.096 82.6756Z" fill="#131313"/>
<path d="M359.066 79.5661C358.858 79.7733 358.858 79.7733 358.651 79.9805L278.721 -0.00193375L279.549 -0.00193371L359.066 79.5661Z" fill="#131313"/>
<path d="M366.934 64.0268C366.934 64.234 366.934 64.4412 366.934 64.6484L302.327 -0.000544511L303.156 -0.000544475L366.934 64.0268Z" fill="#131313"/>
<path d="M365.485 54.7022C365.692 55.1167 365.692 55.5311 365.899 55.7383L310.196 -0.000757745L311.024 -0.000757709L365.485 54.7022Z" fill="#131313"/>
<path d="M247.867 23.6209C247.66 23.8281 247.66 23.8281 247.453 23.8281L223.639 -0.000830756L224.468 -0.000830719L247.867 23.6209Z" fill="#131313"/>
<path d="M259.256 19.2695C259.049 19.2695 258.842 19.2695 258.635 19.2695L239.377 -0.000826751L240.205 -0.000826715L259.256 19.2695Z" fill="#131313"/>
<path d="M252.837 20.7186C252.63 20.7186 252.423 20.9258 252.423 20.9258L231.508 -0.0022516L232.337 -0.00225157L252.837 20.7186Z" fill="#131313"/>
<path d="M348.091 84.5391C347.884 84.5391 347.676 84.5391 347.469 84.5391L262.776 -0.20911L263.605 -0.20911L348.091 84.5391Z" fill="#131313"/>
<path d="M268.367 20.5117C267.953 20.3045 267.539 20.3045 267.332 20.0973L247.246 -0.00190446L248.074 -0.00190442L268.367 20.5117Z" fill="#131313"/>
<path d="M340.015 84.332C339.601 84.332 339.394 84.1248 338.979 84.1248L254.908 -0.00174322L255.736 -0.00174319L340.015 84.332Z" fill="#131313"/>
</g>
<g opacity="0.5">
<path d="M378.53 28.386L378.53 29.2148L349.333 -0.00152525L350.161 -0.00152521L378.53 28.386Z" fill="#131313"/>
<path d="M378.53 20.5149L378.53 21.3438L357.202 0.0013056L358.03 0.00130564L378.53 20.5149Z" fill="#131313"/>
<path d="M378.53 36.261L378.53 37.0898L341.464 -0.000444125L342.293 -0.000444089L378.53 36.261Z" fill="#131313"/>
<path d="M378.53 12.6399L378.53 13.4688L365.071 0.000210174L365.899 0.00021021L378.53 12.6399Z" fill="#131313"/>
<path d="M378.53 4.76491L378.53 5.59375L372.939 -0.000868088L373.768 -0.000868052L378.53 4.76491Z" fill="#131313"/>
</g>
</g>
<defs>
<linearGradient id="paint0_linear_3629_1430" x1="378.53" y1="21.3411" x2="335.873" y2="21.3411" gradientUnits="userSpaceOnUse">
<stop stop-color="#C8F31D" stop-opacity="0"/>
<stop offset="1" stop-color="#C8F31D" stop-opacity="0.42"/>
</linearGradient>
<linearGradient id="paint1_linear_3629_1430" x1="366.883" y1="49.2885" x2="126.315" y2="49.2884" gradientUnits="userSpaceOnUse">
<stop stop-color="#C8F31D" stop-opacity="0"/>
<stop offset="1" stop-color="#C8F31D"/>
</linearGradient>
<clipPath id="clip0_3629_1430">
<rect width="253.001" height="378.53" fill="white" transform="matrix(4.37114e-08 -1 -1 -4.37114e-08 378.53 253)"/>
</clipPath>
</defs>
</svg>
