<svg width="65" height="65" viewBox="0 0 65 65" fill="none" xmlns="http://www.w3.org/2000/svg">
<path d="M51.9973 16.5089C50.876 16.5089 49.966 17.4176 49.966 18.5402V54.6111C49.966 55.731 49.0547 56.6423 47.9348 56.6423H17.0638C15.9439 56.6423 15.0326 55.731 15.0326 54.6111V10.3867C15.0326 9.26682 15.9439 8.35547 17.0638 8.35547H37.7677L45.806 13.8046C46.7363 14.4343 47.9971 14.1933 48.6268 13.263C49.2565 12.334 49.014 11.0706 48.0864 10.4422L39.8247 4.84141C39.3548 4.48661 38.7793 4.29297 38.1875 4.29297H17.0638C13.7042 4.29297 10.9701 7.02703 10.9701 10.3867V54.6111C10.9701 57.9708 13.7042 60.7048 17.0638 60.7048H47.9348C51.2945 60.7048 54.0285 57.9708 54.0285 54.6111V18.5402C54.0285 17.4176 53.1199 16.5089 51.9973 16.5089ZM41.7991 17.2456H23.2009C22.0783 17.2456 21.1697 18.1542 21.1697 19.2768C21.1697 20.3994 22.0783 21.3081 23.2009 21.3081H41.7991C42.9203 21.3081 43.8303 20.3994 43.8303 19.2768C43.8303 18.1542 42.9203 17.2456 41.7991 17.2456ZM43.8303 29.6768C43.8303 28.5542 42.9203 27.6456 41.7991 27.6456H23.2009C22.0783 27.6456 21.1697 28.5542 21.1697 29.6768C21.1697 30.7994 22.0783 31.7081 23.2009 31.7081H41.7991C42.9203 31.7081 43.8303 30.7981 43.8303 29.6768ZM23.2009 38.0442C22.0783 38.0442 21.1697 38.9542 21.1697 40.0755C21.1697 41.1967 22.0783 42.1067 23.2009 42.1067H30.1464C31.2691 42.1067 32.1777 41.1967 32.1777 40.0755C32.1777 38.9542 31.2691 38.0442 30.1464 38.0442H23.2009Z" fill="#C8F31D"/>
</svg>
