<svg width="50" height="50" viewBox="0 0 50 50" fill="none" xmlns="http://www.w3.org/2000/svg">
<rect x="0.5" y="0.5" width="49" height="49" rx="9.5" stroke="#C8F31D"/>
<path d="M33.125 18C34.1406 18 35 18.8594 35 19.875C35 20.5 34.6875 21.0469 34.2188 21.3984L25.7422 27.7656C25.2734 28.1172 24.6875 28.1172 24.2188 27.7656L15.7422 21.3984C15.2734 21.0469 15 20.5 15 19.875C15 18.8594 15.8203 18 16.875 18H33.125ZM23.4766 28.7812C24.375 29.4453 25.5859 29.4453 26.4844 28.7812L35 22.375V30.5C35 31.9062 33.8672 33 32.5 33H17.5C16.0938 33 15 31.9062 15 30.5V22.375L23.4766 28.7812Z" fill="#C8F31D"/>
</svg>
