<svg width="96" height="87" viewBox="0 0 96 87" fill="none" xmlns="http://www.w3.org/2000/svg">
<g clip-path="url(#clip0_3527_189)">
<path fill-rule="evenodd" clip-rule="evenodd" d="M-5.89726 67.2349C-4.67744 67.7079 -3.62372 68.1154 -1.99323 67.5037C-0.363611 66.8924 0.168724 65.8899 0.783203 64.7288C1.47421 63.4262 2.25597 61.9507 4.53361 61.0962C6.81124 60.2418 8.36284 60.8419 9.73172 61.3718C10.9524 61.8445 12.0061 62.252 13.6357 61.6406C15.2654 61.0293 15.7968 60.0272 16.4113 58.8661C17.1015 57.5637 17.8841 56.0879 20.1609 55.2338C22.4385 54.3794 23.9896 54.9807 25.3581 55.5097C26.5788 55.9824 27.6316 56.3902 29.2613 55.7789C30.8909 55.1675 31.4224 54.1654 32.0377 53.004C32.7279 51.7016 33.5105 50.2258 35.7872 49.3717C38.0649 48.5173 39.6156 49.1178 40.9845 49.6477C42.2052 50.1203 43.2589 50.5278 44.8876 49.9168C46.5164 49.3058 47.0479 48.3036 47.6624 47.1425C48.3528 45.8411 49.1342 44.3647 51.411 43.5106C53.6878 42.6565 55.2397 43.2575 56.6083 43.7866C57.8289 44.2592 58.8827 44.6667 60.5123 44.0554C62.1419 43.444 62.6734 42.4419 63.2888 41.2804C63.9789 39.9781 64.7615 38.5023 67.0383 37.6482C69.315 36.7941 70.8658 37.3946 72.2347 37.9245C73.4554 38.3971 74.509 38.8046 76.1386 38.1933C77.7683 37.5819 78.2998 36.5798 78.9151 35.4183C79.6053 34.116 80.387 32.6405 82.6638 31.7864C84.9414 30.932 86.4922 31.5325 87.861 32.0624C89.0817 32.535 90.1355 32.9425 91.7651 32.3312C93.3956 31.7195 93.927 30.7174 94.5415 29.5563C95.2316 28.2539 96.0143 26.7781 98.2919 25.9237C100.569 25.0696 102.12 25.6697 103.489 26.1996C104.209 26.4789 104.874 26.7287 105.63 26.7666C105.808 27.3825 105.977 27.9983 106.136 28.6146C104.831 28.6879 103.788 28.2972 102.839 27.9304C101.618 27.4586 100.565 27.0511 98.9359 27.6621C97.3063 28.2735 96.7739 29.276 96.1591 30.4362C95.4689 31.7385 94.6864 33.2143 92.4087 34.0687C90.132 34.9228 88.5803 34.3227 87.2114 33.7928C85.9911 33.321 84.9374 32.9135 83.3078 33.5249C81.679 34.1359 81.1475 35.138 80.5319 36.2986C79.8417 37.6009 79.0599 39.0764 76.7823 39.9308C74.5056 40.7849 72.9539 40.1848 71.5851 39.6549C70.3647 39.1831 69.311 38.7756 67.6823 39.3866C66.0526 39.998 65.5211 41.0001 64.9055 42.1607C64.2153 43.463 63.4327 44.9388 61.1559 45.7929C58.8783 46.6473 57.3276 46.0469 55.959 45.5178C54.7383 45.0452 53.6846 44.6377 52.055 45.249C50.4262 45.86 49.8947 46.8622 49.2799 48.0224C48.5898 49.3248 47.808 50.8002 45.5313 51.6543C43.2545 52.5084 41.7038 51.908 40.3349 51.3781C39.1146 50.9063 38.0608 50.4988 36.4312 51.1101C34.8016 51.7215 34.2701 52.7237 33.6544 53.8842C32.9643 55.1865 32.1817 56.6623 29.9049 57.5164C27.6282 58.3705 26.0774 57.7701 24.7088 57.2411C23.4881 56.7684 22.4345 56.3609 20.8049 56.9722C19.1761 57.5832 18.6446 58.5854 18.0289 59.746C17.3388 61.0483 16.5562 62.5241 14.2794 63.3782C12.0026 64.2323 10.451 63.6322 9.08215 63.1023C7.86178 62.6305 6.80809 62.223 5.17759 62.8346C3.54798 63.446 3.01646 64.4482 2.40111 65.6096C1.71065 66.911 0.928064 68.3868 -1.34957 69.2412C-3.6272 70.0957 -5.17885 69.4956 -6.54773 68.9657C-7.30386 68.6732 -7.99704 68.406 -8.80233 68.3906C-9.06123 67.7908 -9.31211 67.186 -9.55348 66.5746C-8.07405 66.396 -6.93247 66.8345 -5.89726 67.2349ZM0.598297 74.4994C2.22792 73.8881 2.76025 72.8856 3.37473 71.7245C4.06574 70.4219 4.84751 68.9464 7.12514 68.092C9.40277 67.2375 10.9544 67.8377 12.3232 68.3676C13.5439 68.8402 14.5977 69.2477 16.2273 68.6364C17.8569 68.025 18.3884 67.0229 19.0029 65.8618C19.693 64.5594 20.4756 63.0836 22.7524 62.2295C25.03 61.3751 26.5811 61.9764 27.9497 62.5054C29.1704 62.9781 30.2232 63.3859 31.8528 62.7746C33.4824 62.1633 34.0139 61.1611 34.6293 59.9997C35.3194 58.6973 36.102 57.2216 38.3788 56.3674C40.6564 55.513 42.2072 56.1135 43.576 56.6434C44.7967 57.116 45.8504 57.5235 47.4791 56.9125C49.1079 56.3015 49.6394 55.2993 50.2539 54.1382C50.9443 52.8368 51.7258 51.3604 54.0025 50.5063C56.2793 49.6522 57.8312 50.2532 59.1998 50.7823C60.4205 51.2549 61.4742 51.6624 63.1038 51.0511C64.7334 50.4397 65.2649 49.4376 65.8803 48.2761C66.5704 46.9738 67.353 45.498 69.6298 44.6439C71.9066 43.7898 73.4573 44.3903 74.8262 44.9202C76.0469 45.3928 77.1006 45.8003 78.7302 45.189C80.3598 44.5776 80.8913 43.5755 81.5067 42.414C82.1968 41.1117 82.9786 39.6363 85.2553 38.7822C87.533 37.9277 89.0837 38.5282 90.4526 39.0581C91.6733 39.5307 92.727 39.9382 94.3566 39.3269C95.9871 38.7152 96.5186 37.7131 97.133 36.552C97.8232 35.2497 98.6058 33.7738 100.883 32.9194C103.16 32.0653 104.712 32.6654 106.081 33.1953C106.462 33.3429 106.827 33.4796 107.198 33.5861C107.31 34.2408 107.412 34.8947 107.503 35.5493C106.739 35.4255 106.064 35.1708 105.43 34.9261C104.21 34.4543 103.156 34.0468 101.527 34.6578C99.8978 35.2692 99.3654 36.2717 98.7506 37.4319C98.0605 38.7342 97.2779 40.21 95.0003 41.0644C92.7235 41.9185 91.1718 41.3184 89.803 40.7885C88.5826 40.3167 87.5289 39.9092 85.8993 40.5206C84.2706 41.1316 83.7391 42.1337 83.1234 43.2943C82.4333 44.5966 81.6515 46.0721 79.3738 46.9265C77.0971 47.7806 75.5455 47.1805 74.1766 46.6506C72.9562 46.1788 71.9025 45.7713 70.2738 46.3823C68.6442 46.9937 68.1127 47.9958 67.497 49.1564C66.8068 50.4587 66.0242 51.9345 63.7475 52.7886C61.4698 53.643 59.9191 53.0426 58.5502 52.5127C57.3299 52.0409 56.2761 51.6334 54.6465 52.2447C53.0178 52.8558 52.4863 53.8579 51.8715 55.0182C51.1813 56.3205 50.3996 57.7959 48.1228 58.6501C45.8461 59.5042 44.2953 58.9037 42.9265 58.3738C41.7061 57.902 40.6524 57.4945 39.0228 58.1059C37.3931 58.7172 36.8616 59.7194 36.246 60.8799C35.5558 62.1822 34.7732 63.658 32.4964 64.5121C30.2197 65.3662 28.6689 64.7658 27.3 64.2359C26.0797 63.7641 25.026 63.3566 23.3964 63.9679C21.7676 64.5789 21.2361 65.5811 20.6204 66.7417C19.9303 68.044 19.1477 69.5198 16.8709 70.3739C14.5942 71.228 13.0425 70.6279 11.6737 70.098C10.4533 69.6262 9.39962 69.2187 7.76912 69.8304C6.13951 70.4417 5.60799 71.4439 4.99232 72.6044C4.30218 73.9067 3.51959 75.3825 1.24196 76.237C-1.03567 77.0914 -2.58732 76.4913 -3.9562 75.9614C-4.36052 75.8045 -4.74768 75.6592 -5.1435 75.5521C-5.5385 74.8875 -5.92378 74.2143 -6.2959 73.5311C-5.1309 73.5294 -4.17993 73.8926 -3.30573 74.2306C-2.08591 74.7036 -1.03219 75.1111 0.598297 74.4994ZM3.18983 81.4951C4.81945 80.8838 5.35146 79.8804 5.96626 78.7202C6.65727 77.4176 7.43904 75.9421 9.71667 75.0877C11.9943 74.2332 13.5459 74.8334 14.9148 75.3633C16.1351 75.835 17.1892 76.2434 18.8188 75.6321C20.4484 75.0207 20.9796 74.0177 21.5944 72.8575C22.2845 71.5552 23.0672 70.0793 25.3439 69.2252C27.6216 68.3708 29.1723 68.9713 30.5412 69.5012C31.7616 69.9729 32.8147 70.3817 34.4443 69.7703C36.0739 69.159 36.6051 68.1559 37.2208 66.9954C37.9109 65.6931 38.6935 64.2173 40.9703 63.3632C43.2479 62.5087 44.7987 63.1092 46.1676 63.6391C47.3879 64.1109 48.4419 64.5192 50.0707 63.9082C51.6994 63.2972 52.2306 62.2942 52.8454 61.1339C53.5356 59.8316 54.3173 58.3562 56.5941 57.5021C58.8708 56.6479 60.4224 57.2481 61.7913 57.778C63.0117 58.2498 64.0657 58.6581 65.6953 58.0468C67.325 57.4355 67.8562 56.4324 68.4718 55.2718C69.162 53.9695 69.9446 52.4937 72.2213 51.6396C74.4981 50.7855 76.0489 51.386 77.4177 51.9159C78.6381 52.3876 79.6921 52.796 81.3217 52.1847C82.9513 51.5734 83.4825 50.5703 84.0982 49.4098C84.7883 48.1074 85.5701 46.632 87.8468 45.7779C90.1245 44.9234 91.6752 45.5239 93.0441 46.0538C94.2645 46.5256 95.3185 46.9339 96.9481 46.3226C98.5786 45.7109 99.1098 44.7079 99.7246 43.5477C100.415 42.2454 101.197 40.7696 103.475 39.9151C105.365 39.2061 106.752 39.5015 107.953 39.9248C107.999 40.5955 108.035 41.2659 108.059 41.9359C108.046 41.9307 108.033 41.9264 108.022 41.9218C106.801 41.45 105.747 41.0417 104.119 41.6527C102.489 42.264 101.957 43.2674 101.342 44.4276C100.652 45.7299 99.8694 47.2057 97.5918 48.0601C95.315 48.9142 93.7634 48.3141 92.3945 47.7842C91.1741 47.3124 90.1201 46.9041 88.4905 47.5154C86.8618 48.1264 86.3306 49.1294 85.7149 50.29C85.0248 51.5923 84.243 53.0678 81.9654 53.9222C79.6886 54.7763 78.137 54.1762 76.7681 53.6463C75.5478 53.1745 74.4937 52.7662 72.865 53.3772C71.2354 53.9885 70.7042 54.9915 70.0885 56.1521C69.3984 57.4544 68.6158 58.9302 66.339 59.7843C64.0614 60.6387 62.5106 60.0383 61.1418 59.5084C59.9214 59.0366 58.8673 58.6283 57.2377 59.2396C55.609 59.8506 55.0778 60.8536 54.463 62.0139C53.7729 63.3162 52.9911 64.7917 50.7143 65.6458C48.4376 66.4999 46.8869 65.8994 45.518 65.3695C44.2976 64.8977 43.2436 64.4894 41.614 65.1007C39.9844 65.712 39.4532 66.7151 38.8375 67.8756C38.1473 69.1779 37.3647 70.6537 35.088 71.5078C32.8112 72.3619 31.2604 71.7615 29.8916 71.2316C28.6712 70.7598 27.6172 70.3514 25.9876 70.9628C24.3589 71.5738 23.8276 72.5768 23.212 73.7374C22.5218 75.0397 21.7392 76.5155 19.4625 77.3696C17.1857 78.2237 15.6341 77.6236 14.2652 77.0937C13.0448 76.6219 11.9908 76.2135 10.3603 76.8252C8.73072 77.4365 8.19952 78.4396 7.58385 79.6001C6.89371 80.9024 6.11112 82.3782 3.83349 83.2327C2.52178 83.7247 1.45566 83.7283 0.522196 83.5463C-0.192091 82.6919 -0.883599 81.8161 -1.5544 80.9185C-1.26594 81.0169 -0.984908 81.1222 -0.714196 81.2263C0.505297 81.6984 1.55935 82.1068 3.18983 81.4951ZM8.55779 85.7159C9.2488 84.4133 10.0306 82.9378 12.3082 82.0834C14.5858 81.229 16.1374 81.8291 17.5063 82.359C18.7267 82.8308 19.7807 83.2391 21.4103 82.6278C23.0399 82.0165 23.5711 81.0134 24.1859 79.8532C24.8761 78.5509 25.6587 77.0751 27.9355 76.221C30.2131 75.3665 31.7638 75.967 33.1327 76.4969C34.3531 76.9687 35.4062 77.3774 37.0358 76.766C38.6655 76.1547 39.1967 75.1516 39.8123 73.9911C40.5025 72.6888 41.2851 71.213 43.5618 70.3589C45.8395 69.5044 47.3902 70.1049 48.7591 70.6348C49.9795 71.1066 51.0335 71.515 52.6622 70.9039C54.291 70.2929 54.8221 69.2899 55.4369 68.1297C56.1271 66.8273 56.9088 65.3519 59.1856 64.4978C61.4624 63.6437 63.014 64.2438 64.3828 64.7737C65.6032 65.2455 66.6573 65.6538 68.2869 65.0425C69.9165 64.4312 70.4477 63.4281 71.0634 62.2676C71.7535 60.9652 72.5361 59.4895 74.8129 58.6354C77.0896 57.7812 78.6404 58.3817 80.0093 58.9116C81.2296 59.3834 82.2836 59.7918 83.9132 59.1804C85.5429 58.5691 86.074 57.566 86.6897 56.4055C87.3799 55.1032 88.1616 53.6277 90.4384 52.7736C92.716 51.9192 94.2668 52.5196 95.6356 53.0495C96.856 53.5213 97.91 53.9297 99.5397 53.3183C101.17 52.7067 101.701 51.7036 102.316 50.5434C103.006 49.2411 103.789 47.7653 106.067 46.9108C106.798 46.6364 107.448 46.5235 108.048 46.4991C108.023 47.1204 107.988 47.7416 107.945 48.3609C107.566 48.3941 107.161 48.4791 106.71 48.6484C105.081 49.2597 104.548 50.2631 103.934 51.4233C103.244 52.7256 102.461 54.2014 100.183 55.0558C97.9066 55.9099 96.3549 55.3098 94.986 54.78C93.7657 54.3082 92.7117 53.8998 91.082 54.5111C89.4533 55.1221 88.9221 56.1252 88.3065 57.2857C87.6163 58.588 86.8345 60.0635 84.5569 60.9179C82.2801 61.772 80.7285 61.1719 79.3597 60.642C78.1393 60.1703 77.0853 59.7619 75.4565 60.3729C73.8269 60.9842 73.2957 61.9873 72.68 63.1478C71.9899 64.4501 71.2073 65.9259 68.9305 66.78C66.6529 67.6345 65.1022 67.034 63.7333 66.5041C62.5129 66.0323 61.4589 65.624 59.8293 66.2353C58.2005 66.8463 57.6693 67.8494 57.0545 69.0096C56.3644 70.3119 55.5826 71.7874 53.3059 72.6415C51.0291 73.4956 49.4784 72.8951 48.1095 72.3652C46.8892 71.8934 45.8351 71.4851 44.2055 72.0964C42.5759 72.7077 42.0447 73.7108 41.429 74.8714C40.7389 76.1737 39.9563 77.6494 37.6795 78.5036C35.4027 79.3577 33.852 78.7572 32.4831 78.2273C31.2627 77.7555 30.2087 77.3472 28.5791 77.9585C26.9504 78.5695 26.4192 79.5726 25.8035 80.7331C25.1134 82.0354 24.3308 83.5112 22.054 84.3653C19.7772 85.2194 18.2256 84.6193 16.8567 84.0894C15.6364 83.6176 14.5824 83.2092 12.9519 83.8209C11.3222 84.4322 10.7911 85.4353 10.1754 86.5959C9.52968 87.8146 8.78579 89.178 6.82995 90.0495C6.3124 89.5897 5.80389 89.1194 5.30041 88.6413C5.45628 88.5988 5.61414 88.5536 5.78136 88.4909C7.41098 87.8795 7.94299 86.8761 8.55779 85.7159ZM14.8997 89.0791C17.1774 88.2247 18.729 88.8248 20.0978 89.3547C21.3182 89.8265 22.3722 90.2348 24.0019 89.6235C25.6315 89.0122 26.1626 88.0091 26.7774 86.8489C27.4676 85.5466 28.2502 84.0708 30.527 83.2167C32.8046 82.3622 34.3557 82.9636 35.7243 83.4926C36.9446 83.9644 37.9978 84.3731 39.6274 83.7617C41.257 83.1504 41.7882 82.1474 42.4039 80.9868C43.094 79.6845 43.8766 78.2087 46.1534 77.3546C48.431 76.5002 49.9818 77.1006 51.3506 77.6305C52.571 78.1023 53.625 78.5107 55.2537 77.8997C56.8825 77.2886 57.4137 76.2856 58.0285 75.1254C58.7189 73.8239 59.5004 72.3476 61.7771 71.4935C64.0539 70.6394 65.6058 71.2404 66.9744 71.7694C68.1947 72.2412 69.2488 72.6495 70.8784 72.0382C72.508 71.4269 73.0392 70.4238 73.6549 69.2633C74.345 67.961 75.1276 66.4852 77.4044 65.6311C79.6812 64.777 81.2319 65.3774 82.6008 65.9073C83.8212 66.3791 84.8752 66.7875 86.5048 66.1761C88.1344 65.5648 88.6656 64.5617 89.2813 63.4012C89.9714 62.0989 90.7532 60.6234 93.0299 59.7693C95.3075 58.9149 96.8583 59.5153 98.2272 60.0452C99.4475 60.517 100.502 60.9254 102.131 60.314C103.762 59.7024 104.293 58.6993 104.908 57.5391C105.42 56.5719 105.987 55.5096 107.177 54.6758C106.936 56.0674 106.647 57.4476 106.313 58.814C105.663 60.0107 104.825 61.2824 102.775 62.0516C100.498 62.9057 98.9464 62.3056 97.5775 61.7757C96.3572 61.3039 95.3032 60.8955 93.6736 61.5068C92.0448 62.1178 91.5137 63.1209 90.898 64.2814C90.2079 65.5837 89.4261 67.0592 87.1484 67.9137C84.8717 68.7678 83.3201 68.1676 81.9512 67.6377C80.7308 67.166 79.6768 66.7576 78.0481 67.3686C76.4184 67.9799 75.8872 68.983 75.2716 70.1435C74.5814 71.4459 73.7988 72.9216 71.5221 73.7757C69.2444 74.6302 67.6937 74.0297 66.3248 73.4998C65.1045 73.028 64.0504 72.6197 62.4208 73.231C60.792 73.842 60.2609 74.8451 59.6461 76.0053C58.9559 77.3076 58.1742 78.7831 55.8974 79.6372C53.6206 80.4913 52.0699 79.8908 50.7011 79.3609C49.4807 78.8892 48.4266 78.4808 46.797 79.0921C45.1674 79.7034 44.6362 80.7065 44.0205 81.8671C43.3304 83.1694 42.5478 84.6452 40.271 85.4993C37.9943 86.3534 36.4435 85.7529 35.0746 85.223C33.8543 84.7513 32.8003 84.3429 31.1707 84.9542C29.5419 85.5652 29.0107 86.5683 28.395 87.7288C27.7049 89.0311 26.9223 90.5069 24.6455 91.361C22.3688 92.2151 20.8171 91.615 19.4483 91.0851C18.2279 90.6133 17.1739 90.205 15.5434 90.8166C13.9138 91.428 13.3826 92.431 12.7669 93.5916C12.6273 93.8546 12.4806 94.1253 12.3218 94.3956C11.8173 94.0407 11.3172 93.6791 10.8231 93.3093C10.9328 93.1154 11.0409 92.9171 11.1493 92.7116C11.8403 91.409 12.6221 89.9335 14.8997 89.0791ZM22.6894 96.3504C23.9097 96.8222 24.9635 97.2297 26.5931 96.6183C28.2227 96.007 28.7542 95.0048 29.369 93.8446C30.0591 92.5423 30.8418 91.0665 33.1185 90.2124C35.3962 89.3579 36.9469 89.9584 38.3158 90.4883C39.5362 90.9601 40.589 91.3679 42.2186 90.7566C43.8482 90.1452 44.3797 89.1431 44.9954 87.9825C45.6855 86.6802 46.4681 85.2044 48.7449 84.3503C51.0225 83.4959 52.5733 84.0963 53.9422 84.6262C55.1625 85.098 56.2162 85.5055 57.8449 84.8945C59.4737 84.2835 60.0052 83.2813 60.62 82.1211C61.3101 80.8188 62.0919 79.3433 64.3687 78.4892C66.6454 77.6351 68.197 78.2352 69.5659 78.7651C70.7863 79.2369 71.84 79.6444 73.4696 79.0331C75.0992 78.4217 75.6307 77.4195 76.2464 76.259C76.9366 74.9567 77.7192 73.4809 79.9959 72.6268C82.2727 71.7727 83.8235 72.3731 85.1923 72.903C86.4127 73.3748 87.4664 73.7823 89.096 73.171C90.7256 72.5596 91.2571 71.5575 91.8728 70.3969C92.5629 69.0946 93.3447 67.6191 95.6214 66.765C97.8991 65.9106 99.4498 66.511 100.819 67.0409C101.692 67.3784 102.482 67.6762 103.455 67.5987C103.202 68.2177 102.941 68.835 102.667 69.445C101.723 69.3616 100.916 69.0603 100.169 68.7714C98.9487 68.2996 97.8947 67.8912 96.2651 68.5025C94.6364 69.1136 94.1052 70.1166 93.4895 71.2771C92.7994 72.5795 92.0176 74.0549 89.74 74.9094C87.4632 75.7635 85.9113 75.1625 84.5427 74.6335C83.3223 74.1617 82.2683 73.7533 80.6396 74.3643C79.01 74.9756 78.4788 75.9787 77.8631 77.1392C77.1726 78.4407 76.3904 79.9174 74.1136 80.7715C71.836 81.6259 70.2852 81.0254 68.9163 80.4955C67.696 80.0238 66.6419 79.6154 65.0123 80.2267C63.3836 80.8377 62.8524 81.8408 62.2376 83.001C61.5471 84.3024 60.7657 85.7788 58.4889 86.6329C56.2122 87.487 54.6615 86.8865 53.2926 86.3566C52.0722 85.8849 51.0182 85.4765 49.3886 86.0878C47.7589 86.6992 47.2278 87.7022 46.6121 88.8628C45.9219 90.1651 45.1393 91.6409 42.8626 92.495C40.5858 93.3491 39.035 92.7486 37.6662 92.2187C36.4458 91.747 35.3918 91.3386 33.7622 91.9499C32.1334 92.5609 31.6022 93.564 30.9866 94.7245C30.2964 96.0268 29.5138 97.5026 27.2371 98.3568C24.9603 99.2109 23.4087 98.6107 22.0398 98.0808C20.8194 97.609 19.7654 97.2007 18.1349 97.8123C18.0592 97.8408 17.9971 97.874 17.9261 97.9047C17.2923 97.5543 16.6672 97.1897 16.0459 96.8167C16.4492 96.5396 16.9242 96.2875 17.4913 96.0748C19.7689 95.2204 21.3205 95.8205 22.6894 96.3504ZM35.7101 97.2081C37.9877 96.3537 39.5384 96.9541 40.9073 97.484C42.1277 97.9558 43.1808 98.3645 44.8104 97.7532C46.4401 97.1418 46.9712 96.1388 47.5869 94.9782C48.2771 93.6759 49.0597 92.2001 51.3364 91.346C53.6141 90.4916 55.1648 91.092 56.5337 91.6219C57.7541 92.0937 58.8081 92.5021 60.4368 91.8911C62.0656 91.2801 62.5967 90.277 63.2115 89.1168C63.9017 87.8145 64.6834 86.339 66.9602 85.4849C69.237 84.6308 70.7886 85.2309 72.1574 85.7608C73.3778 86.2326 74.4319 86.641 76.0615 86.0296C77.6911 85.4183 78.2223 84.4152 78.838 83.2547C79.5281 81.9524 80.3107 80.4766 82.5875 79.6225C84.8642 78.7684 86.415 79.3688 87.7839 79.8987C89.0042 80.3705 90.0582 80.7789 91.6878 80.1676C93.3175 79.5562 93.8486 78.5532 94.4643 77.3926C95.1545 76.0903 95.9362 74.6148 98.213 73.7607C99.1772 73.399 100.005 73.3071 100.751 73.351C100.404 73.9982 100.045 74.6381 99.6755 75.2719C99.4172 75.3219 99.1484 75.3888 98.8566 75.4983C97.2279 76.1093 96.6967 77.1123 96.0811 78.2729C95.3909 79.5752 94.6091 81.0507 92.3315 81.9051C90.0547 82.7592 88.5028 82.1582 87.1342 81.6292C85.9139 81.1574 84.8599 80.749 83.2311 81.36C81.6015 81.9714 81.0703 82.9744 80.4546 84.135C79.7642 85.4364 78.9819 86.9131 76.7051 87.7672C74.4275 88.6216 72.8768 88.0211 71.5079 87.4912C70.2875 87.0195 69.2335 86.6111 67.6039 87.2224C65.9751 87.8335 65.4439 88.8365 64.8291 89.9967C64.1387 91.2982 63.3572 92.7745 61.0805 93.6286C58.8037 94.4827 57.253 93.8822 55.8841 93.3524C54.6637 92.8806 53.6097 92.4722 51.9801 93.0835C50.3505 93.6949 49.8193 94.6979 49.2036 95.8585C48.5135 97.1608 47.7309 98.6366 45.4541 99.4907C43.1773 100.345 41.6266 99.7443 40.2577 99.2145C39.0373 98.7427 37.9833 98.3343 36.3537 98.9456C34.725 99.5566 34.1938 100.56 33.5781 101.72C33.2458 102.347 32.8873 103.013 32.3565 103.631C31.6532 103.452 30.9535 103.261 30.2578 103.057C31.0955 102.466 31.5069 101.696 31.9605 100.84C32.6506 99.538 33.4333 98.0622 35.7101 97.2081ZM43.4989 104.48C44.7192 104.952 45.772 105.359 47.4016 104.748C49.0313 104.137 49.5628 103.135 50.1785 101.974C50.8686 100.672 51.6512 99.1958 53.928 98.3417C56.2056 97.4873 57.7563 98.0878 59.1252 98.6177C60.3456 99.0894 61.3993 99.4969 63.028 98.8859C64.6568 98.2749 65.1883 97.2727 65.8031 96.1125C66.4932 94.8102 67.275 93.3347 69.5517 92.4806C71.8285 91.6265 73.3801 92.2267 74.749 92.7566C75.9693 93.2283 77.0231 93.6358 78.6527 93.0245C80.2823 92.4131 80.8138 91.411 81.4292 90.2495C82.1196 88.9481 82.9022 87.4723 85.179 86.6182C87.4558 85.7641 89.0065 86.3645 90.3751 86.8936C90.5116 86.9462 90.6446 86.9972 90.7772 87.0473C90.3091 87.5324 89.8322 88.0098 89.3466 88.4796C88.2784 88.0785 87.2807 87.8088 85.8226 88.3557C84.193 88.9671 83.6615 89.9692 83.0458 91.1298C82.3557 92.4321 81.5734 93.9088 79.2967 94.7629C77.019 95.6173 75.468 95.016 74.0994 94.487C72.8787 94.0143 71.825 93.6068 70.1954 94.2182C68.5666 94.8292 68.0351 95.8313 67.4203 96.9916C66.7302 98.2939 65.9488 99.7702 63.672 100.624C61.3952 101.478 59.8442 100.877 58.4753 100.347C57.255 99.8754 56.2012 99.4679 54.5716 100.079C52.942 100.691 52.4105 101.693 51.7948 102.853C51.3318 103.727 50.8161 104.675 49.8465 105.464C45.6138 105.644 41.4095 105.376 37.2962 104.682C37.5993 104.509 37.9236 104.346 38.3016 104.204C40.5792 103.349 42.13 103.95 43.4989 104.48ZM96.3444 20.6664C94.7147 21.2777 94.1824 22.2802 93.5676 23.4405C92.8774 24.7428 92.0952 26.2194 89.8175 27.0739C87.5408 27.928 85.9888 27.327 84.6199 26.7971C83.3995 26.3253 82.3459 25.9178 80.7162 26.5291C79.0875 27.1402 78.556 28.1423 77.9403 29.3029C77.2502 30.6052 76.4687 32.0815 74.1911 32.936C71.9143 33.7901 70.3624 33.1891 68.9935 32.6592C67.7732 32.1874 66.7195 31.7799 65.0907 32.3909C63.4611 33.0022 62.9296 34.0044 62.3139 35.165C61.6238 36.4673 60.8415 37.944 58.5647 38.7981C56.2871 39.6525 54.736 39.0512 53.3675 38.5221C52.1468 38.0495 51.0931 37.642 49.4635 38.2533C47.8347 38.8643 47.3032 39.8665 46.6884 41.0267C45.9983 42.329 45.2168 43.8054 42.9401 44.6595C40.6633 45.5136 39.1123 44.9122 37.7434 44.3824C36.523 43.9106 35.4693 43.5031 33.8397 44.1144C32.2101 44.7258 31.6786 45.7279 31.0629 46.8885C30.3727 48.1908 29.5905 49.6675 27.3137 50.5216C25.0369 51.3757 23.4859 50.7744 22.1173 50.2453C20.8966 49.7727 19.843 49.3652 18.2133 49.9765C16.5846 50.5875 16.053 51.5897 15.4374 52.7502C14.7472 54.0526 13.965 55.5292 11.6882 56.3833C9.41143 57.2375 7.85948 56.6364 6.49061 56.1065C5.27025 55.6348 4.21656 55.2273 2.58606 55.8389C0.956451 56.4503 0.42493 57.4524 -0.190422 58.6139C-0.880885 59.9153 -1.66314 61.392 -3.94078 62.2464C-6.21841 63.1008 -7.77039 62.4998 -9.13926 61.9699C-9.87931 61.6834 -10.5604 61.4247 -11.3437 61.399C-11.5269 60.7868 -11.7015 60.1734 -11.8645 59.5595C-10.5221 59.4663 -9.4566 59.8654 -8.48846 60.2401C-7.26897 60.7122 -6.21525 61.1197 -4.58476 60.508C-2.95514 59.8967 -2.42281 58.8942 -1.80833 57.7331C-1.117 56.4313 -0.335232 54.9558 1.9424 54.1014C4.22003 53.247 5.77163 53.8471 7.14051 54.377C8.36087 54.8488 9.4146 55.2563 11.0442 54.6449C12.6738 54.0336 13.2053 53.0314 13.8201 51.8712C14.5103 50.5689 15.2929 49.0931 17.5697 48.239C19.8473 47.3845 21.398 47.985 22.7669 48.5149C23.9873 48.9867 25.0401 49.3945 26.6697 48.7832C28.2993 48.1718 28.8309 47.1697 29.4465 46.0091C30.1367 44.7068 30.9193 43.231 33.196 42.3769C35.4737 41.5225 37.0244 42.1229 38.3933 42.6528C39.6137 43.1246 40.6673 43.5321 42.2961 42.9211C43.9248 42.3101 44.4563 41.3079 45.0711 40.1477C45.7613 38.8454 46.543 37.3699 48.8198 36.5158C51.0966 35.6617 52.6482 36.2618 54.017 36.7917C55.2374 37.2635 56.2911 37.671 57.9208 37.0596C59.5504 36.4483 60.0819 35.4461 60.6972 34.2847C61.3877 32.9833 62.1703 31.5075 64.4471 30.6534C66.7238 29.7993 68.2746 30.3997 69.6431 30.9287C70.8638 31.4014 71.9175 31.8089 73.5471 31.1976C75.1767 30.5862 75.7083 29.5841 76.3239 28.4235C77.0141 27.1212 77.7958 25.6457 80.0726 24.7916C82.3502 23.9372 83.901 24.5376 85.2695 25.0666C86.4902 25.5393 87.5439 25.9468 89.1735 25.3355C90.804 24.7238 91.3355 23.7216 91.9503 22.5614C92.6404 21.2591 93.4231 19.7833 95.7007 18.9289C97.9775 18.0748 99.5291 18.6749 100.898 19.2048C101.653 19.4967 102.345 19.7633 103.148 19.7794C103.403 20.38 103.647 20.9874 103.882 21.5999C102.413 21.7716 101.278 21.3338 100.247 20.9347C99.0268 20.4629 97.9731 20.0554 96.3444 20.6664ZM93.7528 13.6707C92.1232 14.282 91.5908 15.2845 90.976 16.4448C90.2859 17.7471 89.5036 19.2237 87.226 20.0781C84.9492 20.9323 83.3972 20.3313 82.0284 19.8014C80.808 19.3296 79.7543 18.9221 78.1247 19.5334C76.496 20.1444 75.9645 21.1466 75.3488 22.3072C74.6587 23.6095 73.8772 25.0858 71.5996 25.9403C69.3228 26.7944 67.7709 26.1934 66.402 25.6635C65.1816 25.1917 64.1279 24.7842 62.4992 25.3952C60.8696 26.0065 60.3381 27.0087 59.7224 28.1693C59.0323 29.4716 58.25 30.9482 55.9732 31.8023C53.6956 32.6568 52.1445 32.0554 50.7759 31.5264C49.5553 31.0538 48.5015 30.6463 46.8719 31.2576C45.2432 31.8686 44.7117 32.8708 44.0969 34.031C43.4067 35.3333 42.6253 36.8097 40.3485 37.6638C38.0718 38.5179 36.5207 37.9166 35.1519 37.3867C33.9315 36.9149 32.8778 36.5074 31.2482 37.1187C29.6186 37.73 29.087 38.7322 28.4714 39.8928C27.7812 41.1951 26.9989 42.6718 24.7222 43.5259C22.4454 44.38 20.8943 43.7786 19.5258 43.2496C18.3051 42.777 17.2514 42.3695 15.6218 42.9808C13.9931 43.5918 13.4615 44.594 12.8458 45.7546C12.1557 47.0569 11.3734 48.5335 9.09666 49.3876C6.8199 50.2417 5.26796 49.6407 3.89909 49.1108C2.67872 48.6391 1.62502 48.2316 -0.00547012 48.8432C-1.63508 49.4546 -2.1666 50.4567 -2.78196 51.6181C-3.47242 52.9196 -4.25468 54.3963 -6.53231 55.2507C-8.80994 56.1051 -10.3619 55.5041 -11.7308 54.9742C-12.156 54.8092 -12.5619 54.656 -12.9793 54.547C-13.0953 53.8965 -13.1986 53.2453 -13.2945 52.5954C-12.47 52.7084 -11.7526 52.9845 -11.08 53.2444C-9.8605 53.7165 -8.80678 54.1239 -7.17629 53.5123C-5.54667 52.9009 -5.01434 51.8985 -4.39986 50.7374C-3.70853 49.4356 -2.92709 47.9592 -0.649457 47.1048C1.62818 46.2504 3.1801 46.8514 4.54898 47.3813C5.76934 47.8531 6.82306 48.2606 8.45268 47.6492C10.0823 47.0379 10.6138 46.0357 11.2286 44.8755C11.9187 43.5732 12.7011 42.0965 14.9778 41.2424C17.2554 40.388 18.8065 40.9893 20.1754 41.5192C21.3958 41.991 22.4486 42.3988 24.0782 41.7875C25.7078 41.1761 26.2393 40.174 26.855 39.0134C27.5451 37.7111 28.3274 36.2344 30.6042 35.3803C32.8818 34.5259 34.4329 35.1272 35.8018 35.6571C37.0221 36.1289 38.0758 36.5364 39.7046 35.9254C41.3333 35.3144 41.8648 34.3122 42.4796 33.152C43.1698 31.8497 43.9512 30.3733 46.2279 29.5192C48.5047 28.6651 50.0566 29.2661 51.4255 29.796C52.6459 30.2678 53.6996 30.6753 55.3292 30.0639C56.9588 29.4526 57.4904 28.4504 58.1057 27.289C58.7962 25.9876 59.5784 24.5109 61.8552 23.6568C64.132 22.8027 65.6831 23.404 67.0516 23.933C68.2723 24.4057 69.326 24.8132 70.9556 24.2019C72.5852 23.5905 73.1167 22.5883 73.7324 21.4278C74.4225 20.1255 75.204 18.6491 77.4807 17.795C79.7584 16.9406 81.3094 17.5419 82.678 18.0709C83.8987 18.5436 84.9524 18.9511 86.582 18.3398C88.2125 17.7281 88.744 16.7259 89.3588 15.5657C90.0489 14.2634 90.8312 12.7867 93.1088 11.9323C95.3856 11.0782 96.9375 11.6792 98.3064 12.2091C98.7429 12.3778 99.1579 12.5367 99.5862 12.6456C99.9673 13.2994 100.336 13.9649 100.695 14.637C99.5085 14.6478 98.5418 14.2825 97.6556 13.939C96.4353 13.4672 95.3816 13.0597 93.7528 13.6707ZM91.1613 6.67496C89.5317 7.28629 88.9993 8.28881 88.3845 9.44904C87.6944 10.7514 86.9121 12.228 84.6345 13.0824C82.3577 13.9366 80.8057 13.3356 79.4368 12.8057C78.2165 12.3339 77.1628 11.9264 75.5332 12.5377C73.9044 13.1487 73.373 14.1509 72.7573 15.3114C72.0671 16.6138 71.2857 18.0901 69.008 18.9446C66.7313 19.7987 65.1793 19.1976 63.8105 18.6677C62.5901 18.196 61.5364 17.7885 59.9077 18.3995C58.278 19.0108 57.7465 20.013 57.1309 21.1735C56.4407 22.4759 55.6584 23.9525 53.3817 24.8066C51.104 25.6611 49.553 25.0597 48.1844 24.5307C46.9637 24.0581 45.91 23.6505 44.2804 24.2619C42.6516 24.8729 42.1201 25.8751 41.5053 27.0353C40.8152 28.3376 40.0338 29.814 37.757 30.6681C35.4803 31.5222 33.9292 30.9208 32.5603 30.3909C31.34 29.9192 30.2862 29.5117 28.6566 30.123C27.027 30.7343 26.4955 31.7365 25.8798 32.8971C25.1897 34.1994 24.4074 35.6761 22.1306 36.5302C19.8539 37.3843 18.3028 36.7829 16.9342 36.2539C15.7136 35.7813 14.6599 35.3737 13.0303 35.9851C11.4015 36.5961 10.87 37.5983 10.2543 38.7588C9.56417 40.0611 8.7819 41.5378 6.50514 42.3919C4.22837 43.246 2.67642 42.645 1.30755 42.1151C0.0871853 41.6433 -0.966514 41.2358 -2.59701 41.8475C-4.22662 42.4588 -4.75813 43.461 -5.37348 44.6224C-6.06394 45.9239 -6.8462 47.4006 -9.12384 48.255C-11.1071 48.999 -12.5388 48.6394 -13.7798 48.1844C-13.8304 47.5094 -13.8686 46.8358 -13.8957 46.163C-13.8217 46.1912 -13.7455 46.2204 -13.6715 46.2486C-12.452 46.7207 -11.3983 47.1282 -9.76782 46.5166C-8.1382 45.9052 -7.60588 44.9027 -6.9914 43.7416C-6.30006 42.4399 -5.5183 40.9644 -3.24066 40.11C-0.963032 39.2555 0.58857 39.8557 1.95744 40.3856C3.17781 40.8574 4.23154 41.2649 5.86115 40.6535C7.49077 40.0422 8.02225 39.04 8.63705 37.8798C9.32719 36.5775 10.1098 35.1016 12.3866 34.2475C14.6642 33.3931 16.215 33.9936 17.5839 34.5235C18.8042 34.9952 19.8571 35.4031 21.4867 34.7918C23.1163 34.1804 23.6478 33.1782 24.2635 32.0177C24.9536 30.7154 25.7362 29.2396 28.013 28.3855C30.2906 27.531 31.8414 28.1315 33.2102 28.6614C34.4306 29.1332 35.4843 29.5407 37.113 28.9297C38.7418 28.3187 39.2733 27.3165 39.8881 26.1563C40.5782 24.8539 41.36 23.3785 43.6367 22.5244C45.9135 21.6703 47.4651 22.2704 48.834 22.8003C50.0544 23.2721 51.1081 23.6796 52.7377 23.0682C54.3673 22.4569 54.8988 21.4547 55.5142 20.2933C56.2046 18.9918 56.9872 17.516 59.264 16.6619C61.5408 15.8078 63.0915 16.4083 64.4601 16.9373C65.6808 17.41 66.7344 17.8175 68.3641 17.2061C69.9937 16.5948 70.5252 15.5926 71.1409 14.4321C71.831 13.1298 72.6128 11.6543 74.8895 10.8002C77.1671 9.94574 78.7179 10.5462 80.0864 11.0752C81.3071 11.5479 82.3609 11.9554 83.9905 11.344C85.621 10.7324 86.1524 9.73021 86.7672 8.56999C87.4574 7.26767 88.24 5.79186 90.5176 4.93743C91.9312 4.40713 93.0647 4.43823 94.0491 4.66403C94.7561 5.5281 95.4429 6.4127 96.1059 7.32125C95.7427 7.20587 95.3978 7.07269 95.0641 6.94324C93.8437 6.47146 92.79 6.06395 91.1613 6.67496ZM85.7933 2.4542C85.1031 3.75651 84.3206 5.2323 82.0429 6.08673C79.7662 6.94084 78.2142 6.33984 76.8456 5.81083C75.6253 5.33905 74.5713 4.93067 72.9417 5.54201C71.3129 6.15301 70.7817 7.15604 70.1661 8.3166C69.4759 9.61891 68.6941 11.0944 66.4165 11.9488C64.1398 12.8029 62.5878 12.2019 61.2193 11.6729C59.9989 11.2011 58.9449 10.7928 57.3161 11.4038C55.6865 12.0151 55.1553 13.0181 54.5396 14.1787C53.8492 15.4801 53.0669 16.9568 50.7901 17.8109C48.5125 18.6653 46.9618 18.0649 45.5929 17.535C44.3725 17.0632 43.3185 16.6549 41.6889 17.2662C40.0601 17.8772 39.5289 18.8802 38.9141 20.0405C38.2237 21.3419 37.4422 22.8183 35.1655 23.6724C32.8887 24.5265 31.338 23.926 29.9691 23.3961C28.7488 22.9243 27.6947 22.516 26.0651 23.1273C24.4355 23.7386 23.9043 24.7417 23.2886 25.9022C22.5985 27.2045 21.8159 28.6803 19.5391 29.5344C17.2624 30.3885 15.7116 29.7881 14.3427 29.2582C13.1223 28.7864 12.0684 28.378 10.4387 28.9894C8.80999 29.6004 8.27878 30.6034 7.66311 31.764C6.97297 33.0663 6.19036 34.5421 3.9136 35.3962C1.63684 36.2503 0.0852171 35.6502 -1.28366 35.1203C-2.50402 34.6485 -3.55804 34.2401 -5.18853 34.8518C-6.81814 35.4631 -7.34934 36.4662 -7.96502 37.6267C-8.65515 38.929 -9.43774 40.4048 -11.7154 41.2593C-12.5358 41.5671 -13.2605 41.6811 -13.9175 41.683C-13.8977 41.0615 -13.8709 40.4404 -13.8334 39.8212C-13.387 39.8105 -12.9069 39.7273 -12.359 39.5217C-10.7294 38.9104 -10.1974 37.907 -9.58259 36.7468C-8.89158 35.4442 -8.10982 33.9687 -5.83219 33.1143C-3.55456 32.2598 -2.00296 32.86 -0.634082 33.3899C0.586284 33.8617 1.64033 34.27 3.26994 33.6587C4.89955 33.0473 5.43072 32.0443 6.04553 30.8841C6.73567 29.5818 7.51832 28.106 9.79508 27.2518C12.0727 26.3974 13.6235 26.9979 14.9923 27.5278C16.2127 27.9996 17.2658 28.4082 18.8955 27.7969C20.5251 27.1856 21.0563 26.1825 21.6719 25.022C22.3621 23.7197 23.1447 22.2439 25.4214 21.3898C27.6991 20.5353 29.2498 21.1358 30.6187 21.6657C31.8391 22.1375 32.8931 22.5458 34.5218 21.9348C36.1506 21.3238 36.6818 20.3208 37.2966 19.1606C37.9867 17.8582 38.7684 16.3828 41.0452 15.5287C43.322 14.6746 44.8736 15.2747 46.2425 15.8046C47.4628 16.2764 48.5169 16.6847 50.1465 16.0734C51.7761 15.462 52.3073 14.459 52.923 13.2985C53.6131 11.9961 54.3957 10.5203 56.6725 9.66624C58.9492 8.81213 60.5 9.41259 61.8689 9.94248C63.0892 10.4143 64.1432 10.8226 65.7729 10.2113C67.4025 9.59997 67.9337 8.59693 68.5493 7.43637C69.2395 6.13406 70.0212 4.65858 72.298 3.80447C74.5756 2.95004 76.1264 3.5505 77.4952 4.0804C78.7156 4.55218 79.7697 4.96053 81.3993 4.3492C83.0298 3.73754 83.5609 2.73452 84.1757 1.57429C84.8454 0.310588 85.6135 -1.11083 87.737 -1.97434C88.2597 -1.50046 88.7785 -1.02113 89.2867 -0.527788C89.0578 -0.478867 88.8224 -0.41549 88.5698 -0.320735C86.9402 0.290601 86.4081 1.29397 85.7933 2.4542ZM79.4514 -0.908997C77.1746 -0.054891 75.6226 -0.655878 74.2541 -1.1849C73.0334 -1.65755 71.9797 -2.06506 70.3501 -1.45372C68.7214 -0.842713 68.1899 0.159443 67.5745 1.32087C66.8844 2.62319 66.1026 4.09867 63.825 4.95311C61.5482 5.80721 59.9963 5.2062 58.6277 4.67718C57.407 4.20453 56.3533 3.79703 54.7246 4.40804C53.095 5.01938 52.5635 6.02155 51.9481 7.18297C51.2577 8.48441 50.4754 9.96108 48.1986 10.8152C45.921 11.6696 44.3702 11.0692 43.0014 10.5393C41.7807 10.0666 40.7269 9.65913 39.0973 10.2705C37.4686 10.8815 36.9371 11.8836 36.3226 13.0447C35.6321 14.3462 34.8507 15.8225 32.5739 16.6766C30.2972 17.5307 28.7465 16.9303 27.3776 16.4004C26.1569 15.9277 25.1032 15.5202 23.4736 16.1316C21.844 16.7429 21.3124 17.7451 20.6971 18.9065C20.0069 20.2088 19.2243 21.6846 16.9476 22.5387C14.6708 23.3928 13.1201 22.7924 11.7512 22.2625C10.5305 21.7898 9.47682 21.3823 7.84721 21.9937C6.21846 22.6047 5.68692 23.6068 5.07157 24.7683C4.38143 26.0706 3.59883 27.5464 1.32207 28.4005C-0.954695 29.2546 -2.50632 28.6545 -3.87519 28.1246C-5.09588 27.6519 -6.14957 27.2444 -7.78007 27.8561C-9.40968 28.4674 -9.9412 29.4696 -10.5566 30.631C-11.1126 31.6793 -11.7428 32.8354 -13.1509 33.6941C-12.9695 32.5796 -12.7555 31.4729 -12.5151 30.3732C-12.3995 30.1711 -12.2876 29.9644 -12.1741 29.7511C-11.4831 28.4485 -10.7014 26.973 -8.42372 26.1185C-6.14609 25.2641 -4.59449 25.8643 -3.22562 26.3942C-2.00525 26.8659 -0.951535 27.2734 0.678079 26.6621C2.30769 26.0507 2.83919 25.0486 3.45399 23.8884C4.14413 22.586 4.92679 21.1102 7.20355 20.2561C9.48118 19.4017 11.0319 20.0022 12.4008 20.532C13.6212 21.0038 14.674 21.4116 16.3036 20.8003C17.9332 20.189 18.4647 19.1868 19.0804 18.0263C19.7705 16.7239 20.5532 15.2481 22.8299 14.394C25.1075 13.5396 26.6583 14.1401 28.0272 14.67C29.2475 15.1417 30.3012 15.5492 31.93 14.9382C33.5587 14.3272 34.0902 13.3251 34.705 12.1648C35.3952 10.8625 36.1769 9.38704 38.4537 8.53294C40.7304 7.67883 42.2821 8.27897 43.6509 8.80886C44.8713 9.28064 45.925 9.68811 47.5546 9.07678C49.1842 8.46544 49.7158 7.46328 50.3314 6.30273C51.0216 5.00042 51.8042 3.52462 54.0809 2.67052C56.3577 1.81641 57.9085 2.41687 59.2773 2.94676C60.4977 3.41853 61.5514 3.82603 63.181 3.21469C64.8106 2.60336 65.3421 1.6012 65.9578 0.440651C66.6479 -0.861664 67.4297 -2.33714 69.7065 -3.19125C71.9841 -4.04568 73.5348 -3.44522 74.9037 -2.91532C76.1241 -2.44355 77.1778 -2.03607 78.8074 -2.64741C80.4379 -3.25907 80.9694 -4.26121 81.5842 -5.42143C81.7641 -5.76052 81.951 -6.11022 82.1683 -6.45832C82.6687 -6.10089 83.167 -5.73865 83.6583 -5.36579C83.4989 -5.10233 83.3526 -4.82779 83.2017 -4.54153C82.5116 -3.23922 81.729 -1.76343 79.4514 -0.908997ZM71.6626 -8.18059C70.4422 -8.65237 69.3882 -9.06076 67.7586 -8.44942C66.1298 -7.83841 65.5987 -6.83538 64.983 -5.67482C64.2929 -4.37251 63.5111 -2.89702 61.2335 -2.04259C58.9567 -1.18848 57.4051 -1.78861 56.0362 -2.31851C54.8158 -2.79029 53.7618 -3.19866 52.1331 -2.58766C50.5035 -1.97632 49.9723 -0.973272 49.3566 0.187282C48.6665 1.4896 47.8838 2.96539 45.6071 3.8195C43.3295 4.67393 41.7787 4.07347 40.4098 3.54357C39.1895 3.07179 38.1354 2.66343 36.5058 3.27477C34.8771 3.88577 34.3459 4.88882 33.7311 6.04904C33.0409 7.35136 32.2592 8.82684 29.9824 9.68094C27.7057 10.535 26.1549 9.93457 24.7861 9.40468C23.5657 8.9329 22.5117 8.52454 20.882 9.13587C19.2524 9.7472 18.7212 10.7503 18.1056 11.9108C17.4154 13.2131 16.6328 14.6889 14.3561 15.543C12.0793 16.3971 10.5285 15.7967 9.15966 15.2668C7.93928 14.795 6.88529 14.3866 5.25568 14.998C3.62693 15.609 3.09572 16.612 2.48005 17.7726C1.78991 19.0749 1.0073 20.5507 -1.26946 21.4048C-3.54622 22.2589 -5.09784 21.6588 -6.46672 21.1289C-7.46258 20.7436 -8.35246 20.4115 -9.52929 20.6303C-9.27077 19.9811 -8.99891 19.3359 -8.71832 18.6955C-7.59328 18.7118 -6.66929 19.0691 -5.81715 19.3984C-4.59679 19.8702 -3.54273 20.2786 -1.91312 19.6673C-0.283504 19.0559 0.247654 18.0529 0.862457 16.8926C1.5526 15.5903 2.33525 14.1145 4.61201 13.2604C6.88964 12.406 8.44072 13.0073 9.80927 13.5363C11.0296 14.0081 12.0828 14.4168 13.7124 13.8055C15.342 13.1942 15.8732 12.1911 16.4889 11.0305C17.179 9.72822 17.9616 8.25242 20.2384 7.39832C22.516 6.54389 24.0668 7.14434 25.4356 7.67424C26.656 8.14602 27.71 8.55442 29.3388 7.94341C30.9675 7.3324 31.4987 6.32934 32.1135 5.16911C32.804 3.86767 33.5854 2.39132 35.8621 1.53721C38.1389 0.683107 39.6908 1.28412 41.0594 1.81314C42.2798 2.28492 43.3338 2.6933 44.9634 2.08197C46.593 1.47063 47.1242 0.467561 47.7399 -0.692994C48.43 -1.99531 49.2126 -3.4711 51.4894 -4.32521C53.7662 -5.17931 55.3169 -4.57886 56.6858 -4.04897C57.9062 -3.57719 58.9602 -3.16878 60.5898 -3.78012C62.2194 -4.39145 62.7506 -5.39452 63.3663 -6.55508C64.0564 -7.85739 64.8382 -9.33287 67.1149 -10.187C69.3926 -11.0414 70.9433 -10.4409 72.3122 -9.91105C73.5325 -9.43927 74.5866 -9.03088 76.2162 -9.64222C76.4218 -9.71933 76.6091 -9.80261 76.7816 -9.89129C77.3794 -9.55239 77.9725 -9.20474 78.5597 -8.84593C78.1021 -8.49054 77.5575 -8.16641 76.8599 -7.90469C74.5831 -7.05058 73.0314 -7.6507 71.6626 -8.18059ZM58.6419 -9.03831C56.3652 -8.18421 54.8135 -8.78434 53.4447 -9.31424C52.2243 -9.78602 51.1703 -10.1944 49.5415 -9.58338C47.9119 -8.97204 47.3807 -7.969 46.7651 -6.80845C46.0749 -5.50613 45.2923 -4.03034 43.0156 -3.17623C40.7379 -2.3218 39.1872 -2.92226 37.8183 -3.45215C36.5979 -3.92393 35.5439 -4.33229 33.9143 -3.72095C32.2855 -3.10995 31.7543 -2.10691 31.1395 -0.946682C30.4494 0.355633 29.6676 1.83111 27.3909 2.68522C25.1141 3.53932 23.5634 2.93885 22.1945 2.40895C20.9742 1.93717 19.9201 1.52882 18.2905 2.14015C16.6609 2.75148 16.1297 3.75453 15.514 4.91508C14.8239 6.2174 14.0413 7.69319 11.7645 8.5473C9.48776 9.4014 7.93699 8.80095 6.56812 8.27105C5.34775 7.79927 4.29376 7.3909 2.66415 8.00223C1.0354 8.61324 0.504186 9.61629 -0.111489 10.7768C-0.801628 12.0792 -1.58423 13.555 -3.86099 14.4091C-5.01679 14.8426 -5.98369 14.8998 -6.8372 14.7837C-6.5162 14.172 -6.18768 13.5645 -5.84744 12.9646C-5.43766 12.9407 -4.99937 12.8571 -4.50465 12.6715C-2.87504 12.0602 -2.34387 11.0572 -1.72907 9.89694C-1.03893 8.59462 -0.256275 7.11881 2.02049 6.2647C4.29812 5.41027 5.84886 6.01073 7.21774 6.54062C8.43811 7.01241 9.49125 7.42111 11.1209 6.80977C12.7505 6.19844 13.2817 5.19539 13.8973 4.03484C14.5875 2.73252 15.3701 1.25672 17.6469 0.402619C19.9245 -0.451813 21.4752 0.148647 22.8441 0.678543C24.0645 1.15032 25.1185 1.5587 26.7472 0.947691C28.376 0.336681 28.9072 -0.666363 29.522 -1.82659C30.2121 -3.1289 30.9939 -4.60438 33.2706 -5.45849C35.5474 -6.31259 37.099 -5.71246 38.4679 -5.18256C39.6882 -4.71078 40.7423 -4.30242 42.3719 -4.91375C44.0015 -5.52509 44.5327 -6.52814 45.1484 -7.68869C45.8385 -8.99101 46.6211 -10.4668 48.8979 -11.3209C51.1746 -12.175 52.7254 -11.5746 54.0943 -11.0447C55.3147 -10.5729 56.3686 -10.1645 57.9983 -10.7758C59.6279 -11.3872 60.1591 -12.3902 60.7747 -13.5508C61.1688 -14.2947 61.6027 -15.0915 62.3183 -15.8003C63.0653 -15.6022 63.8081 -15.3887 64.5457 -15.1621C63.3919 -14.5466 62.9208 -13.6679 62.3915 -12.6705C61.7013 -11.3682 60.9195 -9.89274 58.6419 -9.03831ZM50.8531 -16.3099C49.6328 -16.7817 48.5787 -17.1901 46.95 -16.5791C45.3204 -15.9678 44.7892 -14.9647 44.1735 -13.8041C43.4834 -12.5018 42.7008 -11.0261 40.424 -10.1719C38.1464 -9.31752 36.5956 -9.91796 35.2268 -10.4479C34.0064 -10.9196 32.9524 -11.328 31.3227 -10.7167C29.694 -10.1057 29.1628 -9.10261 28.548 -7.94238C27.8579 -6.64007 27.0761 -5.16461 24.7994 -4.3105C22.5226 -3.4564 20.9719 -4.05685 19.603 -4.58675C18.3826 -5.05853 17.3286 -5.46691 15.699 -4.85558C14.0694 -4.24424 13.5382 -3.24117 12.9225 -2.08062C12.2324 -0.778302 11.4497 0.697472 9.17299 1.55158C6.89623 2.40568 5.34547 1.80525 3.97659 1.27535C3.66892 1.15713 3.37254 1.04266 3.07506 0.946578C3.54205 0.455862 4.02059 -0.025217 4.50607 -0.500888C4.54542 -0.485699 4.58685 -0.470284 4.62621 -0.455095C5.84658 0.0166859 6.89971 0.425381 8.52933 -0.185954C10.1589 -0.797291 10.6901 -1.80033 11.3058 -2.96088C11.996 -4.2632 12.7786 -5.739 15.0553 -6.5931C17.3329 -7.44753 18.8837 -6.84707 20.2526 -6.31718C21.4729 -5.8454 22.5269 -5.43703 24.1557 -6.04804C25.7844 -6.65905 26.3156 -7.66208 26.9304 -8.82231C27.6206 -10.1246 28.4023 -11.6001 30.6791 -12.4542C32.9558 -13.3083 34.5075 -12.7082 35.8763 -12.1783C37.0967 -11.7065 38.1507 -11.2981 39.7804 -11.9095C41.41 -12.5208 41.9412 -13.5239 42.5568 -14.6844C43.1256 -15.7575 43.7707 -16.943 45.2491 -17.8072C49.4175 -17.9171 53.5522 -17.5881 57.5948 -16.854C57.1694 -16.5457 56.6688 -16.266 56.0504 -16.034C53.7736 -15.1799 52.222 -15.78 50.8531 -16.3099Z" fill="#C8F31D"/>
</g>
<defs>
<clipPath id="clip0_3527_189">
<rect width="96" height="86.6341" fill="white"/>
</clipPath>
</defs>
</svg>
