<svg width="1822" height="844" viewBox="0 0 1822 844" fill="none" xmlns="http://www.w3.org/2000/svg">
<g opacity="0.1">
<mask id="mask0_3618_209" style="mask-type:luminance" maskUnits="userSpaceOnUse" x="0" y="0" width="1822" height="844">
<path d="M1606.23 301.77C1613.28 296.298 1619.76 290.198 1625.7 283.51C1636.9 282.181 1647.51 280.269 1657.58 277.822C1642.94 288.351 1625.59 296.12 1606.23 301.77ZM1569.88 309.216C1576.32 302.209 1582.11 294.441 1587.39 286.077C1599.83 285.912 1611.67 285.144 1623.01 283.878C1616.67 290.853 1609.71 297.166 1602.13 302.793C1591.94 305.524 1581.17 307.649 1569.88 309.216ZM1547.91 329.198C1555.21 323.744 1561.94 317.614 1568.24 310.965C1579.03 309.565 1589.33 307.653 1599.13 305.202C1584.25 315.637 1567.03 323.497 1547.91 329.198ZM1532.31 312.299C1537.97 303.877 1543.13 294.803 1547.66 284.956C1560.66 285.808 1573.28 286.272 1585.35 286.17C1579.89 294.652 1573.89 302.503 1567.23 309.578C1556.1 311.028 1544.45 311.934 1532.31 312.299ZM1512.57 336.694C1519.32 329.726 1525.53 322.068 1531.23 313.768C1543.16 313.472 1554.62 312.662 1565.59 311.329C1558.87 318.257 1551.66 324.604 1543.83 330.208C1533.9 332.926 1523.46 335.071 1512.57 336.694ZM1489.67 356.611C1497.2 351.15 1504.24 345.054 1510.86 338.407C1521.26 336.959 1531.22 335.012 1540.75 332.569C1525.62 342.864 1508.58 350.887 1489.67 356.611ZM1493.81 311.863C1498.76 302.254 1503.22 291.966 1507.13 280.933C1520.48 282.623 1533.48 283.946 1546.04 284.81C1541.37 294.739 1536.12 303.92 1530.3 312.391C1518.57 312.691 1506.41 312.519 1493.81 311.863ZM1476.28 340.012C1482.32 331.716 1487.96 322.845 1493.03 313.179C1505.51 313.869 1517.58 314.1 1529.22 313.862C1523.33 322.266 1516.93 330.029 1509.95 337.053C1499.18 338.559 1487.94 339.538 1476.28 340.012ZM1455.35 364.158C1462.4 357.227 1469.01 349.684 1475.13 341.45C1486.59 341.05 1497.63 340.155 1508.24 338.766C1501.18 345.679 1493.68 352.015 1485.62 357.607C1475.94 360.304 1465.86 362.493 1455.35 364.158ZM1431.94 383.716C1439.55 378.323 1446.76 372.369 1453.57 365.839C1463.58 364.351 1473.19 362.357 1482.45 359.93C1467.23 369.993 1450.41 377.964 1431.94 383.716ZM1454.86 308.576C1459.32 297.975 1463.38 286.747 1466.98 274.837C1480.25 277.152 1493.19 279.126 1505.81 280.746C1501.81 291.855 1497.21 302.155 1492.16 311.816C1480.1 311.154 1467.65 310.062 1454.86 308.576ZM1439.35 339.948C1444.8 330.56 1449.83 320.535 1454.4 309.805C1467.07 311.304 1479.42 312.435 1491.38 313.131C1486.2 322.85 1480.47 331.784 1474.29 340.105C1463.03 340.507 1451.38 340.455 1439.35 339.948ZM1420.31 367.715C1426.77 359.515 1432.89 350.761 1438.5 341.232C1450.42 341.779 1461.97 341.883 1473.14 341.543C1466.83 349.887 1460.03 357.53 1452.75 364.514C1442.32 366.069 1431.51 367.14 1420.31 367.715ZM1398.22 391.605C1405.57 384.731 1412.55 377.275 1419.09 369.126C1430.09 368.627 1440.7 367.636 1450.96 366.199C1443.58 373.106 1435.77 379.398 1427.47 384.994C1418.09 387.696 1408.33 389.891 1398.22 391.605ZM1374.79 410.5C1382.31 405.273 1389.5 399.53 1396.37 393.259C1405.98 391.718 1415.25 389.693 1424.23 387.281C1409.12 397.024 1392.6 404.729 1374.79 410.5ZM1416.8 303.145C1421.01 291.823 1424.87 279.906 1428.36 267.365C1441.11 270.076 1453.56 272.464 1465.78 274.611C1462.15 286.568 1458.06 297.842 1453.54 308.456C1441.61 307.044 1429.32 305.228 1416.8 303.145ZM1402.27 337.148C1407.35 326.824 1412.07 315.882 1416.41 304.305C1428.93 306.408 1441.17 308.182 1453.11 309.618C1448.45 320.432 1443.27 330.457 1437.72 339.9C1426.23 339.379 1414.4 338.452 1402.27 337.148ZM1384.91 368.026C1390.89 358.781 1396.5 348.889 1401.74 338.348C1413.75 339.666 1425.48 340.628 1436.87 341.186C1431.15 350.771 1424.93 359.583 1418.34 367.809C1407.53 368.309 1396.39 368.391 1384.91 368.026ZM1364.4 395.408C1371.28 387.318 1377.84 378.665 1383.99 369.285C1395.36 369.692 1406.4 369.658 1417.12 369.221C1410.39 377.479 1403.21 385.034 1395.64 391.961C1385.56 393.572 1375.15 394.724 1364.4 395.408ZM1341.19 419.035C1348.84 412.228 1356.16 404.842 1363.12 396.792C1373.66 396.181 1383.87 395.112 1393.77 393.616C1386.06 400.504 1377.95 406.771 1369.43 412.363C1360.36 415.101 1350.9 417.265 1341.19 419.035ZM1317.83 437.251C1325.24 432.211 1332.37 426.661 1339.25 420.667C1348.48 419.077 1357.4 417.02 1366.09 414.622C1351.14 424.025 1335 431.499 1317.83 437.251ZM1380.48 296.283C1384.62 284.463 1388.48 272.085 1392.03 259.141C1404 262.055 1415.69 264.646 1427.26 267.115C1423.74 279.687 1419.85 291.629 1415.61 302.972C1404.16 301.045 1392.38 298.736 1380.48 296.283ZM1366.29 332.312C1371.21 321.262 1375.82 309.611 1380.13 297.387C1392.03 299.854 1403.78 302.136 1415.24 304.083C1410.85 315.702 1406.1 326.69 1400.97 337.028C1389.68 335.791 1378.09 334.186 1366.29 332.312ZM1349.64 365.723C1355.35 355.584 1360.74 344.804 1365.83 333.443C1377.6 335.333 1389.17 336.967 1400.44 338.228C1395.12 348.833 1389.38 358.696 1383.3 367.98C1372.36 367.597 1361.14 366.849 1349.64 365.723ZM1330.49 396.1C1336.99 387.005 1343.16 377.246 1349.04 366.898C1360.42 368.041 1371.54 368.82 1382.38 369.24C1376.12 378.677 1369.45 387.384 1362.45 395.501C1352.08 396.107 1341.43 396.316 1330.49 396.1ZM1308.56 423.088C1315.84 415.115 1322.84 406.557 1329.51 397.335C1340.34 397.59 1350.89 397.431 1361.17 396.888C1354.02 405.046 1346.48 412.53 1338.61 419.391C1328.88 421.059 1318.86 422.29 1308.56 423.088ZM1284.61 446.17C1292.42 439.517 1299.96 432.279 1307.21 424.453C1317.3 423.729 1327.11 422.578 1336.67 421.024C1328.8 427.729 1320.61 433.847 1312.07 439.331C1303.21 442.107 1294.01 444.324 1284.61 446.17ZM1261.08 463.968C1268.35 459.127 1275.37 453.761 1282.24 448.063C1291.07 446.432 1299.65 444.361 1308.03 441.952C1293.29 450.986 1277.6 458.276 1261.08 463.968ZM1346.56 288.655C1350.76 276.42 1354.75 263.727 1358.47 250.426C1369.41 253.357 1380.34 256.276 1391 258.887C1387.43 271.86 1383.55 284.235 1379.39 296.073C1368.65 293.843 1357.64 291.289 1346.56 288.655ZM1332.19 326.141C1337.09 314.49 1341.83 302.474 1346.23 289.709C1357.29 292.351 1368.31 294.934 1379.04 297.178C1374.71 309.427 1370.06 321.078 1365.12 332.141C1354.35 330.411 1343.34 328.369 1332.19 326.141ZM1315.67 361.493C1321.27 350.605 1326.68 339.259 1331.77 327.216C1342.91 329.455 1353.91 331.526 1364.66 333.273C1359.54 344.658 1354.11 355.458 1348.35 365.604C1337.68 364.538 1326.79 363.163 1315.67 361.493ZM1296.97 394.303C1303.28 384.308 1309.36 373.788 1315.15 362.6C1326.23 364.288 1337.11 365.687 1347.75 366.779C1341.79 377.193 1335.49 386.918 1328.89 396.056C1318.49 395.815 1307.86 395.247 1296.97 394.303ZM1276.09 424.171C1283.08 415.196 1289.83 405.645 1296.31 395.454C1307.08 396.413 1317.61 397.016 1327.91 397.291C1321.14 406.573 1314.03 415.179 1306.62 423.182C1296.69 423.894 1286.52 424.233 1276.09 424.171ZM1252.8 450.758C1260.45 442.878 1267.89 434.478 1275.04 425.386C1285.36 425.489 1295.42 425.199 1305.27 424.548C1297.71 432.602 1289.84 440.017 1281.67 446.807C1272.29 448.556 1262.66 449.855 1252.8 450.758ZM1228.47 473.048C1236.32 466.604 1243.96 459.631 1251.37 452.103C1261.03 451.278 1270.44 450.027 1279.65 448.421C1271.77 454.838 1263.64 460.737 1255.23 466.043C1246.54 468.832 1237.6 471.129 1228.47 473.048ZM1204.56 490.644C1211.82 485.886 1218.89 480.623 1225.83 475.058C1234.06 473.429 1242.19 471.596 1250.07 469.272C1235.59 477.913 1220.41 485.029 1204.56 490.644ZM1315.3 280.782C1319.7 268.297 1323.93 255.344 1327.98 241.921C1337.9 244.771 1347.75 247.556 1357.46 250.164C1353.74 263.468 1349.75 276.187 1345.54 288.418C1335.6 286.043 1325.49 283.469 1315.3 280.782ZM1300.52 319.276C1305.51 307.298 1310.31 294.791 1314.92 281.78C1325.12 284.479 1335.25 287.083 1345.21 289.473C1340.79 302.254 1336.03 314.271 1331.11 325.932C1321.07 323.914 1310.86 321.679 1300.52 319.276ZM1283.7 356.022C1289.33 344.602 1294.82 332.79 1300.06 320.287C1310.4 322.706 1320.64 324.971 1330.69 327.007C1325.58 339.07 1320.14 350.423 1314.52 361.321C1304.41 359.788 1294.14 358.031 1283.7 356.022ZM1264.94 390.691C1271.21 379.984 1277.35 368.904 1283.21 357.071C1293.64 359.094 1303.9 360.876 1313.99 362.427C1308.16 373.639 1302.05 384.183 1295.7 394.185C1285.63 393.292 1275.4 392.155 1264.94 390.691ZM1244.27 422.888C1251.15 413.053 1257.88 402.765 1264.35 391.771C1274.76 393.249 1284.96 394.417 1294.99 395.331C1288.44 405.58 1281.58 415.116 1274.5 424.126C1264.62 424.032 1254.56 423.646 1244.27 422.888ZM1221.72 452.237C1229.18 443.394 1236.48 434.037 1243.54 424.017C1253.71 424.795 1263.67 425.211 1273.45 425.342C1266.19 434.495 1258.63 442.943 1250.85 450.853C1241.34 451.667 1231.64 452.156 1221.72 452.237ZM1197.61 477.962C1205.46 470.326 1213.14 462.196 1220.61 453.434C1230.42 453.394 1240.01 452.953 1249.43 452.201C1241.66 460 1233.63 467.166 1225.38 473.785C1216.33 475.595 1207.05 476.95 1197.61 477.962ZM1172.53 499.894C1180.47 493.606 1188.25 486.821 1195.86 479.521C1204.98 478.608 1213.98 477.442 1222.73 475.798C1214.89 481.944 1206.84 487.587 1198.59 492.723C1190.08 495.526 1181.39 497.905 1172.53 499.894ZM1148.27 517.275C1155.57 512.571 1162.72 507.357 1169.79 501.889C1177.65 500.218 1185.45 498.379 1193.03 496.072C1178.65 504.555 1163.73 511.628 1148.27 517.275ZM1287.17 273.184C1291.95 260.6 1296.58 247.536 1301.11 234.115C1309.87 236.777 1318.42 239.173 1327.03 241.645C1322.97 255.075 1318.73 268.032 1314.31 280.52C1305.32 278.153 1296.34 275.793 1287.17 273.184ZM1271.43 312.205C1276.69 299.999 1281.8 287.258 1286.79 274.142C1295.96 276.756 1304.95 279.142 1313.93 281.517C1309.3 294.534 1304.48 307.04 1299.47 319.03C1290.22 316.874 1280.92 314.665 1271.43 312.205ZM1254.08 349.905C1259.87 338.179 1265.49 325.882 1270.99 313.175C1280.46 315.642 1289.76 317.875 1299.01 320.041C1293.76 332.544 1288.27 344.396 1282.63 355.811C1273.22 353.997 1263.75 352.095 1254.08 349.905ZM1235 385.928C1241.34 374.779 1247.52 363.082 1253.56 350.892C1263.24 353.097 1272.73 355.03 1282.15 356.862C1276.26 368.712 1270.09 379.803 1263.79 390.516C1254.32 389.177 1244.77 387.72 1235 385.928ZM1214.1 419.898C1221.01 409.417 1227.8 398.513 1234.41 386.943C1244.17 388.751 1253.73 390.242 1263.2 391.598C1256.69 402.613 1249.93 412.927 1243 422.767C1233.51 422.051 1223.91 421.16 1214.1 419.898ZM1191.57 451.407C1199 441.774 1206.32 431.709 1213.44 420.959C1223.2 422.234 1232.75 423.151 1242.2 423.891C1235.06 433.958 1227.68 443.324 1220.13 452.194C1210.78 452.233 1201.26 451.989 1191.57 451.407ZM1167.69 479.891C1175.51 471.308 1183.2 462.274 1190.72 452.587C1200.34 453.194 1209.74 453.399 1219.02 453.391C1211.37 462.299 1203.48 470.53 1195.43 478.261C1186.37 479.174 1177.09 479.666 1167.69 479.891ZM1142.61 505.11C1150.7 497.669 1158.65 489.719 1166.45 481.219C1175.67 481.04 1184.78 480.652 1193.68 479.823C1185.77 487.317 1177.66 494.227 1169.39 500.638C1160.63 502.511 1151.7 503.986 1142.61 505.11ZM1116.8 526.705C1124.92 520.514 1132.91 513.809 1140.78 506.653C1149.54 505.633 1158.18 504.341 1166.64 502.634C1158.64 508.697 1150.48 514.267 1142.17 519.366C1133.84 522.178 1125.39 524.637 1116.8 526.705ZM1091.98 543.943C1099.4 539.271 1106.7 534.096 1113.94 528.69C1121.53 526.958 1129.04 525.025 1136.42 522.708C1122.02 531.105 1107.21 538.236 1091.98 543.943ZM1262.73 265.927C1267.99 253.301 1273.15 240.273 1278.23 226.882C1285.55 229.196 1292.95 231.613 1300.19 233.825C1295.66 247.253 1291.02 260.32 1286.23 272.905C1278.48 270.688 1270.59 268.291 1262.73 265.927ZM1245.67 305.197C1251.33 292.88 1256.87 280.019 1262.34 266.887C1270.21 269.26 1278.09 271.641 1285.85 273.864C1280.84 286.983 1275.73 299.731 1270.45 311.938C1262.27 309.809 1253.99 307.532 1245.67 305.197ZM1227.27 343.46C1233.36 331.526 1239.32 318.982 1245.22 306.171C1253.55 308.519 1261.82 310.769 1270 312.908C1264.49 325.623 1258.85 337.923 1253.04 349.657C1244.54 347.723 1235.96 345.664 1227.27 343.46ZM1207.45 380.388C1213.99 368.936 1220.4 356.841 1226.75 344.453C1235.44 346.67 1244.01 348.699 1252.52 350.644C1246.47 362.838 1240.27 374.56 1233.92 385.71C1225.2 384.099 1216.39 382.34 1207.45 380.388ZM1186.17 415.626C1193.17 404.767 1200.04 393.259 1206.84 381.408C1215.78 383.374 1224.57 385.097 1233.3 386.72C1226.67 398.285 1219.88 409.252 1212.95 419.723C1204.15 418.57 1195.21 417.186 1186.17 415.626ZM1163.35 448.796C1170.82 438.618 1178.18 427.896 1185.44 416.683C1194.5 418.266 1203.43 419.608 1212.25 420.777C1205.08 431.557 1197.74 441.707 1190.26 451.356C1181.44 450.791 1172.42 449.837 1163.35 448.796ZM1139.16 479.534C1147.05 470.166 1154.86 460.342 1162.56 449.916C1171.6 450.978 1180.56 451.869 1189.36 452.457C1181.75 462.208 1173.97 471.352 1166.06 479.974C1157.24 480.143 1148.24 479.935 1139.16 479.534ZM1113.81 507.473C1122.04 499.061 1130.19 490.197 1138.21 480.728C1147.16 481.151 1156.04 481.427 1164.73 481.305C1156.77 489.901 1148.66 497.914 1140.41 505.414C1131.68 506.438 1122.81 507.103 1113.81 507.473ZM1087.6 532.255C1096.03 524.92 1104.36 517.132 1112.6 508.778C1121.38 508.457 1130.05 507.893 1138.58 506.958C1130.38 514.314 1122.05 521.136 1113.6 527.456C1105.06 529.411 1096.39 531.009 1087.6 532.255ZM1061.03 553.539C1069.38 547.41 1077.67 540.822 1085.86 533.764C1094.26 532.63 1102.56 531.218 1110.74 529.444C1102.59 535.403 1094.34 540.927 1085.97 545.971C1077.75 548.821 1069.45 551.388 1061.03 553.539ZM1035.21 570.811C1042.97 566.062 1050.67 560.955 1058.3 555.463C1065.61 553.677 1072.86 551.637 1080.02 549.314C1065.38 557.727 1050.46 565.02 1035.21 570.811ZM1242.07 259.662C1247.77 247.069 1253.43 234.176 1259.01 220.806C1265.19 222.82 1271.24 224.677 1277.34 226.6C1272.26 240.002 1267.08 253.025 1261.82 265.655C1255.26 263.684 1248.72 261.75 1242.07 259.662ZM1223.47 298.764C1229.58 286.329 1235.67 273.797 1241.67 260.584C1248.31 262.674 1254.87 264.639 1261.43 266.615C1255.94 279.758 1250.39 292.616 1244.72 304.941C1237.69 302.961 1230.6 300.885 1223.47 298.764ZM1203.75 337.154C1210.23 325.048 1216.65 312.611 1223.02 299.696C1230.14 301.82 1237.25 303.928 1244.27 305.914C1238.36 318.736 1232.38 331.281 1226.28 343.221C1218.85 341.322 1211.3 339.233 1203.75 337.154ZM1182.85 374.555C1189.71 362.847 1196.5 350.672 1203.24 338.101C1210.78 340.187 1218.33 342.307 1225.75 344.214C1219.39 356.619 1212.96 368.713 1206.39 380.176C1198.64 378.464 1190.74 376.501 1182.85 374.555ZM1160.7 410.657C1167.96 399.428 1175.14 387.664 1182.27 375.525C1190.14 377.475 1198.05 379.472 1205.78 381.194C1198.96 393.068 1192.06 404.574 1185.03 415.451C1177.03 414.046 1168.87 412.359 1160.7 410.657ZM1137.3 445.118C1144.94 434.472 1152.51 423.259 1160.03 411.656C1168.17 413.364 1176.32 415.093 1184.3 416.509C1177.02 427.721 1169.65 438.51 1162.16 448.682C1153.99 447.717 1145.66 446.453 1137.3 445.118ZM1112.63 477.569C1120.65 467.604 1128.61 457.116 1136.51 446.154C1144.84 447.502 1153.15 448.81 1161.29 449.795C1153.57 460.225 1145.75 470.135 1137.82 479.499C1129.54 479.104 1121.12 478.414 1112.63 477.569ZM1086.77 507.654C1095.15 498.462 1103.49 488.88 1111.74 478.665C1120.17 479.527 1128.55 480.266 1136.78 480.689C1128.7 490.17 1120.53 499.142 1112.25 507.552C1103.87 507.862 1095.37 507.885 1086.77 507.654ZM1060.04 535.035C1068.66 526.761 1077.25 518.125 1085.76 508.83C1094.23 509.086 1102.6 509.128 1110.86 508.866C1102.52 517.272 1094.08 525.181 1085.55 532.54C1077.15 533.679 1068.65 534.515 1060.04 535.035ZM1032.71 559.381C1041.44 552.143 1050.14 544.548 1058.77 536.327C1067.15 535.86 1075.44 535.12 1083.62 534.074C1075.17 541.275 1066.63 548.027 1058.01 554.243C1049.67 556.282 1041.24 558.018 1032.71 559.381ZM1005.27 580.386C1013.89 574.28 1022.5 567.875 1031.04 560.859C1039.12 559.62 1047.11 558.067 1055.03 556.225C1046.75 562.07 1038.42 567.565 1030 572.541C1021.82 575.458 1013.59 578.151 1005.27 580.386ZM979.453 597.132C987.278 592.426 995.098 587.62 1002.86 582.205C1009.91 580.38 1016.89 578.216 1023.84 575.89C1009.22 584.141 994.441 591.337 979.453 597.132ZM1224.98 254.116C1231.19 241.654 1237.37 228.704 1243.54 215.651C1248.4 217.272 1253.3 218.943 1258.13 220.525C1252.54 233.889 1246.89 246.792 1241.19 259.376C1235.83 257.684 1230.38 255.864 1224.98 254.116ZM1205.02 293.146C1211.55 280.898 1218.04 267.999 1224.52 255.02C1229.94 256.78 1235.4 258.595 1240.78 260.297C1234.78 273.518 1228.67 286.047 1222.56 298.486C1216.74 296.752 1210.9 294.974 1205.02 293.146ZM1183.66 331.559C1190.64 319.35 1197.61 307.047 1204.54 294.075C1210.43 295.911 1216.28 297.678 1222.11 299.419C1215.74 312.344 1209.29 324.781 1202.81 336.892C1196.44 335.141 1190.12 333.451 1183.66 331.559ZM1161.36 369.157C1168.64 357.318 1175.9 345.137 1183.13 332.506C1189.6 334.411 1195.92 336.082 1202.3 337.839C1195.54 350.418 1188.73 362.597 1181.86 374.314C1175.05 372.641 1168.28 371.019 1161.36 369.157ZM1138.06 405.692C1145.66 394.261 1153.24 382.341 1160.79 370.08C1167.7 371.946 1174.48 373.6 1181.27 375.28C1174.12 387.435 1166.92 399.203 1159.64 410.441C1152.5 408.949 1145.33 407.416 1138.06 405.692ZM1113.7 440.958C1121.63 430.002 1129.53 418.47 1137.42 406.638C1144.68 408.37 1151.84 409.938 1158.97 411.439C1151.42 423.063 1143.82 434.279 1136.15 444.939C1128.73 443.744 1121.26 442.444 1113.7 440.958ZM1088.27 474.627C1096.53 464.241 1104.75 453.24 1112.96 441.935C1120.5 443.429 1127.96 444.768 1135.36 445.977C1127.44 456.949 1119.45 467.48 1111.4 477.451C1103.77 476.677 1096.07 475.758 1088.27 474.627ZM1061.86 506.348C1070.4 496.637 1078.92 486.308 1087.43 475.644C1095.19 476.787 1102.86 477.748 1110.46 478.542C1102.18 488.76 1093.83 498.431 1085.42 507.619C1077.64 507.392 1069.8 507.004 1061.86 506.348ZM1034.42 535.768C1043.26 526.79 1052.08 517.38 1060.87 507.424C1068.78 508.099 1076.59 508.538 1084.33 508.793C1075.77 518.109 1067.13 526.834 1058.45 535.117C1050.52 535.57 1042.52 535.825 1034.42 535.768ZM1006.37 562.581C1015.38 554.48 1024.37 546.01 1033.34 536.933C1041.34 537.019 1049.24 536.82 1057.08 536.415C1048.36 544.681 1039.57 552.394 1030.74 559.654C1022.69 560.897 1014.58 561.923 1006.37 562.581ZM977.997 586.48C987.014 579.378 996.027 571.909 1005.02 563.863C1013.03 563.26 1020.96 562.324 1028.82 561.167C1020.12 568.247 1011.36 574.872 1002.57 581.009C994.44 583.123 986.259 585.015 977.997 586.48ZM949.973 607.013C958.729 601.045 967.483 594.778 976.223 587.953C984.052 586.619 991.803 584.895 999.515 582.978C991.133 588.722 982.719 594.157 974.264 599.075C966.212 602.048 958.118 604.72 949.973 607.013ZM924.947 622.818C932.36 618.438 939.771 613.995 947.179 609.023C954.117 607.142 960.997 604.813 967.87 602.441C953.648 610.358 939.331 617.093 924.947 622.818ZM1211.57 249.763C1218.45 237.279 1225.34 224.896 1232.22 211.805C1235.71 212.986 1239.21 214.193 1242.68 215.358C1236.5 228.413 1230.32 241.363 1224.1 253.83C1219.93 252.482 1215.77 251.157 1211.57 249.763ZM1189.76 288.421C1196.87 276.121 1203.97 263.543 1211.08 250.661C1215.3 252.061 1219.45 253.381 1223.63 254.734C1217.15 267.712 1210.66 280.632 1204.13 292.876C1199.34 291.396 1194.6 289.972 1189.76 288.421ZM1167.29 326.56C1174.6 314.599 1181.93 301.964 1189.25 289.298C1194.09 290.855 1198.86 292.316 1203.65 293.804C1196.71 306.783 1189.73 319.087 1182.74 331.303C1177.63 329.794 1172.44 328.136 1167.29 326.56ZM1143.48 364.059C1151.22 352.142 1158.97 340.11 1166.72 327.451C1171.87 329.034 1177.1 330.732 1182.21 332.25C1174.97 344.879 1167.7 357.052 1160.41 368.889C1154.82 367.366 1149.13 365.677 1143.48 364.059ZM1118.72 400.839C1126.77 389.217 1134.83 377.375 1142.9 364.981C1148.56 366.609 1154.24 368.281 1159.85 369.811C1152.28 382.081 1144.69 394.005 1137.07 405.442C1131 403.992 1124.87 402.437 1118.72 400.839ZM1093.06 436.653C1101.38 425.435 1109.72 413.814 1118.07 401.786C1124.23 403.396 1130.35 404.93 1136.43 406.39C1128.52 418.236 1120.59 429.771 1112.63 440.738C1106.15 439.457 1099.64 438.14 1093.06 436.653ZM1066.49 471.198C1075.09 460.465 1083.7 449.217 1092.32 437.632C1098.92 439.133 1105.41 440.425 1111.9 441.714C1103.66 453.037 1095.4 464.045 1087.12 474.445C1080.28 473.453 1073.45 472.469 1066.49 471.198ZM1039.1 504.148C1047.93 493.991 1056.79 483.263 1065.65 472.221C1072.61 473.508 1079.43 474.458 1086.27 475.462C1077.73 486.151 1069.17 496.496 1060.58 506.227C1053.46 505.641 1046.35 505.084 1039.1 504.148ZM1011 535.133C1020.05 525.648 1029.11 515.554 1038.18 505.155C1045.4 506.104 1052.49 506.695 1059.58 507.3C1050.76 517.258 1041.91 526.757 1033.05 535.733C1025.75 535.677 1018.44 535.603 1011 535.133ZM982.131 563.854C991.382 555.079 1000.65 545.905 1009.94 536.193C1017.34 536.685 1024.64 536.809 1031.92 536.896C1022.88 546.005 1013.82 554.547 1004.76 562.666C997.263 563.249 989.746 563.751 982.131 563.854ZM953.006 589.948C962.3 582.051 971.611 573.853 980.949 565.031C988.506 564.958 995.966 564.494 1003.4 563.948C994.275 572.074 985.127 579.608 975.974 586.76C968.363 588.061 960.716 589.171 953.006 589.948ZM924.036 613.095C933.132 606.242 942.245 599.106 951.387 591.387C959.049 590.658 966.633 589.499 974.193 588.237C965.12 595.263 956.033 601.728 946.944 607.835C939.345 609.878 931.703 611.591 924.036 613.095ZM895.924 632.921C904.529 627.222 913.148 621.309 921.8 614.854C929.311 613.44 936.777 611.648 944.224 609.702C935.503 615.474 926.774 620.77 918.046 625.724C910.695 628.473 903.308 630.71 895.924 632.921ZM870.863 648.437C878.052 644.249 885.25 639.991 892.476 635.285C899.041 633.401 905.595 631.229 912.138 628.96C898.378 636.483 884.616 642.837 870.863 648.437ZM1320.02 30.0228C1316.64 36.7974 1313.27 43.4954 1309.91 50.0715C1315.2 38.1814 1320.49 26.5295 1325.78 14.2742C1323.86 19.5253 1321.94 24.8444 1320.02 30.0228ZM1178.42 284.637C1186.1 272.506 1193.78 260.275 1201.51 247.54C1204.44 248.529 1207.31 249.424 1210.21 250.38C1203.1 263.245 1195.99 275.837 1188.88 288.127C1185.42 287 1181.89 285.779 1178.42 284.637ZM1154.01 322.411C1161.94 310.374 1169.89 298.12 1177.88 285.51C1181.36 286.656 1184.9 287.873 1188.37 289.005C1181.04 301.669 1173.7 314.314 1166.38 326.276C1162.27 325.012 1158.14 323.72 1154.01 322.411ZM1128.86 359.889C1137 348.112 1145.21 335.741 1153.42 323.297C1157.57 324.616 1161.69 325.899 1165.81 327.168C1158.06 339.818 1150.31 351.889 1142.56 363.796C1137.99 362.498 1133.47 361.273 1128.86 359.889ZM1102.74 396.612C1111.2 385.024 1119.69 373.1 1128.21 360.796C1132.85 362.193 1137.38 363.41 1141.97 364.717C1133.89 377.118 1125.82 388.972 1117.76 400.596C1112.77 399.301 1107.79 398.014 1102.74 396.612ZM1075.72 432.461C1084.48 421.111 1093.26 409.609 1102.1 397.512C1107.13 398.916 1112.12 400.243 1117.1 401.545C1108.74 413.581 1100.38 425.214 1092.03 436.438C1086.64 435.204 1081.17 433.818 1075.72 432.461ZM1047.94 467.36C1056.92 456.415 1065.94 445.11 1075.01 433.387C1080.45 434.747 1085.91 436.177 1091.29 437.419C1082.65 449.019 1074.01 460.28 1065.38 471.024C1059.63 469.943 1053.76 468.593 1047.94 467.36ZM1019.44 501.017C1028.63 490.553 1037.87 479.596 1047.14 468.318C1052.96 469.558 1058.82 470.924 1064.57 472.019C1055.67 483.072 1046.79 493.807 1037.92 503.97C1031.82 503.145 1025.61 502.041 1019.44 501.017ZM990.316 533.117C999.67 523.223 1009.09 512.758 1018.54 502.021C1024.72 503.059 1030.91 504.132 1037.02 504.969C1027.9 515.396 1018.79 525.5 1009.7 535.007C1003.29 534.556 996.799 533.821 990.316 533.117ZM960.729 563.319C970.185 554.106 979.714 544.262 989.272 534.184C995.754 534.906 1002.23 535.603 1008.64 536.067C999.311 545.786 990.003 555.064 980.717 563.842C974.106 563.878 967.414 563.589 960.729 563.319ZM930.567 591.297C940.155 582.764 949.788 573.891 959.484 564.474C966.195 564.77 972.893 565.013 979.528 564.993C970.054 573.913 960.603 582.23 951.173 590.198C944.352 590.821 937.456 591.039 930.567 591.297ZM900.439 616.749C909.975 609.066 919.545 601.121 929.19 592.574C936.064 592.348 942.928 592.061 949.737 591.474C940.339 599.369 930.972 606.669 921.626 613.649C914.595 614.957 907.52 615.872 900.439 616.749ZM870.769 639.356C880.027 632.665 889.323 625.711 898.693 618.208C905.647 617.388 912.599 616.534 919.506 615.313C910.42 622.036 901.367 628.188 892.332 634.076C885.16 636.125 877.965 637.785 870.769 639.356ZM842.272 658.764C850.934 653.194 859.628 647.402 868.39 641.127C875.226 639.691 882.069 638.288 888.885 636.441C880.445 641.847 872.041 646.698 863.651 651.402C856.52 654.139 849.396 656.52 842.272 658.764ZM817.251 673.969C824.344 669.904 831.461 665.686 838.625 661.153C844.635 659.333 850.645 657.585 856.662 655.439C843.451 662.554 830.327 668.522 817.251 673.969ZM1288.64 95.0602C1285.6 100.133 1282.56 105.214 1279.52 110.255C1285.59 98.923 1291.7 87.0172 1297.8 75.1904C1294.75 81.8942 1291.69 88.4841 1288.64 95.0602ZM1307.74 62.7522C1302.91 71.0444 1298.11 79.1803 1293.31 87.2697C1296.96 79.3466 1300.61 70.9167 1304.26 62.8081C1308.58 54.4329 1312.88 46.2158 1317.21 37.686C1314.05 46.084 1310.91 54.5524 1307.74 62.7522ZM1326.83 29.3981C1321.5 38.7566 1316.16 48.1906 1310.86 57.2903C1314.22 48.5519 1317.52 39.2556 1320.86 30.2914C1325.61 20.8731 1330.38 11.0707 1335.15 1.35962C1332.38 10.7102 1329.64 20.2924 1326.83 29.3981ZM1144.49 319.438C1152.96 307.58 1161.49 295.375 1170.06 282.904C1172.38 283.678 1174.7 284.455 1177.01 285.22C1169.01 297.813 1161.05 310.105 1153.11 322.13C1150.23 321.23 1147.39 320.376 1144.49 319.438ZM1117.54 356.395C1126.27 344.602 1135.04 332.68 1143.87 320.319C1146.78 321.264 1149.63 322.114 1152.52 323.018C1144.3 335.456 1136.08 347.846 1127.92 359.624C1124.48 358.581 1121 357.467 1117.54 356.395ZM1090.04 392.9C1098.93 381.395 1107.9 369.387 1116.9 357.257C1120.35 358.33 1123.84 359.483 1127.28 360.53C1118.76 372.811 1110.27 384.778 1101.81 396.343C1097.91 395.241 1093.96 394.041 1090.04 392.9ZM1061.71 428.864C1070.84 417.579 1080.08 405.764 1089.34 393.784C1093.29 394.938 1097.25 396.134 1101.17 397.241C1092.32 409.341 1083.52 420.861 1074.75 432.211C1070.41 431.13 1066.07 430.028 1061.71 428.864ZM1032.34 464.042C1041.84 452.898 1051.35 441.666 1060.98 429.789C1065.36 430.961 1069.7 432.049 1074.04 433.137C1064.95 444.867 1055.91 456.191 1046.9 467.139C1042.05 466.125 1037.24 465.194 1032.34 464.042ZM1002.49 498.102C1012.11 487.424 1021.78 476.431 1031.53 465.001C1036.44 466.164 1041.25 467.076 1046.11 468.097C1036.8 479.389 1027.53 490.365 1018.31 500.838C1013.06 499.974 1007.81 499.142 1002.49 498.102ZM972.186 530.858C981.928 520.668 991.759 510.009 1001.65 499.042C1006.94 500.087 1012.18 500.964 1017.41 501.841C1007.92 512.601 998.465 523.088 989.069 532.995C983.47 532.379 977.847 531.683 972.186 530.858ZM941.464 562.095C951.295 552.47 961.238 542.272 971.226 531.846C976.854 532.679 982.455 533.428 988.025 534.062C978.408 544.177 968.819 554.042 959.305 563.282C953.391 563.023 947.438 562.607 941.464 562.095ZM910.488 591.484C920.346 582.519 930.331 572.933 940.352 563.148C946.277 563.674 952.191 564.152 958.06 564.437C948.328 573.86 938.644 582.849 929.019 591.38C922.871 591.581 916.687 591.582 910.488 591.484ZM879.16 618.716C889.096 610.392 899.089 601.79 909.196 592.629C915.364 592.752 921.525 592.822 927.644 592.657C917.879 601.275 908.192 609.281 898.541 617.013C892.102 617.772 885.639 618.311 879.16 618.716ZM848.134 643.508C857.912 636.018 867.744 628.291 877.695 619.987C884.077 619.62 890.45 619.175 896.796 618.472C887.221 626.094 877.725 633.151 868.266 639.929C861.563 641.338 854.853 642.506 848.134 643.508ZM817.843 665.565C827.246 659.038 836.705 652.259 846.273 644.973C852.817 644.038 859.36 643.011 865.889 641.698C856.705 648.217 847.596 654.207 838.522 659.952C831.623 662.051 824.731 663.918 817.843 665.565ZM789.044 684.535C797.736 679.105 806.483 673.431 815.32 667.35C821.835 665.847 828.352 664.236 834.878 662.341C826.42 667.609 818.037 672.392 809.68 677.01C802.781 679.732 795.899 682.267 789.044 684.535ZM764.139 699.41C771.101 695.486 778.121 691.301 785.181 686.956C790.846 685.149 796.513 683.351 802.206 681.244C789.397 688.051 776.711 694.075 764.139 699.41ZM1272.52 129.056C1266.73 137.647 1260.93 146.22 1255.18 154.611C1259.87 146.161 1264.56 137.724 1269.27 129.062C1274.41 120.618 1279.6 111.897 1284.78 103.205C1280.69 111.925 1276.61 120.555 1272.52 129.056ZM1294.18 96.8986C1288.01 106.182 1281.9 115.183 1275.77 124.276C1280.33 114.731 1284.89 105.23 1289.45 95.416C1294.78 86.462 1300.09 77.6449 1305.45 68.5078C1301.71 78.1257 1297.95 87.5428 1294.18 96.8986ZM1315.85 63.6628C1309.43 73.5344 1302.98 83.5656 1296.63 93.1375C1300.62 83.1771 1304.62 73.2997 1308.58 63.0448C1314.2 53.4217 1319.88 43.3475 1325.55 33.4095C1322.35 43.7081 1319.09 53.6626 1315.85 63.6628ZM1336.72 31.6442C1330.34 41.5366 1324.04 51.0886 1317.69 60.8284C1321.03 50.4976 1324.39 40.3289 1327.68 29.6823C1333.23 19.9794 1338.75 10.4731 1344.31 0.631836C1341.84 11.2174 1339.26 21.3685 1336.72 31.6442ZM1109.94 353.959C1119.08 342.483 1128.37 330.409 1137.67 318.327C1139.45 318.914 1141.21 319.474 1142.98 320.041C1134.14 332.372 1125.37 344.336 1116.63 356.104C1114.41 355.404 1112.17 354.663 1109.94 353.959ZM1080.55 390.125C1090.07 378.561 1099.61 366.941 1109.28 354.813C1111.51 355.524 1113.76 356.262 1115.99 356.966C1106.99 369.084 1098 381.123 1089.1 392.625C1086.25 391.798 1083.41 390.986 1080.55 390.125ZM1050.58 425.97C1060.24 414.651 1070.01 402.914 1079.83 391.005C1082.7 391.873 1085.55 392.68 1088.4 393.509C1079.13 405.474 1069.88 417.348 1060.74 428.618C1057.35 427.732 1054 426.928 1050.58 425.97ZM1020.28 460.984C1030.01 450.06 1039.93 438.422 1049.83 426.834C1053.25 427.795 1056.62 428.646 1060.02 429.541C1050.37 441.421 1040.83 452.681 1031.32 463.825C1027.67 462.944 1023.95 461.911 1020.28 460.984ZM988.962 495.167C999.077 484.314 1009.2 473.442 1019.5 461.885C1023.16 462.814 1026.88 463.886 1030.52 464.777C1020.76 476.2 1011.07 487.204 1001.44 497.875C997.306 497.041 993.123 496.074 988.962 495.167ZM957.161 528.422C967.385 517.984 977.683 507.268 988.101 496.107C992.271 497.021 996.454 497.974 1000.6 498.814C990.677 509.795 980.814 520.476 971.045 530.673C966.436 529.989 961.807 529.233 957.161 528.422ZM924.986 560.475C935.28 550.519 945.696 540.115 956.195 529.411C960.846 530.233 965.471 530.969 970.085 531.661C960.053 542.11 950.066 552.328 940.192 561.969C935.137 561.534 930.083 561.098 924.986 560.475ZM892.592 591.025C902.897 581.639 913.361 571.684 923.879 561.532C928.979 562.17 934.026 562.579 939.081 563.023C929.006 572.834 918.966 582.464 909.056 591.447C903.579 591.372 898.111 591.358 892.592 591.025ZM860.293 619.641C870.515 610.932 880.911 601.607 891.352 592.122C896.846 592.475 902.285 592.498 907.739 592.592C897.593 601.757 887.536 610.481 877.565 618.802C871.817 619.17 866.072 619.58 860.293 619.641ZM827.914 646.107C838.162 637.998 848.473 629.678 858.948 620.78C864.685 620.745 870.391 620.406 876.101 620.073C866.023 628.449 856.067 636.244 846.167 643.781C840.087 644.681 834.006 645.562 827.914 646.107ZM796.088 670.226C806.08 662.938 816.137 655.433 826.35 647.381C832.342 646.876 838.327 646.089 844.308 645.247C834.523 652.655 824.85 659.54 815.238 666.155C808.851 667.664 802.462 669.122 796.088 670.226ZM765.277 691.715C774.793 685.362 784.384 678.756 794.112 671.699C800.306 670.665 806.509 669.347 812.717 667.939C803.429 674.274 794.245 680.145 785.118 685.761C778.488 687.914 771.861 690.002 765.277 691.715ZM736.252 710.235C744.944 704.957 753.723 699.395 762.598 693.518C768.796 691.958 775.022 690.125 781.258 688.18C772.819 693.295 764.467 698.027 756.165 702.542C749.503 705.243 742.84 707.96 736.252 710.235ZM714.974 722.953C720.624 719.779 726.42 716.129 732.149 712.7C737.49 710.918 742.867 708.937 748.259 706.858C737.04 712.739 725.938 718.132 714.974 722.953ZM1205.41 228.564C1202.07 232.796 1198.72 237.048 1195.38 241.285C1203.1 230.682 1210.97 219.407 1218.83 208.223C1214.32 215.229 1209.89 221.716 1205.41 228.564ZM1221.49 208.158C1218.34 212.193 1215.26 216.021 1212.11 220.059C1214.81 215.902 1217.48 211.945 1220.19 207.718C1220.62 207.863 1221.05 208.009 1221.49 208.158ZM1230.73 196.138C1227.87 199.853 1224.97 203.682 1222.13 207.338C1221.66 207.177 1221.2 207.021 1220.73 206.863C1223.21 202.985 1225.71 198.924 1228.19 195.019C1233.89 186.896 1239.5 179.087 1245.24 170.805C1240.39 179.414 1235.55 187.82 1230.73 196.138ZM1280.58 130.293C1273.43 139.871 1266.4 149.067 1259.31 158.462C1263.98 149.017 1268.66 139.159 1273.33 129.426C1279.74 119.934 1286.1 110.654 1292.56 100.977C1288.57 110.832 1284.59 120.735 1280.58 130.293ZM1304.91 97.0441C1297.58 107.078 1290.19 117.327 1282.96 127.042C1287 117.369 1291 107.194 1295.01 97.2166C1301.55 87.369 1308.22 76.9832 1314.84 66.8026C1311.54 76.9227 1308.27 87.2385 1304.91 97.0441ZM1328.42 64.9347C1321.15 74.9509 1313.98 84.6559 1306.77 94.5062C1310.13 84.6429 1313.38 74.1512 1316.69 63.9691C1323.15 54.0487 1329.59 44.2829 1336.09 34.1998C1333.54 44.461 1331.05 54.9943 1328.42 64.9347ZM1351.69 32.2332C1344.43 42.461 1337.08 52.9739 1329.93 62.8611C1332.56 52.8889 1335.02 42.2287 1337.57 31.936C1343.98 21.9606 1350.55 11.3346 1357.05 1.00262C1355.26 11.3932 1353.59 22.1741 1351.69 32.2332ZM1223.01 207.637C1224.35 205.926 1225.7 204.17 1227.04 202.441C1225.97 204.28 1224.91 206.086 1223.84 207.917L1223.01 207.637ZM1194.35 244.005C1196.07 241.815 1197.78 239.669 1199.51 237.463C1198.01 239.738 1196.51 241.972 1195.02 244.238C1194.79 244.162 1194.57 244.082 1194.35 244.005ZM1074.66 388.405C1084.52 377.182 1094.64 365.191 1104.7 353.347C1105.93 353.742 1107.16 354.135 1108.38 354.526C1098.71 366.648 1089.15 378.294 1079.62 389.853C1077.97 389.369 1076.33 388.916 1074.66 388.405ZM1043.01 423.7C1053.25 412.398 1063.48 401.138 1073.9 389.275C1075.58 389.792 1077.23 390.246 1078.9 390.733C1069.08 402.633 1059.3 414.371 1049.63 425.687C1047.43 425.046 1045.21 424.334 1043.01 423.7ZM1010.98 458.541C1021.3 447.512 1031.73 436.153 1042.24 424.559C1044.44 425.197 1046.68 425.908 1048.89 426.551C1038.98 438.134 1029.05 449.815 1019.32 460.732C1016.55 460.023 1013.76 459.279 1010.98 458.541ZM978.479 492.893C988.879 482.188 999.526 470.773 1010.14 459.431C1012.94 460.173 1015.73 460.91 1018.51 461.624C1008.2 473.172 998.054 484.102 987.934 494.944C984.784 494.269 981.651 493.637 978.479 492.893ZM945.201 526.334C955.886 515.781 966.638 505.048 977.557 493.82C980.752 494.576 983.903 495.199 987.073 495.883C976.627 507.061 966.301 517.792 956.051 528.241C952.438 527.624 948.84 527.051 945.201 526.334ZM911.758 558.586C922.494 548.446 933.307 538.085 944.286 527.255C947.903 527.975 951.49 528.601 955.083 529.23C944.544 539.957 934.09 550.38 923.757 560.353C919.774 559.844 915.76 559.189 911.758 558.586ZM878.132 589.656C888.863 580.001 899.747 569.923 910.729 559.563C914.702 560.17 918.695 560.883 922.65 561.412C912.087 571.587 901.583 581.551 891.235 590.953C886.885 590.638 882.497 590.071 878.132 589.656ZM844.523 619.241C855.178 610.161 866.044 600.501 876.959 590.699C881.326 591.129 885.708 591.664 890.06 591.997C879.572 601.503 869.118 610.881 858.853 619.604C854.085 619.6 849.301 619.39 844.523 619.241ZM811.056 647.034C821.599 638.575 832.341 629.57 843.15 620.381C847.924 620.549 852.697 620.727 857.459 620.742C846.942 629.649 836.562 638.091 826.276 646.197C821.205 646.6 816.131 646.823 811.056 647.034ZM777.737 672.785C788.225 664.914 798.761 656.919 809.522 648.309C814.589 648.121 819.654 647.861 824.713 647.472C814.365 655.599 804.178 663.169 794.059 670.509C788.614 671.399 783.173 672.136 777.737 672.785ZM745.329 696.198C755.385 689.18 765.519 681.959 775.836 674.246C781.246 673.633 786.664 672.852 792.083 671.982C782.123 679.171 772.306 685.878 762.569 692.325C756.807 693.752 751.059 695.044 745.329 696.198ZM714.448 716.937C723.8 710.904 733.253 704.604 742.841 697.955C748.504 696.858 754.195 695.523 759.893 694.127C750.536 700.269 741.299 706.02 732.146 711.497C726.225 713.435 720.321 715.27 714.448 716.937ZM686.5 734.378C694.517 729.61 702.673 724.47 710.869 719.235C716.559 717.68 722.302 715.83 728.049 713.959C719.662 718.906 711.358 723.589 703.139 727.989C697.558 730.259 692.02 732.359 686.5 734.378ZM664.855 746.854C669.944 744.03 675.128 740.97 680.291 737.957C685.066 736.288 689.919 734.308 694.753 732.407C684.658 737.626 674.694 742.435 664.855 746.854ZM1153.74 295.975C1148.88 301.48 1144.14 306.707 1139.32 312.118C1147.75 301.911 1156.21 291.615 1164.72 281.154C1161.08 286.034 1157.36 291.179 1153.74 295.975ZM1166.2 281.617C1164.55 283.51 1162.87 285.472 1161.24 287.338C1162.69 285.404 1164.16 283.388 1165.62 281.424L1166.2 281.617ZM1183.27 261.951C1177.79 268.294 1172.34 274.565 1166.91 280.8L1166.25 280.579C1170.05 275.466 1173.85 270.336 1177.66 265.18C1182.95 258.578 1188.34 251.677 1193.71 244.817C1193.96 244.902 1194.21 244.99 1194.46 245.078C1190.72 250.746 1186.98 256.455 1183.27 261.951ZM1197.11 246.006C1193.99 249.608 1190.9 253.15 1187.77 256.776C1190.27 253.038 1192.8 249.167 1195.32 245.38C1195.92 245.591 1196.52 245.805 1197.11 246.006ZM1210.98 229.896C1206.56 235.065 1202.17 240.171 1197.8 245.213C1197.17 244.998 1196.52 244.769 1195.88 244.54C1199.32 239.368 1202.75 234.24 1206.2 228.964C1211.62 222.026 1216.96 215.345 1222.36 208.455L1223.33 208.782C1219.21 215.879 1215.08 223.008 1210.98 229.896ZM1227.5 210.2C1223.11 215.447 1218.69 220.779 1214.37 225.849C1217.64 220.349 1220.91 214.682 1224.19 209.075C1225.29 209.449 1226.39 209.824 1227.5 210.2ZM1292.7 131.453C1284.43 141.642 1276.05 152.104 1267.9 161.974C1272.42 151.642 1276.93 141.317 1281.41 130.626C1288.81 120.704 1296.4 110.176 1303.9 99.907C1300.2 110.664 1296.45 121.065 1292.7 131.453ZM1318.8 99.3303C1310.6 109.489 1302.52 119.38 1294.4 129.363C1298.2 118.796 1302.01 108.314 1305.76 97.3688C1313.08 87.3726 1320.37 77.4908 1327.75 67.3228C1324.83 78.2748 1321.8 88.7518 1318.8 99.3303ZM1344.6 66.8954C1336.46 77.1574 1328.24 87.6151 1320.23 97.5693C1323.26 86.8591 1326.33 76.3369 1329.27 65.2473C1336.5 55.251 1343.92 44.6819 1351.26 34.3551C1349.14 45.519 1346.84 56.1184 1344.6 66.8954ZM1369.97 34.7224C1361.92 44.9313 1353.83 55.2593 1345.85 65.3074C1348.11 54.4207 1350.44 43.7903 1352.56 32.5112C1359.75 22.4131 1367.01 12.0965 1374.25 1.86365C1372.96 13.1683 1371.41 23.8124 1369.97 34.7224ZM1229.06 209.693C1231.8 206.419 1234.51 203.217 1237.25 199.929C1235.44 203.421 1233.63 207.146 1231.82 210.63L1229.06 209.693ZM1211.76 230.312C1217.22 223.92 1222.82 217.172 1228.38 210.5L1231.37 211.516C1224.48 224.6 1217.59 237.008 1210.7 249.482C1207.81 248.536 1204.96 247.656 1202.05 246.672C1205.28 241.328 1208.53 235.744 1211.76 230.312ZM1198.69 245.521C1201.9 241.829 1205.11 238.156 1208.37 234.36C1205.97 238.367 1203.56 242.436 1201.17 246.387C1200.35 246.105 1199.51 245.799 1198.69 245.521ZM1184.04 262.4C1188.71 257.002 1193.36 251.654 1198 246.315C1198.87 246.611 1199.76 246.93 1200.64 247.237C1192.91 259.949 1185.22 272.243 1177.55 284.347C1175.26 283.591 1172.95 282.815 1170.66 282.05C1175.1 275.577 1179.56 269.027 1184.04 262.4ZM1167.8 281.099C1171.72 276.576 1175.61 272.129 1179.55 267.574C1176.27 272.4 1173.03 277.042 1169.77 281.756C1169.12 281.537 1168.46 281.318 1167.8 281.099ZM1154.49 296.436C1158.63 291.746 1162.88 286.781 1167.09 281.916C1167.79 282.15 1168.48 282.379 1169.18 282.609C1160.61 295.045 1152.06 307.337 1143.6 319.159C1141.83 318.603 1140.09 318.083 1138.31 317.498C1143.7 310.502 1149.05 303.626 1154.49 296.436ZM1136.28 316.802C1139.83 312.864 1143.38 308.94 1146.97 304.93C1143.75 309.151 1140.62 313.071 1137.43 317.194C1137.04 317.061 1136.66 316.927 1136.28 316.802ZM1127.2 326.876C1129.99 323.772 1132.78 320.68 1135.56 317.604C1135.96 317.738 1136.37 317.88 1136.78 318.023C1127.49 330.097 1118.18 342.214 1109.05 353.671C1107.84 353.285 1106.63 352.896 1105.42 352.508C1112.68 343.981 1119.86 335.671 1127.2 326.876ZM1104.42 352.188C1105.22 351.291 1106.04 350.376 1106.84 349.499C1106.06 350.416 1105.29 351.312 1104.51 352.217L1104.42 352.188ZM1071.66 387.527C1082.28 376.151 1092.87 364.829 1103.67 353.017L1103.79 353.056C1093.72 364.913 1083.62 376.847 1073.73 388.132C1073.05 387.934 1072.36 387.743 1071.66 387.527ZM1038.81 422.441C1049.33 411.474 1060.1 399.911 1070.86 388.385C1071.57 388.604 1072.26 388.799 1072.96 388.998C1062.52 400.902 1052.31 412.094 1042.07 423.419C1040.98 423.095 1039.89 422.758 1038.81 422.441ZM1005.07 456.989C1015.95 445.968 1026.87 434.863 1037.99 423.284C1039.09 423.608 1040.2 423.948 1041.3 424.277C1030.76 435.919 1020.34 447.208 1009.99 458.282C1008.36 457.854 1006.72 457.439 1005.07 456.989ZM970.823 491.139C981.846 480.3 992.948 469.273 1004.21 457.873C1005.87 458.327 1007.51 458.739 1009.16 459.171C998.5 470.566 987.86 481.917 977.427 492.666C975.228 492.163 973.037 491.685 970.823 491.139ZM936.582 524.425C947.53 514.018 958.732 503.016 969.938 492.006C972.133 492.55 974.321 493.079 976.504 493.592C965.583 504.83 954.842 515.547 944.157 526.103C941.641 525.576 939.102 524.959 936.582 524.425ZM901.699 556.93C912.87 546.696 924.154 536.209 935.605 525.336C938.146 525.879 940.704 526.492 943.241 527.025C932.222 537.898 921.397 548.222 910.624 558.4C907.654 557.94 904.676 557.439 901.699 556.93ZM866.426 588.494C877.719 578.565 889.07 568.5 900.653 557.904C903.64 558.422 906.62 558.91 909.596 559.376C898.561 569.786 887.653 579.835 876.873 589.531C873.395 589.208 869.921 588.922 866.426 588.494ZM831.181 618.844C842.382 609.424 853.744 599.639 865.244 589.539C868.743 589.979 872.218 590.246 875.701 590.574C864.713 600.437 853.808 610.073 843.085 619.205C839.119 619.11 835.162 619.105 831.181 618.844ZM796.513 647.448C807.471 638.669 818.679 629.335 829.939 619.879C833.873 620.15 837.79 620.224 841.714 620.344C830.862 629.565 820.06 638.641 809.48 647.122C805.159 647.3 800.837 647.441 796.513 647.448ZM762.145 674.295C772.946 666.099 783.946 657.464 795.054 648.586C799.321 648.599 803.586 648.543 807.85 648.399C797.01 657.06 786.379 665.145 775.819 673.052C771.256 673.572 766.7 673.956 762.145 674.295ZM728.237 699.148C738.881 691.54 749.559 683.859 760.512 675.571C764.979 675.262 769.444 674.982 773.92 674.513C763.401 682.358 753.09 689.638 742.846 696.756C737.96 697.69 733.101 698.412 728.237 699.148ZM695.585 721.709C705.668 714.954 715.84 708.006 726.214 700.62C730.927 699.935 735.627 699.362 740.36 698.513C730.4 705.39 720.608 711.818 710.902 718.027C705.766 719.415 700.681 720.535 695.585 721.709ZM664.937 741.609C674.134 735.857 683.478 729.787 692.928 723.493C697.759 722.419 702.56 721.498 707.42 720.264C698.286 726.05 689.27 731.53 680.358 736.737C675.173 738.537 670.067 740.024 664.937 741.609ZM638.198 758.022C645.689 753.646 653.444 748.707 661.111 743.957C665.822 742.551 670.514 741.211 675.258 739.678C667.378 744.207 659.53 748.656 651.824 752.74C647.226 754.675 642.739 756.269 638.198 758.022ZM615.125 770.805C620.592 767.817 626.038 764.871 631.599 761.681C634.963 760.435 638.338 759.16 641.711 757.886C632.742 762.46 623.857 766.823 615.125 770.805ZM1245.2 169.314L1244.53 169.079C1249 161.925 1253.43 155.07 1257.93 147.797C1255.22 152.696 1252.51 157.696 1249.81 162.525C1248.26 164.81 1246.72 167.115 1245.2 169.314ZM1249.84 170.944C1248.82 170.595 1247.79 170.225 1246.76 169.864C1248.04 167.593 1249.33 165.178 1250.61 162.892C1257.05 153.537 1263.57 143.85 1270.08 134.206C1265.48 143.731 1260.89 153.197 1256.28 162.447C1254.13 165.281 1251.98 168.118 1249.84 170.944ZM1251.65 171.579C1251.33 171.468 1251.02 171.354 1250.7 171.247L1254.07 166.809C1253.26 168.426 1252.45 169.973 1251.65 171.579ZM1258.04 173.797C1256.2 173.169 1254.35 172.524 1252.5 171.877C1254.03 168.825 1255.56 165.907 1257.09 162.826C1264.42 153.138 1271.65 143.746 1279.04 133.877C1274.65 144.283 1270.24 154.453 1265.83 164.513C1263.22 167.655 1260.67 170.63 1258.04 173.797ZM1261.36 174.893C1260.55 174.628 1259.75 174.368 1258.93 174.091C1260.85 171.772 1262.73 169.557 1264.63 167.298C1263.53 169.785 1262.45 172.428 1261.36 174.893ZM1274.71 179.313C1270.54 177.929 1266.42 176.602 1262.21 175.176C1263.69 171.84 1265.16 168.277 1266.64 164.902C1274.9 154.893 1283.43 144.241 1291.83 133.899C1286.19 149.453 1280.48 164.566 1274.71 179.313ZM1292.32 185.141C1286.77 183.327 1281.17 181.467 1275.58 179.6C1281.63 164.113 1287.62 148.186 1293.53 131.809C1301.74 121.72 1309.93 111.698 1318.21 101.43C1309.89 130.626 1301.31 158.789 1292.32 185.141ZM1313.49 191.987C1306.77 189.858 1299.99 187.646 1293.2 185.433C1302.4 158.471 1311.15 129.604 1319.64 99.6685C1327.73 89.6282 1336 79.1287 1344.21 68.7892C1334.97 113.011 1324.74 154.147 1313.49 191.987ZM1338.75 199.78C1330.67 197.323 1322.58 194.857 1314.39 192.264C1325.78 153.887 1336.13 112.126 1345.47 67.1989C1353.49 57.0978 1361.65 46.682 1369.75 36.4012C1361.7 96.7095 1351.34 151.143 1338.75 199.78ZM1367.97 208.461C1358.62 205.759 1349.19 202.957 1339.67 200.065C1352.36 150.968 1362.78 95.9703 1370.85 35.0058C1377.11 27.0651 1383.27 19.3649 1389.62 11.1874C1391.38 8.92792 1393.11 6.72308 1394.86 4.4986C1390.36 82.0212 1381.31 149.937 1367.97 208.461ZM1683.24 256.045C1694.86 254.789 1705.79 252.898 1716.11 250.436C1701.67 261.015 1684.34 268.829 1664.63 274.329C1671.43 268.834 1677.64 262.752 1683.24 256.045ZM1643.67 258.275C1656.56 258.229 1668.83 257.599 1680.51 256.42C1674.49 263.396 1667.81 269.709 1660.49 275.37C1650.02 278.087 1638.99 280.253 1627.26 281.727C1633.38 274.609 1638.88 266.821 1643.67 258.275ZM1602.37 256.591C1615.95 257.59 1629.12 258.194 1641.68 258.216C1636.69 266.937 1630.95 274.859 1624.58 282.094C1613.06 283.464 1601.06 284.352 1588.4 284.578C1593.7 275.996 1598.4 266.72 1602.37 256.591ZM1559.79 252.076C1573.85 253.949 1587.52 255.434 1600.7 256.44C1596.63 266.672 1591.8 276.026 1586.36 284.671C1574.15 284.844 1561.5 284.575 1548.31 283.74C1552.74 273.944 1556.52 263.326 1559.79 252.076ZM1517.4 245.388C1531.44 247.915 1545.13 250.09 1558.43 251.884C1555.11 263.191 1551.21 273.786 1546.68 283.594C1534.04 282.753 1520.95 281.453 1507.49 279.769C1511.27 268.962 1514.58 257.503 1517.4 245.388ZM1476.41 237.238C1489.96 240.177 1503.21 242.813 1516.17 245.162C1513.32 257.29 1510 268.782 1506.17 279.579C1493.53 277.974 1480.57 276.031 1467.28 273.723C1470.73 262.175 1473.79 250.034 1476.41 237.238ZM1437.62 228.275C1450.41 231.427 1462.94 234.301 1475.28 236.989C1472.64 249.792 1469.55 261.941 1466.08 273.498C1453.84 271.359 1441.39 269 1428.63 266.294C1431.97 254.196 1434.99 241.559 1437.62 228.275ZM1401.65 219.082C1413.5 222.282 1425.06 225.17 1436.57 228.006C1433.92 241.299 1430.88 253.942 1427.53 266.044C1415.96 263.583 1404.25 260.963 1392.29 258.06C1395.69 245.599 1398.84 232.659 1401.65 219.082ZM1368.69 209.75C1379.42 212.851 1390.14 215.946 1400.64 218.794C1397.81 232.376 1394.67 245.353 1391.26 257.826C1380.62 255.227 1369.71 252.323 1358.79 249.404C1362.32 236.69 1365.58 223.378 1368.69 209.75ZM1339.41 201.043C1348.93 203.94 1358.38 206.766 1367.72 209.475C1364.6 223.114 1361.32 236.416 1357.78 249.142C1348.06 246.537 1338.22 243.786 1328.3 240.937C1332.17 228.066 1335.86 214.74 1339.41 201.043ZM1314.11 193.242C1322.32 195.841 1330.4 198.295 1338.49 200.757C1334.93 214.462 1331.22 227.79 1327.35 240.66C1318.74 238.193 1310.2 235.803 1301.43 233.146C1305.78 220.231 1310.02 206.984 1314.11 193.242ZM1292.87 186.361C1299.67 188.581 1306.48 190.824 1313.21 192.964C1309.12 206.713 1304.87 219.96 1300.51 232.876C1293.29 230.671 1285.88 228.242 1278.57 225.936C1283.42 213.119 1288.2 199.999 1292.87 186.361ZM1275.22 180.523C1280.83 182.396 1286.42 184.251 1291.98 186.07C1287.32 199.706 1282.54 212.837 1277.68 225.654C1271.6 223.739 1265.57 221.879 1259.42 219.877C1264.74 207.109 1269.99 193.879 1275.22 180.523ZM1261.82 176.09C1266.04 177.521 1270.16 178.846 1274.35 180.235C1269.11 193.597 1263.86 206.82 1258.53 219.596C1253.7 218.018 1248.82 216.379 1243.96 214.759C1249.93 202.123 1255.9 189.391 1261.82 176.09ZM1258.25 174.908C1259.16 175.219 1260.06 175.508 1260.96 175.806C1255.04 189.106 1249.07 201.835 1243.1 214.465C1239.64 213.304 1236.14 212.095 1232.67 210.919C1235.04 206.368 1237.41 201.503 1239.78 196.913C1245.96 189.522 1252.02 182.411 1258.25 174.908ZM1252.06 172.743C1253.83 173.37 1255.61 174.008 1257.36 174.606C1252.03 181.043 1246.82 187.145 1241.52 193.488C1245.03 186.647 1248.54 179.73 1252.06 172.743ZM1250.09 172.054C1250.46 172.181 1250.83 172.315 1251.21 172.445C1247.14 180.546 1243.06 188.594 1238.99 196.506C1235.37 200.842 1231.79 205.083 1228.18 209.393L1224.69 208.209C1226.97 204.309 1229.25 200.464 1231.54 196.513C1237.65 188.568 1243.91 180.187 1250.09 172.054ZM1246.29 170.721C1247.27 171.064 1248.25 171.415 1249.23 171.751C1244.56 177.888 1239.86 184.152 1235.22 190.21C1238.9 183.823 1242.6 177.284 1246.29 170.721ZM1244 169.916L1244.64 170.139C1242 173.952 1239.39 177.637 1236.77 181.399C1239.18 177.566 1241.58 173.773 1244 169.916ZM827.305 0.00115967C967.837 63.9872 1110.92 123.743 1243.15 169.617C1237.89 178.008 1232.65 186.293 1227.4 194.614C1224.63 198.55 1221.88 202.397 1219.11 206.313C1065.25 153.267 895.436 78.7269 732.485 0.00115967H730.435C893.78 78.9864 1064.13 153.842 1218.52 207.15C1209.87 219.415 1201.22 231.693 1192.7 243.428C1018.92 184.055 823.364 93.4521 641.371 0.000793457H639.482C821.772 93.6711 1017.8 184.59 1192.09 244.25C1186.95 251.311 1181.93 257.935 1176.84 264.814C1172.7 270.002 1168.62 274.974 1164.53 280.006C972.87 215.404 753.157 107.617 556.183 0.00115967H554.368C751.549 107.803 971.697 215.912 1163.85 280.835C1154.09 292.853 1144.38 304.703 1134.76 316.282C926.885 247.532 684.443 121.1 476.576 0.00115967H474.874C682.879 121.249 925.724 248.008 1134.09 317.102C1131.58 320.12 1129.01 323.355 1126.51 326.345C1118.83 334.896 1111.09 343.585 1103.5 351.894C880.903 280.241 617.271 133.556 402.75 0.00115967H401.112C615.692 133.67 879.682 280.693 1102.76 352.725C1091.94 364.563 1081.36 375.841 1070.72 387.25C834.524 313.912 551.185 144.828 334.329 0.00115967H332.767C549.607 144.898 833.263 314.329 1069.93 388.095C1059.15 399.645 1048.4 411.154 1037.85 422.154C788.713 348.799 486.743 154.622 271.664 0.00115967H270.187C485.18 154.639 787.423 349.162 1037.03 422.996C1025.9 434.602 1014.98 445.69 1004.09 456.732C742.383 385.023 423.261 162.412 214.492 0.00115967H213.084C421.699 162.377 741.054 385.356 1003.23 457.614C991.949 469.042 980.861 480.016 969.824 490.871C695.424 422.837 360.665 167.518 162.902 0.00115967H161.579C359.123 167.407 694.073 423.083 968.938 491.737C957.698 502.781 946.494 513.75 935.512 524.188C647.663 462.548 298.761 168.896 116.983 0.00115967H115.717C297.196 168.696 646.23 462.718 934.537 525.098C923.069 535.991 911.766 546.501 900.579 556.745C597.662 504.228 236.668 164.655 76.704 0.00115967H75.4962C235.078 164.345 596.166 504.329 899.535 557.72C887.902 568.361 876.527 578.406 865.191 588.373C544.123 548.174 173.101 151.3 42.1409 0.00115967H40.9909C171.459 150.82 542.51 548.138 864.01 589.416C852.483 599.535 841.118 609.281 829.894 618.717C484.185 595.043 103.904 119.602 13.4237 0.00115967H12.3382C102.073 118.686 482.427 594.798 828.652 619.751C817.318 629.263 806.064 638.586 795.034 647.411C428.607 646.515 55.7691 99.2843 0.41272 14.8805V16.4704C58.3503 104.605 428.908 646.052 793.577 648.549C782.426 657.451 771.355 666.174 760.514 674.385C390.689 700.177 52.8762 138.887 0.41272 47.5328V49.2828C55.1994 144.42 390.996 699.459 758.882 675.662C747.794 684.038 737.007 691.753 726.24 699.426C349.251 754.322 49.3429 180.137 0.41272 80.7352V82.7179C51.7074 186.535 349.782 753.142 724.216 700.898C713.627 708.418 703.268 715.431 692.981 722.288C304.888 808.817 45.4926 224.681 0.41272 114.842V117.151C47.6739 231.717 305.53 806.878 690.327 724.073C680.473 730.605 670.775 736.801 661.196 742.742C257.715 863.266 40.9024 273.572 0.41272 150.534V153.361C42.972 281.715 258.63 860.14 657.378 745.087C648.728 750.398 640.12 755.629 631.696 760.464C209.256 916.912 35.6706 330.692 0.41272 189.436V193.091C37.4732 339.758 210.286 911.055 625.1 764.12C618.382 767.903 611.64 771.738 605.066 775.223C162.996 967.455 29.8045 403.92 0.41272 236.132V241.273C31.1598 413.129 163.246 954.033 589.143 783.299C131.17 1013.32 24.682 514.37 0.41272 306.767V314.39C26.6639 529.079 138.351 1023.55 604.916 776.458C620.183 769.824 635.765 762.42 651.773 753.944C668.475 746.954 685.636 738.558 703.1 729.205C720.466 722.098 738.191 713.539 756.209 703.737C773.827 696.661 791.676 688.192 809.762 678.209C827.637 671.181 845.639 662.762 863.769 652.608C881.909 645.66 900.066 637.231 918.217 626.936C937.111 619.876 955.899 611.095 974.511 600.269C993.382 593.341 1011.99 584.548 1030.27 573.753C1049.39 566.891 1068.1 558.138 1086.28 547.2C1105.66 540.425 1124.46 531.669 1142.54 520.608C1162.2 513.95 1181.07 505.135 1199.02 493.983C1218.99 487.455 1237.89 478.551 1255.71 467.329C1275.98 460.898 1294.95 451.975 1312.62 440.644C1333.38 434.272 1352.55 425.203 1370.16 413.631C1391.43 407.312 1410.78 398.116 1428.3 386.283C1449.86 380.043 1469.25 370.876 1486.52 358.926C1508.39 352.756 1527.85 343.629 1544.84 331.552C1566.97 325.415 1586.58 316.412 1603.24 304.17C1625.67 298.086 1645.39 289.147 1661.73 276.773C1684.52 270.804 1704.26 261.846 1720.29 249.371C1813.36 225.458 1850.26 150.159 1798.37 0H1797.07C1847.61 146.959 1812.69 221.862 1723.11 246.87C1773.79 204.914 1786 126.478 1744.46 0H1743.27C1785.19 128.095 1771.77 206.715 1718.94 247.928C1708.25 250.679 1696.86 252.792 1684.73 254.22C1724.01 205.372 1730.62 123.698 1693.1 0H1691.93C1729.53 124.404 1722.31 206.127 1682.01 254.593C1670.13 255.916 1657.71 256.733 1644.54 256.844C1674.28 202.462 1677.03 119.182 1644.56 0H1643.44C1675.88 119.471 1672.77 202.717 1642.51 256.865C1629.89 256.903 1616.61 256.308 1602.95 255.344C1625.33 196.973 1625.9 113.56 1599.02 0H1597.95C1624.76 113.651 1623.96 196.991 1601.28 255.194C1588.02 254.219 1574.24 252.741 1560.07 250.88C1577.48 189.976 1577.59 107.603 1556.52 0H1555.5C1576.53 107.612 1576.3 189.92 1558.72 250.688C1545.4 248.915 1531.69 246.755 1517.63 244.243C1531.92 182.035 1532.7 101.533 1517.33 0.000427246H1516.34C1531.67 101.498 1530.81 181.925 1516.4 244.018C1503.42 241.684 1490.16 239.064 1476.61 236.138C1489.27 173.625 1491.5 95.552 1481.57 0.000427246H1480.61C1490.5 95.4879 1488.21 173.479 1475.48 235.886C1463.12 233.211 1450.6 230.354 1437.8 227.213C1449.98 165.16 1454.19 89.8323 1449.37 0.000427246H1448.43C1453.21 89.7505 1448.97 164.993 1436.75 226.944C1425.25 224.119 1413.7 221.241 1401.87 218.055C1414.42 157.008 1420.9 84.4875 1420.82 0.000793457H1419.89C1419.95 84.394 1413.46 156.833 1400.87 217.783C1390.39 214.947 1379.65 211.824 1368.94 208.735C1382.34 149.807 1391.39 81.3761 1395.85 3.23145L1398.37 0.000793457H1397.27L1395.93 1.71381L1396.03 0.000793457H1395.12L1394.94 2.97974C1392.94 5.54126 1390.94 8.08429 1388.91 10.6847C1382.87 18.4591 1377.02 25.7767 1371.07 33.3246C1372.51 22.368 1374.05 11.6817 1375.33 0.327942L1375.56 0.000427246H1374.46L1374.45 0.0640259C1367.28 10.2042 1360.1 20.4111 1352.96 30.4396C1354.8 20.6458 1356.4 10.1417 1358.13 0.000427246H1356.65C1350.49 9.82794 1344.27 19.9271 1338.19 29.3784C1340.6 19.6 1343.06 10.0128 1345.41 0.000427246H1343.68C1338.75 8.67993 1333.88 17.0677 1328.97 25.6713C1331.51 17.3854 1333.96 8.58081 1336.46 0.000427246H1334.85C1331.12 7.60382 1327.39 15.2029 1323.67 22.6286C1326.44 15.1152 1329.21 7.63055 1331.97 0.000427246H1330.78C1321.68 21.4314 1312.56 42.2208 1303.45 62.4542C1291.74 85.152 1280.06 107.372 1268.44 128.728C1260.14 142.399 1251.9 155.642 1243.67 168.779C1112 123.163 969.489 63.712 829.426 0.000427246H827.305V0.00115967Z" fill="white"/>
</mask>
<g mask="url(#mask0_3618_209)">
<path d="M1850.26 1023.55H0.41272V0.00109863H1850.26V1023.55Z" fill="#C8F31D"/>
</g>
</g>
</svg>
