<svg width="591" height="642" viewBox="0 0 591 642" fill="none" xmlns="http://www.w3.org/2000/svg">
<path opacity="0.2" d="M298.037 35.2092L356.519 1.44346C358.066 0.550247 359.972 0.550236 361.519 1.44343L559.292 115.629" stroke="#131313" stroke-width="1.34633" stroke-miterlimit="10"/>
<path opacity="0.04" d="M574.804 532.575C576.351 531.682 577.304 530.031 577.304 528.245V435.931C577.304 434.144 576.351 432.494 574.804 431.601L494.857 385.443C493.31 384.55 491.404 384.55 489.857 385.443L409.91 431.601C408.363 432.494 407.41 434.144 407.41 435.931V528.245C407.41 530.031 408.363 531.682 409.91 532.575L489.857 578.732C491.404 579.625 493.31 579.625 494.857 578.732L574.804 532.575Z" fill="#F7E0C7"/>
<path opacity="0.1" d="M582.217 228.159C583.764 227.266 584.717 225.615 584.717 223.829V165.126C584.717 163.34 583.764 161.689 582.217 160.796L531.378 131.443C529.831 130.55 527.925 130.55 526.378 131.443L475.537 160.796C473.99 161.689 473.037 163.34 473.037 165.126V223.829C473.037 225.615 473.99 227.266 475.537 228.159L526.378 257.51C527.925 258.403 529.831 258.403 531.378 257.51L582.217 228.159Z" fill="#FBD679"/>
<path d="M126.766 194.169C126.766 192.383 127.719 190.732 129.266 189.839L336.062 70.4434C337.609 69.5502 339.515 69.5502 341.062 70.4434L547.864 189.839C549.411 190.732 550.364 192.383 550.364 194.169V432.96C550.364 434.746 549.411 436.397 547.864 437.29L341.062 556.684C339.515 557.577 337.609 557.577 336.062 556.684L129.266 437.29C127.719 436.397 126.766 434.746 126.766 432.96V194.169Z" stroke="url(#paint0_linear_3945_4)" stroke-width="3" stroke-miterlimit="10"/>
<path opacity="0.2" d="M177.665 641L3.50004 540.448C1.95301 539.554 1 537.904 1 536.117V464" stroke="#131313" stroke-width="0.916634" stroke-miterlimit="10"/>
<path opacity="0.3" d="M465.524 601.948C467.078 601.056 468.037 599.402 468.037 597.61V579.904C468.037 578.112 467.078 576.457 465.523 575.565L450.023 566.683C448.483 565.8 446.59 565.8 445.05 566.683L429.551 575.565C427.996 576.457 427.037 578.112 427.037 579.904V597.61C427.037 599.402 427.996 601.056 429.551 601.948L445.05 610.832C446.59 611.715 448.483 611.715 450.023 610.833L465.524 601.948Z" fill="#131313"/>
<path opacity="0.1" d="M276.536 488.07C278.083 487.177 279.036 485.526 279.036 483.74L279.037 393.095C279.037 391.309 278.084 389.658 276.537 388.765L198.037 343.443C196.49 342.55 194.584 342.55 193.037 343.443L114.537 388.765C112.99 389.658 112.037 391.309 112.037 393.095V483.74C112.037 485.526 112.99 487.177 114.537 488.07L193.037 533.391C194.584 534.284 196.49 534.284 198.037 533.391L276.536 488.07Z" fill="#FBD679"/>
<path d="M177.5 345.37C179.047 344.477 180 342.826 180 341.04V286.193C180 284.406 179.047 282.755 177.5 281.862L129.998 254.443C128.451 253.55 126.546 253.55 124.999 254.443L77.5003 281.862C75.9531 282.755 75 284.406 75 286.192V341.04C75 342.826 75.9529 344.477 77.4999 345.37L124.998 372.796C126.545 373.689 128.451 373.689 129.998 372.796L177.5 345.37Z" fill="url(#paint1_linear_3945_4)"/>
<path opacity="0.04" d="M225.494 195.193C227.044 194.301 228 192.648 228 190.859V124.142C228 122.353 227.044 120.701 225.494 119.809L167.494 86.4349C165.95 85.5466 164.05 85.5466 162.506 86.4349L104.506 119.809C102.956 120.701 102 122.353 102 124.142V190.859C102 192.648 102.956 194.301 104.506 195.193L162.506 228.565C164.05 229.453 165.95 229.453 167.494 228.565L225.494 195.193Z" fill="#F7E0C7"/>
<path opacity="0.2" d="M548.037 501.117V596.055" stroke="#131313" stroke-width="1.34633" stroke-miterlimit="10" stroke-linecap="round" stroke-linejoin="round"/>
<path opacity="0.2" d="M26.0371 270V364.938" stroke="#131313" stroke-width="1.34633" stroke-miterlimit="10" stroke-linecap="round" stroke-linejoin="round"/>
<g filter="url(#filter0_d_3945_4)">
<path d="M528.354 425.837C529.901 424.944 530.854 423.293 530.854 421.507V205.684C530.854 203.898 529.901 202.247 528.354 201.354L341.443 93.4433C339.896 92.5502 337.99 92.5502 336.443 93.4434L149.537 201.354C147.99 202.247 147.037 203.898 147.037 205.684V421.507C147.037 423.293 147.99 424.944 149.537 425.837L336.443 533.746C337.99 534.639 339.896 534.639 341.443 533.746L528.354 425.837Z" fill="url(#paint2_linear_3945_4)"/>
</g>
<defs>
<filter id="filter0_d_3945_4" x="87.0371" y="32.7734" width="503.817" height="561.641" filterUnits="userSpaceOnUse" color-interpolation-filters="sRGB">
<feFlood flood-opacity="0" result="BackgroundImageFix"/>
<feColorMatrix in="SourceAlpha" type="matrix" values="0 0 0 0 0 0 0 0 0 0 0 0 0 0 0 0 0 0 127 0" result="hardAlpha"/>
<feOffset/>
<feGaussianBlur stdDeviation="30"/>
<feColorMatrix type="matrix" values="0 0 0 0 0 0 0 0 0 0 0 0 0 0 0 0 0 0 0.05 0"/>
<feBlend mode="normal" in2="BackgroundImageFix" result="effect1_dropShadow_3945_4"/>
<feBlend mode="normal" in="SourceGraphic" in2="effect1_dropShadow_3945_4" result="shape"/>
</filter>
<linearGradient id="paint0_linear_3945_4" x1="338.565" y1="69" x2="338.565" y2="558.127" gradientUnits="userSpaceOnUse">
<stop stop-color="#C8F31D"/>
<stop offset="1" stop-color="#C8F31D" stop-opacity="0"/>
</linearGradient>
<linearGradient id="paint1_linear_3945_4" x1="127.5" y1="253" x2="127.5" y2="374.239" gradientUnits="userSpaceOnUse">
<stop stop-color="#FBD679"/>
<stop offset="1" stop-color="#FBD679" stop-opacity="0"/>
</linearGradient>
<linearGradient id="paint2_linear_3945_4" x1="338.945" y1="92" x2="338.945" y2="535.189" gradientUnits="userSpaceOnUse">
<stop stop-color="#C8F31D"/>
<stop offset="1" stop-color="#C8F31D" stop-opacity="0"/>
</linearGradient>
</defs>
</svg>
