<svg width="65" height="65" viewBox="0 0 65 65" fill="none" xmlns="http://www.w3.org/2000/svg">
<g id="027-history">
<g id="History">
<path id="Vector" d="M54.7164 15.9052C54.0434 15.006 52.7719 14.8246 51.8727 15.4949C50.9749 16.1679 50.7907 17.4408 51.4624 18.3387C54.5377 22.4513 56.1654 27.3479 56.1654 32.5005C56.1654 45.5506 45.5487 56.1673 32.4986 56.1673C19.4485 56.1673 8.83322 45.5506 8.83322 32.5005C8.83322 19.4504 19.4499 8.83375 32.5 8.83375C35.1379 8.83375 37.7135 9.28334 40.1808 10.131L36.3093 11.5665C35.2584 11.9565 34.7208 13.1251 35.1108 14.1773C35.4142 14.9966 36.1901 15.503 37.0148 15.503C37.2491 15.503 37.4887 15.4624 37.7203 15.3757L45.7925 12.3844C46.8433 11.9944 47.3809 10.8257 46.9909 9.7749L43.9996 1.70136C43.6109 0.649172 42.4436 0.112922 41.3887 0.501568C40.3379 0.891568 39.8003 2.06021 40.1903 3.1124L41.3508 6.24594C38.5044 5.28448 35.536 4.77126 32.5 4.77126C17.2101 4.77126 4.77072 17.2106 4.77072 32.5005C4.77072 47.7904 17.2101 60.2298 32.5 60.2298C47.7899 60.2298 60.2293 47.7904 60.2293 32.5005C60.2293 26.4636 58.3226 20.7247 54.7164 15.9052ZM32.4431 32.5439L24.1285 25.773C23.2592 25.0648 21.9795 25.1961 21.2712 26.0655C20.563 26.9363 20.6944 28.2146 21.5637 28.9228L31.2162 36.7851C31.5913 37.0884 32.0463 37.2401 32.5 37.2401C32.9821 37.2401 33.4642 37.0681 33.8487 36.7282L48.7933 23.4669C49.6329 22.7221 49.7101 21.4383 48.9653 20.5988C48.2192 19.7592 46.9368 19.682 46.0985 20.4281L32.4431 32.5439Z" fill="#C8F31D"/>
</g>
</g>
</svg>
