<svg width="65" height="65" viewBox="0 0 65 65" fill="none" xmlns="http://www.w3.org/2000/svg">
<g id="028-home">
<g id="Home">
<path id="Vector" d="M55.3312 15.4116L37.0161 3.66016C34.4825 2.03516 30.5161 2.03516 27.9839 3.66016L9.6701 15.413C7.18791 17.0055 5.31645 20.4302 5.31645 23.3795V56.409C5.31645 59.7687 8.05051 62.5028 11.4102 62.5028H53.5898C56.9495 62.5028 59.6835 59.7687 59.6835 56.409V23.3795C59.6835 20.4288 57.8121 17.0055 55.3312 15.4116ZM55.621 56.4076C55.621 57.5275 54.7097 58.4389 53.5898 58.4389H11.4102C10.2903 58.4389 9.37895 57.5275 9.37895 56.4076V23.3795C9.37895 21.8344 10.5638 19.6664 11.8638 18.8322L30.1776 7.07943C30.7856 6.68943 31.6428 6.49443 32.5 6.49443C33.3572 6.49443 34.2144 6.68943 34.821 7.07943L53.1361 18.8309C54.4375 19.6651 55.621 21.8331 55.621 23.3782V56.4076ZM32.5 30.0095C24.8733 30.0095 18.6699 36.2143 18.6699 43.8396V53.0385C18.6699 54.1597 19.5785 55.0697 20.7011 55.0697C21.8237 55.0697 22.7324 54.1597 22.7324 53.0385V43.8396C22.7324 38.4528 27.1145 34.0707 32.5 34.0707C37.8855 34.0707 42.2676 38.4528 42.2676 43.8396V53.0385C42.2676 54.1597 43.1776 55.0697 44.2989 55.0697C45.4201 55.0697 46.3301 54.1597 46.3301 53.0385V43.8396C46.3301 36.213 40.1267 30.0095 32.5 30.0095Z" fill="#C8F31D"/>
</g>
</g>
</svg>
