<svg width="89" height="47" viewBox="0 0 89 47" fill="none" xmlns="http://www.w3.org/2000/svg">
<path opacity="0.32" d="M32.8269 0.705734L42.8242 18.245C43.3891 19.2366 44.3091 19.9768 45.3985 20.3164C46.488 20.6561 47.6657 20.5697 48.6939 20.0749L88.4086 0.96288L49.6281 21.9057C48.6244 22.4479 47.8637 23.3507 47.4994 24.4319C47.1352 25.5131 47.1947 26.6921 47.6657 27.7312L56.0008 46.1196L46.0035 28.5803C45.4386 27.5891 44.5187 26.8491 43.4295 26.5096C42.3404 26.1701 41.163 26.2563 40.1349 26.7508L0.419139 45.8625L39.1996 24.9197C40.2033 24.3774 40.9641 23.4746 41.3283 22.3935C41.6925 21.3123 41.633 20.1332 41.162 19.0941L32.8269 0.705734Z" fill="#C8F31D"/>
</svg>
