<svg width="35" height="35" viewBox="0 0 35 35" fill="none" xmlns="http://www.w3.org/2000/svg">
<g clip-path="url(#clip0_3629_1419)">
<path d="M25.4376 4.50157L26.3263 3.33946C26.7851 2.73972 27.643 2.62516 28.2428 3.08392C28.8425 3.54267 28.9571 4.40063 28.4983 5.00038L27.6097 6.16249C27.3405 6.51443 26.9341 6.69949 26.5229 6.69949C26.2331 6.69949 25.941 6.60763 25.6932 6.41804C25.0934 5.95955 24.9792 5.10132 25.4376 4.50157ZM33.4012 21.6098L32.0341 21.1313C31.3214 20.8819 30.5414 21.2576 30.292 21.9703C30.0426 22.683 30.418 23.463 31.1307 23.7124L32.4979 24.1909C32.6474 24.2433 32.7996 24.2681 32.9494 24.2681C33.5142 24.2681 34.0429 23.9154 34.24 23.3522C34.4894 22.6395 34.1139 21.8592 33.4012 21.6098ZM7.66421 6.16249C7.93338 6.51443 8.34006 6.69922 8.75129 6.69922C9.04101 6.69922 9.33287 6.60763 9.58068 6.41804C10.1804 5.95955 10.295 5.10132 9.83622 4.50157L8.94755 3.33946C8.48906 2.73972 7.63083 2.62543 7.03109 3.08392C6.43134 3.54267 6.31705 4.40063 6.77554 5.00038L7.66421 6.16249ZM3.10336 20.7895L1.73617 21.268C1.02347 21.5174 0.648029 22.2977 0.897434 23.0101C1.0945 23.5736 1.62295 23.926 2.18772 23.926C2.33752 23.926 2.48999 23.9012 2.63953 23.8489L4.00672 23.3704C4.71942 23.121 5.09486 22.341 4.84545 21.6283C4.59605 20.9158 3.81633 20.5401 3.10336 20.7895ZM17.5686 30.8301C16.8137 30.8301 16.2014 31.4421 16.2014 32.1973V33.6328C16.2014 34.388 16.8137 35 17.5686 35C18.3237 35 18.9358 34.388 18.9358 33.6328V32.1973C18.9358 31.4421 18.3237 30.8301 17.5686 30.8301ZM29.0636 27.3969L27.6147 23.0806C27.3744 22.3647 26.599 21.9791 25.8836 22.2195C25.1679 22.4598 24.7824 23.2347 25.0224 23.9506L26.4684 28.2586C26.6569 28.8498 26.2582 29.1953 26.1311 29.2872C25.9706 29.4036 25.545 29.6362 25.0606 29.2832L19.6928 25.3934C18.4095 24.4577 16.6847 24.4577 15.3963 25.3971L10.0301 29.3462C9.5489 29.6971 9.12352 29.4645 8.96304 29.3481C8.83567 29.2557 8.43512 28.9085 8.62818 28.3117L10.6792 21.941C11.1679 20.4317 10.636 18.7903 9.35771 17.8584L4.00592 13.9408C3.52126 13.5875 3.61071 13.1151 3.6716 12.9282C3.73248 12.7407 3.93969 12.3047 4.54077 12.3047H11.1583C12.738 12.3047 14.1322 11.2766 14.6286 9.74415L16.6794 3.36937C16.865 2.79633 17.348 2.73438 17.5472 2.73438C17.7462 2.73438 18.2295 2.79633 18.4143 3.36697L20.4666 9.74655C20.962 11.2766 22.3564 12.3047 23.9359 12.3047H30.5966C31.1977 12.3047 31.4049 12.7407 31.4658 12.9285C31.5267 13.1151 31.6162 13.5878 31.1299 13.9421L27.494 16.6014C26.8847 17.0474 26.752 17.9027 27.1976 18.5123C27.6433 19.1217 28.4989 19.2541 29.1082 18.8084L32.7422 16.1504C34.0427 15.2022 34.5623 13.6051 34.0656 12.0812C33.5687 10.5559 32.2071 9.57031 30.5966 9.57031H23.9359C23.5519 9.57031 23.1949 9.29634 23.0688 8.90675L21.0165 2.52716C20.5192 0.992012 19.1577 0 17.5472 0C15.9368 0 14.5749 0.992012 14.0769 2.52956L12.0261 8.90434C11.8993 9.29634 11.5423 9.57031 11.1583 9.57031H4.54077C2.93032 9.57031 1.56848 10.5559 1.07154 12.0812C0.57513 13.6051 1.0945 15.2025 2.3928 16.1488L7.74459 20.0664C8.06769 20.3017 8.20147 20.7166 8.07704 21.1009L6.02599 27.4717C5.52825 29.0095 6.05136 30.6151 7.35873 31.5625C8.00761 32.0325 8.75048 32.2678 9.49389 32.2678C10.2424 32.2675 10.9917 32.0293 11.6459 31.5521L17.0121 27.603C17.332 27.3697 17.7619 27.3697 18.085 27.6052L23.4531 31.495C24.7525 32.4421 26.4331 32.4448 27.7354 31.5017C29.0428 30.5545 29.5659 28.9486 29.0679 27.411C29.0666 27.4062 29.0652 27.4017 29.0636 27.3969Z" fill="white"/>
</g>
<defs>
<clipPath id="clip0_3629_1419">
<rect width="35" height="35" fill="white"/>
</clipPath>
</defs>
</svg>
