<svg width="45" height="40" viewBox="0 0 45 40" fill="none" xmlns="http://www.w3.org/2000/svg">
<path d="M44.3772 27.2348L30.941 2.59138C30.4981 1.80663 29.8563 1.15356 29.0809 0.698453C28.3054 0.243346 27.4239 0.00240405 26.5258 8.34877e-05H18.7169C18.4135 -0.00290238 18.1146 0.07425 17.8502 0.223811C17.5858 0.373373 17.3652 0.590091 17.2105 0.852254C17.0585 1.11663 16.9785 1.41654 16.9785 1.72182C16.9785 2.0271 17.0585 2.327 17.2105 2.59138L37.5379 39.113C37.6883 39.3816 37.907 39.6053 38.1716 39.7612C38.4363 39.917 38.7375 39.9994 39.0443 39.9999C39.354 40.0025 39.6588 39.9216 39.9268 39.7656C40.1948 39.6096 40.4162 39.3842 40.568 39.113L44.3945 32.1565C44.795 31.398 45.003 30.552 45 29.6935C44.997 28.8349 44.783 27.9904 44.3772 27.2348ZM41.3471 30.5217L39.027 34.7826L21.6604 3.47833H26.5258C26.806 3.47909 27.0812 3.55328 27.3241 3.69359C27.5671 3.83389 27.7693 4.03545 27.911 4.27833L41.3471 28.9217C41.4836 29.1661 41.5553 29.4415 41.5553 29.7217C41.5553 30.0019 41.4836 30.2774 41.3471 30.5217ZM32.0318 36.5217H8.65703C8.38305 36.5216 8.11364 36.4512 7.87428 36.3173C7.63492 36.1834 7.43353 35.9904 7.28918 35.7565L4.74392 31.3043H27.1145C27.5737 31.3043 28.0141 31.1211 28.3388 30.7949C28.6635 30.4688 28.8459 30.0264 28.8459 29.5652C28.8459 29.1039 28.6635 28.6616 28.3388 28.3354C28.0141 28.0093 27.5737 27.8261 27.1145 27.8261H1.73117C1.42555 27.8261 1.1254 27.9074 0.861199 28.0617C0.596995 28.216 0.378155 28.4378 0.226908 28.7045C0.0756615 28.9712 -0.00260286 29.2734 6.60444e-05 29.5804C0.00273495 29.8873 0.0862421 30.1881 0.242104 30.4521L4.34568 37.5304C4.80207 38.2707 5.43566 38.8845 6.18871 39.3158C6.94176 39.7472 7.79032 39.9824 8.65703 39.9999H32.0318C32.4911 39.9999 32.9315 39.8167 33.2562 39.4906C33.5809 39.1644 33.7633 38.7221 33.7633 38.2608C33.7633 37.7996 33.5809 37.3572 33.2562 37.0311C32.9315 36.7049 32.4911 36.5217 32.0318 36.5217ZM5.1941 25.513H24.0671C24.3705 25.516 24.6694 25.4389 24.9338 25.2893C25.1981 25.1397 25.4187 24.923 25.5735 24.6609C25.7254 24.3965 25.8054 24.0966 25.8054 23.7913C25.8054 23.486 25.7254 23.1861 25.5735 22.9217L16.2582 6.45223C16.1071 6.18939 15.8902 5.97083 15.6289 5.81828C15.3677 5.66573 15.0713 5.5845 14.7691 5.58267C14.467 5.5845 14.1705 5.66573 13.9093 5.81828C13.6481 5.97083 13.4311 6.18939 13.2801 6.45223L3.7743 22.9043C3.62233 23.1687 3.54232 23.4686 3.54232 23.7739C3.54232 24.0792 3.62233 24.3791 3.7743 24.6435C3.91929 24.8964 4.12534 25.1087 4.37346 25.2607C4.62159 25.4126 4.9038 25.4994 5.1941 25.513ZM14.6825 10.8174L21.037 22.0348H8.27611L14.6825 10.8174Z" fill="#FBD679"/>
</svg>
