<svg width="1920" height="892" viewBox="0 0 1920 892" fill="none" xmlns="http://www.w3.org/2000/svg">
<g opacity="0.1" clip-path="url(#clip0_3655_550)">
<mask id="mask0_3655_550" style="mask-type:luminance" maskUnits="userSpaceOnUse" x="0" y="-1028" width="1920" height="1920">
<path d="M1920 -1028H0V892H1920V-1028Z" fill="white"/>
</mask>
<g mask="url(#mask0_3655_550)">
<path d="M850.621 1995.61H849.085C849.085 1864.4 885.329 1749.68 920.379 1638.74C971.199 1477.88 1015.09 1338.96 933.564 1194.05C855.349 1055.02 669.454 927.29 348.544 792.078C-12.635 639.9 -552.884 476.727 -1303.07 293.235L-1302.71 291.742C-552.44 475.255 -12.114 638.452 349.141 790.663C517.263 861.498 646.713 929.622 744.887 998.925C834.926 1062.49 897.081 1126.07 934.903 1193.3C972.313 1259.79 985.955 1329.12 977.833 1411.46C970.588 1484.92 946.91 1559.86 921.844 1639.21C886.828 1750.04 850.621 1864.64 850.621 1995.61Z" fill="white"/>
<path d="M1026.9 1799.21H1025.36C1025.36 1682.77 1048.16 1577.1 1070.2 1474.91C1120.6 1241.32 1164.12 1039.58 898.973 824.93C758.718 711.387 540.327 600.969 231.32 487.367C-106.08 363.327 -550.322 235.584 -1126.8 96.8381L-1126.44 95.3438C-549.905 234.103 -105.606 361.864 231.849 485.925C541.017 599.585 759.55 710.085 899.939 823.735C1165.82 1038.98 1122.2 1241.14 1071.7 1475.23C1049.68 1577.35 1026.9 1682.93 1026.9 1799.21Z" fill="white"/>
<path d="M1203.18 1602.83H1201.64C1201.64 1504.95 1213.64 1412.96 1225.25 1323.99C1258.32 1070.4 1286.89 851.395 1021.34 626.291C880.649 507.028 666.102 393.887 365.441 280.402C36.2279 156.141 -394.224 31.8591 -950.51 -99.5439L-950.158 -101.039C-669.695 -34.7899 -415.956 31.1314 -195.987 94.8922C16.4853 156.482 205.56 218.412 365.983 278.964C666.811 392.512 881.505 505.74 1022.33 625.118C1086.58 679.577 1135.27 734.832 1171.19 794.038C1203.55 847.389 1224.99 903.207 1236.72 964.68C1258.66 1079.7 1243.17 1198.46 1226.77 1324.19C1215.17 1413.11 1203.18 1505.05 1203.18 1602.83Z" fill="white"/>
<path d="M1379.46 1406.44H1377.92C1377.92 1332.78 1382.36 1261.27 1386.65 1192.12C1403.89 914.466 1418.77 674.672 1152.18 435.378C1010.64 308.328 799.136 190.846 505.592 76.2172C183.014 -49.7486 -235.62 -171.481 -774.229 -295.937L-773.883 -297.434C-502.17 -234.649 -255.796 -171.086 -41.6069 -108.509C164.88 -48.1829 349.173 13.4861 506.151 74.7859C799.869 189.482 1011.52 307.058 1153.21 434.234C1217.65 492.079 1267.3 551.301 1305.01 615.284C1338.93 672.85 1362.56 733.407 1377.26 800.413C1404.73 925.669 1396.7 1055.14 1388.19 1192.22C1383.9 1261.35 1379.46 1332.83 1379.46 1406.44Z" fill="white"/>
<path d="M1555.74 1210.03H1554.2C1554.2 1169.7 1554.82 1129.43 1555.41 1090.48C1559.9 795.417 1564.14 516.719 1296.08 257.208C999.264 -30.1341 397.425 -268.309 -597.946 -492.341L-597.608 -493.84C-332.494 -434.169 -91.5359 -372.368 118.575 -310.151C320.602 -250.328 501.447 -187.943 656.085 -124.728C944.556 -6.80289 1154.25 117.769 1297.15 256.104C1361.88 318.771 1412.42 383.475 1451.67 453.914C1486.91 517.154 1512.36 583.971 1529.47 658.179C1561.42 796.719 1559.24 939.421 1556.94 1090.5C1556.35 1129.44 1555.74 1169.71 1555.74 1210.03Z" fill="white"/>
<path d="M1732.02 1013.64H1730.48C1730.48 704.122 1730.48 384.071 1450.29 90.3727C1145.4 -229.212 550.576 -476.778 -421.66 -688.733L-421.334 -690.234C-162.444 -633.794 73.7336 -573.513 280.639 -511.062C478.982 -451.195 657.3 -387.256 810.638 -321.019C956.479 -258.021 1085.07 -190.624 1192.84 -120.699C1294.21 -54.9234 1381.21 15.7349 1451.4 89.3122C1517.25 158.335 1569.28 230.003 1610.45 308.411C1647.47 378.906 1674.84 453.332 1694.12 535.94C1729.17 686.121 1732.02 841.133 1732.02 1013.64Z" fill="white"/>
<path d="M1939.2 802.909H1937.64C1937.64 509.973 1895.27 169.57 1581.04 -134.08C1247.97 -455.941 650.541 -701.614 -245.375 -885.138L-245.055 -886.629C-5.9994 -837.659 214.918 -783.424 411.563 -725.429C600.09 -669.829 772.213 -609.028 923.151 -544.714C1067.03 -483.407 1196.32 -416.918 1307.44 -347.09C1412.55 -281.034 1504.97 -209.732 1582.14 -135.163C1721.89 -0.115845 1817.23 149.131 1873.59 321.108C1898.02 395.64 1915.08 473.828 1925.76 560.143C1934.8 633.294 1939.2 712.704 1939.2 802.909Z" fill="white"/>
<path d="M2084.58 620.842H2083.04C2083.04 237.253 1944.7 -78.9285 1660.12 -345.773C1308.57 -675.414 726.782 -922.956 -69.0885 -1081.52L-68.7881 -1083.03C143.671 -1040.7 343.08 -991.592 523.901 -937.07C697.278 -884.792 858.336 -826.096 1002.6 -762.615C1140.47 -701.949 1266.81 -635.238 1378.1 -564.335C1484.04 -496.845 1579.28 -423.687 1661.17 -346.895C1738.75 -274.152 1806.52 -196.12 1862.59 -114.965C1915.38 -38.5604 1959.29 42.7699 1993.11 126.766C2024.69 205.221 2048.38 288.268 2063.51 373.601C2077.49 452.454 2084.58 535.637 2084.58 620.842Z" fill="white"/>
<path d="M2260.86 424.46H2259.32C2259.32 72.0642 2083.78 -278.918 1765.04 -563.833C1385.13 -903.419 827.358 -1143.67 107.2 -1277.9L107.482 -1279.41C478.999 -1210.16 812.455 -1110.57 1098.59 -983.397C1361.72 -866.446 1586.29 -725.67 1766.06 -564.978C1931.78 -416.845 2058.47 -252.933 2142.6 -77.7946C2182.14 4.505 2212.2 89.4928 2231.97 174.808C2251.14 257.521 2260.86 341.516 2260.86 424.46Z" fill="white"/>
<path d="M2437.13 228.057H2435.6C2435.6 -106.18 2229.43 -474.301 1869.95 -781.917C1588.73 -1022.57 1085.22 -1338.03 283.492 -1474.31L283.749 -1475.82C610.527 -1420.28 916.97 -1328.89 1194.57 -1204.2C1324.57 -1145.81 1448.65 -1079.78 1563.36 -1007.96C1674.14 -938.601 1777.63 -862.942 1870.95 -783.084C1961.64 -705.48 2043.66 -623.126 2114.73 -538.31C2184.37 -455.199 2244.05 -369.09 2292.09 -282.373C2339.65 -196.544 2376.1 -109.618 2400.44 -24.005C2424.79 61.6649 2437.13 146.471 2437.13 228.057Z" fill="white"/>
<path d="M2613.41 31.6631H2611.88C2611.88 -286.36 2373.74 -672.025 1974.87 -999.991C1554.19 -1345.88 1001.96 -1590.34 459.787 -1670.7L460.012 -1672.21C602.833 -1651.05 747.097 -1618.7 888.792 -1576.07C1024.72 -1535.17 1159.89 -1484.35 1290.55 -1425C1416.67 -1367.71 1539.62 -1302.03 1655.99 -1229.77C1769.33 -1159.41 1876.94 -1082.5 1975.84 -1001.18C2073.27 -921.07 2162.41 -836.554 2240.8 -749.975C2319.04 -663.565 2386.59 -575.065 2441.58 -486.933C2497.21 -397.794 2540.04 -308.927 2568.9 -222.804C2598.44 -134.635 2613.41 -49.0193 2613.41 31.6631Z" fill="white"/>
</g>
<path d="M138.508 817.445C140.05 816.551 141 814.902 141 813.119V778.881C141 777.098 140.05 775.449 138.508 774.555L109.007 757.454C107.457 756.555 105.543 756.555 103.992 757.454L74.4923 774.555C72.9497 775.449 72 777.098 72 778.881V813.119C72 814.902 72.9497 816.551 74.4923 817.445L103.992 834.546C105.543 835.445 107.457 835.445 109.007 834.546L138.508 817.445Z" fill="#F7E0C7"/>
</g>
<defs>
<clipPath id="clip0_3655_550">
<rect width="1920" height="892" fill="white"/>
</clipPath>
</defs>
</svg>
