<svg width="50" height="50" viewBox="0 0 50 50" fill="none" xmlns="http://www.w3.org/2000/svg">
<rect x="0.5" y="0.5" width="49" height="49" rx="9.5" stroke="#C8F31D"/>
<path d="M24.5625 35.0312C22.5312 32.4922 18 26.4375 18 23C18 18.8594 21.3203 15.5 25.5 15.5C29.6406 15.5 33 18.8594 33 23C33 26.4375 28.4297 32.4922 26.3984 35.0312C25.9297 35.6172 25.0312 35.6172 24.5625 35.0312ZM25.5 25.5C26.8672 25.5 28 24.4062 28 23C28 21.6328 26.8672 20.5 25.5 20.5C24.0938 20.5 23 21.6328 23 23C23 24.4062 24.0938 25.5 25.5 25.5Z" fill="#C8F31D"/>
</svg>
