<svg width="57" height="57" viewBox="0 0 57 57" fill="none" xmlns="http://www.w3.org/2000/svg">
<path d="M28.5 26.7188C30.9661 26.7188 33.3768 25.9875 35.4273 24.6174C37.4777 23.2473 39.0759 21.3 40.0196 19.0216C40.9634 16.7432 41.2103 14.2362 40.7292 11.8175C40.2481 9.39877 39.0605 7.17705 37.3167 5.43327C35.573 3.68948 33.3512 2.50195 30.9325 2.02084C28.5138 1.53973 26.0068 1.78665 23.7284 2.73038C21.45 3.67411 19.5027 5.27226 18.1326 7.32274C16.7625 9.37321 16.0312 11.7839 16.0312 14.25C16.035 17.5558 17.3499 20.725 19.6874 23.0626C22.025 25.4001 25.1942 26.715 28.5 26.7188ZM28.5 5.34376C30.2615 5.34376 31.9834 5.8661 33.448 6.84473C34.9127 7.82336 36.0542 9.21433 36.7283 10.8417C37.4024 12.4691 37.5788 14.2599 37.2351 15.9875C36.8915 17.7152 36.0432 19.3021 34.7977 20.5477C33.5521 21.7932 31.9652 22.6415 30.2375 22.9851C28.5099 23.3288 26.7191 23.1524 25.0917 22.4783C23.4643 21.8042 22.0734 20.6627 21.0947 19.1981C20.1161 17.7334 19.5938 16.0115 19.5938 14.25C19.5966 11.8888 20.5358 9.62509 22.2055 7.95546C23.8751 6.28583 26.1388 5.34658 28.5 5.34376ZM37.3528 30.2813H19.6472C15.8551 30.286 12.2197 31.7944 9.53834 34.4758C6.85694 37.1572 5.34846 40.7926 5.34375 44.5847V53.4375C5.34375 53.9099 5.53142 54.363 5.86547 54.697C6.19952 55.0311 6.65258 55.2188 7.125 55.2188H49.875C50.3474 55.2188 50.8005 55.0311 51.1345 54.697C51.4686 54.363 51.6562 53.9099 51.6562 53.4375V44.5847C51.6515 40.7926 50.1431 37.1572 47.4617 34.4758C44.7803 31.7944 41.1449 30.286 37.3528 30.2813ZM48.0938 51.6563H8.90625V44.5847C8.90955 41.737 10.0422 39.007 12.0558 36.9934C14.0694 34.9797 16.7995 33.8471 19.6472 33.8438H37.3528C40.2005 33.8471 42.9306 34.9797 44.9442 36.9934C46.9578 39.007 48.0905 41.737 48.0938 44.5847V51.6563Z" fill="#131313"/>
</svg>
