<svg width="50" height="50" viewBox="0 0 50 50" fill="none" xmlns="http://www.w3.org/2000/svg">
<rect x="0.5" y="0.5" width="49" height="49" rx="9.5" stroke="#C8F31D"/>
<path d="M34.9609 30.6172L34.0234 34.5625C33.9062 35.1484 33.4375 35.5391 32.8516 35.5391C23.0078 35.5 15 27.4922 15 17.6484C15 17.0625 15.3516 16.5938 15.9375 16.4766L19.8828 15.5391C20.4297 15.4219 21.0156 15.7344 21.25 16.2422L23.0859 20.5C23.2812 21.0078 23.1641 21.5938 22.7344 21.9062L20.625 23.625C21.9531 26.3203 24.1406 28.5078 26.875 29.8359L28.5938 27.7266C28.9062 27.3359 29.4922 27.1797 30 27.375L34.2578 29.2109C34.7656 29.4844 35.0781 30.0703 34.9609 30.6172Z" fill="#C8F31D"/>
</svg>
