<svg width="324" height="324" viewBox="0 0 324 324" fill="none" xmlns="http://www.w3.org/2000/svg">
<g opacity="0.05">
<path d="M246.991 65.217L221.573 14.2194C221.008 13.2428 220.196 12.432 219.219 11.8683C218.242 11.3046 217.134 11.0078 216.005 11.0078C214.877 11.0078 213.769 11.3046 212.792 11.8683C211.815 12.432 211.003 13.2428 210.438 14.2194L185.015 65.217C184.626 65.9984 184.053 66.6739 183.346 67.1855C182.639 67.6971 181.818 68.0297 180.954 68.1546L124.119 76.3356C122.971 76.4783 121.888 76.9482 121 77.6893C120.111 78.4304 119.454 79.4113 119.108 80.5152C118.748 81.5879 118.704 82.7413 118.981 83.8383C119.257 84.9353 119.843 85.9299 120.669 86.7036L161.789 126.399C162.425 127.012 162.9 127.77 163.174 128.609C163.448 129.448 163.512 130.341 163.361 131.21L153.641 187.262C153.44 188.373 153.56 189.519 153.986 190.564C154.413 191.609 155.128 192.511 156.049 193.165C156.991 193.866 158.113 194.286 159.284 194.375C160.455 194.464 161.627 194.218 162.664 193.667L213.494 167.207C214.265 166.806 215.121 166.596 215.989 166.596C216.858 166.596 217.714 166.806 218.484 167.207L269.314 193.667C270.35 194.222 271.523 194.47 272.695 194.381C273.867 194.292 274.989 193.87 275.929 193.165C276.851 192.511 277.567 191.608 277.994 190.562C278.42 189.515 278.54 188.369 278.338 187.257L268.639 131.221C268.488 130.352 268.552 129.459 268.826 128.62C269.1 127.781 269.576 127.022 270.211 126.41L311.332 86.7144C312.157 85.9407 312.743 84.9461 313.02 83.8491C313.296 82.7521 313.252 81.5987 312.892 80.526C312.546 79.4229 311.89 78.4424 311.003 77.7014C310.115 76.9604 309.034 76.4901 307.886 76.3464L251.051 68.1546C250.188 68.0297 249.367 67.6971 248.66 67.1855C247.952 66.6739 247.38 65.9984 246.991 65.217ZM235.078 258.823C235.578 257.912 236.327 257.163 237.238 256.663L252.347 248.401L237.227 240.123C236.317 239.623 235.567 238.874 235.067 237.963L226.8 222.854L218.522 237.974C218.022 238.885 217.273 239.634 216.362 240.134L201.253 248.401L216.373 256.679C217.284 257.179 218.033 257.929 218.533 258.839L226.8 273.949L235.078 258.823Z" fill="white"/>
<path d="M14.5801 313.201C15.4093 313.185 16.2111 312.902 16.8668 312.395C17.5224 311.887 17.9969 311.181 18.2197 310.383C37.6597 245.502 84.6073 196.626 144.148 178.849L150.973 139.429C115.204 157.593 83.6018 182.996 58.1743 214.025C57.255 215.095 55.9533 215.763 54.5477 215.886C53.1421 216.009 51.7443 215.577 50.6534 214.682C49.5624 213.787 48.865 212.501 48.7104 211.098C48.5557 209.696 48.9561 208.289 49.8259 207.178C76.772 174.284 110.408 147.499 148.5 128.602L126.625 107.461C90.3961 128.818 14.4991 187.921 10.8001 309.211C10.7836 309.722 10.8685 310.231 11.05 310.709C11.2315 311.186 11.5059 311.624 11.8575 311.995C12.209 312.366 12.6306 312.664 13.098 312.871C13.5653 313.078 14.0691 313.19 14.5801 313.201ZM83.8783 27.3793L75.6001 12.2539L67.3219 27.3739C66.8221 28.2848 66.0728 29.0341 65.1619 29.5339L50.0527 37.8013L65.1727 46.0795C66.0836 46.5793 66.8329 47.3286 67.3327 48.2395L75.6001 63.3487L83.8783 48.2287C84.3781 47.3178 85.1274 46.5685 86.0383 46.0687L101.148 37.8013L86.0275 29.5231C85.1229 29.0261 84.3776 28.2827 83.8783 27.3793Z" fill="white"/>
</g>
</svg>
