<svg width="201" height="201" viewBox="0 0 201 201" fill="none" xmlns="http://www.w3.org/2000/svg">
<g opacity="0.05">
<path d="M17.0201 193.21C15.7399 193.21 14.4683 192.809 13.3809 192.019C11.458 190.622 10.5135 188.298 10.9155 185.956L13.6804 169.832C13.6894 169.783 13.6859 169.731 13.6704 169.683C13.6549 169.635 13.6277 169.591 13.5913 169.556L1.87677 158.139C0.174553 156.48 -0.426484 154.043 0.308029 151.783C1.04254 149.522 2.96107 147.906 5.3134 147.564L21.5014 145.212C21.5513 145.204 21.5987 145.184 21.6395 145.154C21.6803 145.125 21.7133 145.085 21.7357 145.04L28.9757 130.372C30.0278 128.24 32.1575 126.915 34.5346 126.915C36.9128 126.915 39.0429 128.24 40.095 130.372C40.4404 131.072 40.4936 131.881 40.2428 132.62C39.9921 133.36 39.458 133.969 38.7579 134.315C38.0575 134.66 37.2485 134.713 36.5089 134.463C35.7693 134.212 35.1595 133.677 34.8137 132.977C34.7862 132.921 34.7293 132.805 34.5346 132.805C34.3414 132.805 34.2845 132.921 34.2554 132.977L27.0171 147.647C26.5724 148.549 25.9151 149.328 25.1019 149.919C24.2887 150.51 23.3441 150.894 22.3493 151.039L6.15941 153.391C6.09816 153.401 5.96783 153.419 5.90973 153.603C5.84966 153.787 5.94349 153.878 5.98785 153.922L17.7024 165.341C18.4221 166.042 18.9604 166.908 19.2709 167.864C19.5813 168.82 19.6546 169.837 19.4843 170.828L16.7194 186.951C16.7084 187.012 16.6872 187.141 16.8434 187.254C17.0001 187.369 17.1151 187.308 17.17 187.279L31.6495 179.667C32.5394 179.199 33.5297 178.955 34.535 178.955C35.5403 178.955 36.5305 179.199 37.4204 179.667L51.8995 187.279C51.9544 187.308 52.0698 187.368 52.2261 187.254C52.3827 187.141 52.3611 187.012 52.3505 186.951L49.5856 170.828C49.4154 169.837 49.4886 168.82 49.799 167.864C50.1095 166.908 50.6478 166.042 51.3675 165.341L63.0821 153.922C63.128 153.878 63.2214 153.787 63.1618 153.603C63.1021 153.42 62.9733 153.401 62.9101 153.391L46.721 151.039C45.7262 150.894 44.7816 150.51 43.9684 149.919C43.1553 149.328 42.498 148.548 42.0532 147.647L40.2905 144.075C40.1194 143.729 40.0183 143.352 39.9929 142.966C39.9675 142.58 40.0184 142.193 40.1426 141.827C40.2668 141.461 40.4619 141.123 40.7168 140.832C40.9717 140.541 41.2813 140.304 41.6281 140.133C41.9747 139.961 42.3517 139.86 42.7375 139.835C43.1233 139.809 43.5103 139.86 43.8765 139.984C44.2427 140.108 44.5808 140.303 44.8715 140.558C45.1622 140.813 45.3998 141.123 45.5707 141.47L47.3342 145.04C47.3789 145.132 47.4677 145.196 47.5689 145.21L63.7565 147.563C66.1088 147.904 68.0278 149.522 68.7619 151.783C69.4964 154.043 68.8954 156.48 67.1931 158.138L55.4786 169.556C55.4423 169.591 55.4153 169.635 55.3998 169.683C55.3843 169.731 55.3809 169.782 55.3899 169.832L58.1548 185.955C58.5564 188.299 57.6119 190.622 55.6875 192.019C53.7642 193.416 51.2631 193.597 49.1589 192.491L34.6798 184.879C34.6351 184.856 34.5854 184.843 34.535 184.843C34.4845 184.843 34.4348 184.856 34.3901 184.879L19.9106 192.491C19.0199 192.963 18.0279 193.209 17.0201 193.21ZM19.0108 103.787C17.8775 103.787 16.7519 103.433 15.7905 102.733C14.0867 101.496 13.2494 99.4397 13.605 97.365L15.732 84.9713L6.72747 76.1933C5.21997 74.7243 4.68763 72.5682 5.33774 70.5669C5.98785 68.5655 7.68575 67.1334 9.76838 66.8311L22.2127 65.0233L27.7779 53.7473C28.7103 51.8598 30.5966 50.6879 32.7004 50.6879C34.8058 50.6879 36.6922 51.8598 37.623 53.7473L43.1882 65.0233L55.6325 66.8311C57.7151 67.1334 59.4126 68.5655 60.0627 70.5669C60.7128 72.5694 60.1805 74.7243 58.6734 76.1933L49.6688 84.9713L51.7943 97.365C52.1499 99.4397 51.3141 101.496 49.6119 102.733C47.9081 103.97 45.694 104.131 43.8304 103.151L32.7004 97.299L21.5701 103.151C20.7812 103.568 19.9031 103.786 19.0108 103.787ZM32.7 91.3597C33.5775 91.3597 34.4549 91.5697 35.2553 91.9898L45.853 97.5628L43.8288 85.7592C43.6783 84.8821 43.7434 83.9815 44.0186 83.1351C44.2937 82.2887 44.7706 81.522 45.4082 80.9011L53.9837 72.5419L42.1325 70.8197C41.2518 70.6918 40.4155 70.3517 39.6955 69.8287C38.9756 69.3056 38.3936 68.6153 37.9998 67.8172L32.7 57.0783L27.4002 67.8172C27.0066 68.6154 26.4246 69.3057 25.7047 69.8288C24.9847 70.3518 24.1483 70.6919 23.2676 70.8197L11.4164 72.5419L19.9919 80.8999C20.6292 81.5212 21.1058 82.2882 21.3807 83.1348C21.6557 83.9813 21.7206 84.882 21.5701 85.7592L19.5455 97.5613L30.1451 91.9882C30.9335 91.5755 31.8102 91.3599 32.7 91.3597ZM86.4546 200.999C85.4425 200.999 84.4379 200.682 83.5789 200.059C82.0597 198.953 81.3126 197.118 81.6302 195.267L83.2021 186.1L76.542 179.608C75.197 178.297 74.7232 176.373 75.3026 174.586C75.5822 173.715 76.1014 172.94 76.8009 172.35C77.5004 171.76 78.3519 171.379 79.2579 171.251L88.4618 169.913L92.5776 161.573C93.4091 159.889 95.0929 158.843 96.9714 158.843C98.8498 158.843 100.532 159.889 101.363 161.574L105.479 169.913L114.683 171.252C116.542 171.522 118.059 172.799 118.638 174.586C119.218 176.373 118.744 178.297 117.399 179.608L110.738 186.101L112.311 195.267C112.629 197.12 111.881 198.955 110.362 200.059C108.842 201.163 106.866 201.306 105.203 200.432L96.9698 196.104L88.7378 200.432C88.0342 200.804 87.2505 200.999 86.4546 200.999ZM96.9714 190.085C97.7549 190.085 98.537 190.274 99.2499 190.648L106.169 194.285L104.847 186.583C104.713 185.8 104.771 184.996 105.017 184.24C105.262 183.485 105.688 182.8 106.257 182.246L111.854 176.791L104.119 175.667C103.333 175.553 102.587 175.249 101.944 174.782C101.302 174.315 100.782 173.699 100.431 172.987L96.9714 165.978L93.5116 172.987C93.1602 173.699 92.6409 174.315 91.9984 174.782C91.356 175.249 90.6096 175.553 89.8237 175.667L82.0887 176.791L87.6857 182.246C88.2544 182.8 88.6797 183.484 88.9249 184.239C89.1702 184.995 89.2281 185.798 89.0935 186.581L87.7733 194.285L94.6909 190.648C95.3943 190.279 96.1769 190.086 96.9714 190.085V190.085ZM141.014 49.0285C140.261 49.0285 139.506 48.7419 138.931 48.1652C138.658 47.8919 138.441 47.5674 138.293 47.2102C138.145 46.853 138.069 46.4702 138.069 46.0836C138.069 45.6969 138.145 45.3141 138.293 44.9569C138.441 44.5998 138.658 44.2752 138.931 44.0019L182.073 0.861607C182.626 0.309894 183.374 0 184.155 0C184.936 0 185.685 0.309894 186.237 0.861607C186.51 1.13492 186.727 1.45944 186.875 1.81661C187.023 2.17379 187.1 2.55662 187.1 2.94325C187.1 3.32987 187.023 3.71271 186.875 4.06988C186.727 4.42706 186.51 4.75157 186.237 5.02489L143.096 48.1668C142.823 48.4406 142.498 48.6577 142.141 48.8056C141.783 48.9536 141.4 49.0294 141.014 49.0289L141.014 49.0285ZM55.7522 134.29C55.3656 134.29 54.9827 134.214 54.6256 134.066C54.2684 133.918 53.9441 133.701 53.6712 133.427C53.3977 133.153 53.1808 132.829 53.0328 132.472C52.8848 132.115 52.8086 131.732 52.8086 131.345C52.8086 130.958 52.8848 130.576 53.0328 130.218C53.1808 129.861 53.3977 129.537 53.6712 129.263L96.0449 86.8894C96.3182 86.6159 96.6427 86.399 97 86.2509C97.3572 86.1029 97.7401 86.0267 98.1267 86.0267C98.5134 86.0267 98.8963 86.1029 99.2535 86.2509C99.6107 86.399 99.9352 86.6159 100.209 86.8894C100.482 87.1628 100.699 87.4873 100.847 87.8445C100.995 88.2017 101.071 88.5846 101.071 88.9713C101.071 89.3579 100.995 89.7408 100.847 90.098C100.699 90.4553 100.482 90.7798 100.209 91.0531L57.8345 133.427C57.5614 133.701 57.2369 133.918 56.8796 134.066C56.5222 134.215 56.1391 134.291 55.7522 134.29V134.29ZM71.621 137.197C71.2341 137.198 70.8509 137.122 70.4935 136.974C70.1361 136.826 69.8115 136.608 69.5384 136.334C69.2649 136.061 69.048 135.736 68.9 135.379C68.752 135.022 68.6758 134.639 68.6758 134.253C68.6758 133.866 68.752 133.483 68.9 133.126C69.048 132.769 69.2649 132.444 69.5384 132.171L88.77 112.939C89.0433 112.666 89.3679 112.449 89.7251 112.301C90.0823 112.153 90.4652 112.077 90.8519 112.077C91.2385 112.077 91.6214 112.153 91.9786 112.301C92.3358 112.449 92.6604 112.666 92.9337 112.939C93.2072 113.213 93.4241 113.537 93.5721 113.894C93.7201 114.251 93.7962 114.634 93.7962 115.021C93.7962 115.408 93.7201 115.79 93.5721 116.148C93.4241 116.505 93.2072 116.829 92.9337 117.103L73.7017 136.334C73.4289 136.608 73.1046 136.825 72.7475 136.974C72.3905 137.122 72.0076 137.198 71.621 137.197ZM132.835 122.87C132.448 122.87 132.065 122.794 131.708 122.646C131.351 122.498 131.026 122.281 130.753 122.007C130.479 121.733 130.262 121.409 130.114 121.052C129.966 120.694 129.89 120.312 129.89 119.925C129.89 119.538 129.966 119.156 130.114 118.798C130.262 118.441 130.479 118.117 130.753 117.843L185.509 63.0894C185.782 62.8159 186.107 62.599 186.464 62.4509C186.821 62.3029 187.204 62.2267 187.591 62.2267C187.977 62.2267 188.36 62.3029 188.717 62.4509C189.075 62.599 189.399 62.8159 189.672 63.0894C189.946 63.3628 190.163 63.6873 190.311 64.0445C190.459 64.4017 190.535 64.7846 190.535 65.1713C190.535 65.5579 190.459 65.9408 190.311 66.298C190.163 66.6553 189.946 66.9798 189.672 67.2531L134.918 122.006C134.645 122.28 134.32 122.498 133.963 122.646C133.605 122.794 133.222 122.87 132.835 122.87ZM108.834 146.871C108.447 146.871 108.064 146.795 107.707 146.647C107.35 146.499 107.025 146.281 106.752 146.007C106.479 145.734 106.262 145.409 106.114 145.052C105.966 144.695 105.89 144.312 105.89 143.926C105.89 143.539 105.966 143.156 106.114 142.799C106.262 142.442 106.479 142.117 106.752 141.844L120.817 127.779C121.369 127.226 122.118 126.916 122.899 126.916C123.68 126.916 124.429 127.226 124.982 127.778C125.534 128.33 125.844 129.079 125.845 129.86C125.845 130.641 125.535 131.39 124.983 131.942L110.915 146.008C110.643 146.282 110.318 146.499 109.961 146.647C109.604 146.796 109.221 146.872 108.835 146.871L108.834 146.871ZM65.5345 85.6136C64.9523 85.6131 64.3833 85.44 63.8994 85.1163C63.4155 84.7926 63.0384 84.3327 62.8158 83.7948C62.5931 83.2568 62.5349 82.665 62.6485 82.094C62.762 81.523 63.0423 80.9984 63.4538 80.5866L72.7493 71.2904C73.0228 71.0169 73.3475 70.7999 73.7048 70.6519C74.0621 70.5039 74.4451 70.4277 74.8319 70.4277C75.2187 70.4277 75.6017 70.5039 75.959 70.6519C76.3164 70.7999 76.6411 71.0169 76.9145 71.2904C78.0632 72.4391 78.0632 74.3038 76.9145 75.4541L67.6167 84.7519C67.3434 85.0253 67.0187 85.2422 66.6614 85.3901C66.3041 85.538 65.9212 85.6139 65.5345 85.6136ZM103.723 29.3109C103.336 29.3111 102.953 29.2349 102.596 29.0867C102.238 28.9385 101.914 28.7212 101.641 28.4472C100.492 27.2989 100.492 25.4342 101.641 24.284L114.748 11.1789C115.021 10.9055 115.346 10.6886 115.703 10.5406C116.06 10.3926 116.443 10.3164 116.829 10.3164C117.216 10.3164 117.599 10.3926 117.956 10.5406C118.313 10.6886 118.638 10.9055 118.911 11.1789C119.184 11.4522 119.401 11.7768 119.549 12.1339C119.697 12.4911 119.774 12.874 119.774 13.2606C119.774 13.6472 119.697 14.03 119.549 14.3872C119.401 14.7444 119.184 15.0689 118.911 15.3422L105.806 28.4476C105.533 28.7217 105.208 28.9392 104.851 29.0874C104.493 29.2356 104.11 29.3117 103.723 29.3113L103.723 29.3109ZM65.5345 67.4996C64.7815 67.4996 64.027 67.2131 63.4534 66.6364C63.18 66.3631 62.9631 66.0385 62.8151 65.6814C62.6671 65.3242 62.5909 64.9414 62.5909 64.5547C62.5909 64.1681 62.6671 63.7853 62.8151 63.4281C62.9631 63.0709 63.18 62.7464 63.4534 62.4731L92.7037 33.2229C93.8519 32.0743 95.7167 32.0743 96.8669 33.2229C97.1404 33.4964 97.3574 33.8211 97.5054 34.1784C97.6535 34.5358 97.7297 34.9188 97.7297 35.3056C97.7297 35.6923 97.6535 36.0753 97.5054 36.4327C97.3574 36.79 97.1404 37.1147 96.8669 37.3882L67.6167 66.6364C67.3437 66.9104 67.0192 67.1278 66.6618 67.2761C66.3045 67.4243 65.9214 67.5004 65.5345 67.5V67.4996ZM57.3901 50.2172C57.0033 50.2178 56.6202 50.142 56.2628 49.9941C55.9054 49.8462 55.5807 49.6292 55.3074 49.3555C54.1588 48.2053 54.1588 46.3405 55.3074 45.1918L68.9798 31.5195C69.5321 30.9679 70.2808 30.6581 71.0614 30.6581C71.842 30.6581 72.5907 30.9679 73.1431 31.5195C73.4166 31.7929 73.6335 32.1174 73.7816 32.4746C73.9296 32.8318 74.0058 33.2147 74.0058 33.6014C74.0058 33.988 73.9296 34.3709 73.7816 34.7281C73.6335 35.0854 73.4166 35.4099 73.1431 35.6832L59.4719 49.3559C59.1987 49.6296 58.8741 49.8466 58.5167 49.9944C58.1594 50.1423 57.7764 50.2182 57.3897 50.2176L57.3901 50.2172ZM126.352 82.045C125.61 82.045 124.866 81.8656 124.177 81.5052L117.122 77.7942L110.064 81.5052C108.483 82.3363 106.603 82.2001 105.157 81.1511C104.451 80.6424 103.903 79.945 103.575 79.1388C103.247 78.3327 103.153 77.4505 103.303 76.5933L104.651 68.7359L98.9417 63.1707C97.6627 61.9223 97.2104 60.0929 97.7624 58.3938C98.3144 56.6947 99.7559 55.4785 101.524 55.2226L109.414 54.0755L112.943 46.9266C113.324 46.1447 113.919 45.4862 114.657 45.0266C115.396 44.5671 116.25 44.3251 117.12 44.3286C117.99 44.3249 118.844 44.5667 119.584 45.0261C120.323 45.4856 120.918 46.1441 121.301 46.9262L124.829 54.0755L132.717 55.2226C133.579 55.3439 134.389 55.7056 135.054 56.2663C135.719 56.8269 136.213 57.5637 136.479 58.3923C136.751 59.2187 136.785 60.1051 136.577 60.95C136.368 61.7948 135.926 62.5639 135.301 63.1691L129.592 68.7343L130.938 76.5921C131.242 78.354 130.531 80.099 129.086 81.1496C128.292 81.7298 127.335 82.0433 126.352 82.045ZM117.122 71.7462C117.867 71.7462 118.612 71.9256 119.29 72.2828L124.714 75.1337L123.679 69.0931C123.551 68.3487 123.606 67.5844 123.839 66.8659C124.072 66.1475 124.477 65.4966 125.018 64.9695L129.407 60.6912L123.343 59.8106C122.596 59.7021 121.885 59.4134 121.274 58.9694C120.663 58.5254 120.169 57.9395 119.834 57.262L117.122 51.7659L114.409 57.2604C114.075 57.9383 113.581 58.5246 112.969 58.9689C112.358 59.4132 111.648 59.7021 110.9 59.8106L104.837 60.6912L109.226 64.9695C109.767 65.4966 110.171 66.1474 110.405 66.8659C110.638 67.5843 110.693 68.3487 110.564 69.0931L109.529 75.1337L114.953 72.2812C115.622 71.9301 116.366 71.7465 117.122 71.7462ZM119.929 160.842C119.542 160.843 119.159 160.767 118.802 160.619C118.444 160.471 118.12 160.253 117.847 159.979C117.573 159.706 117.356 159.382 117.208 159.024C117.06 158.667 116.984 158.284 116.984 157.898C116.984 157.511 117.06 157.128 117.208 156.771C117.356 156.414 117.573 156.089 117.847 155.816L134.705 138.958C134.978 138.685 135.303 138.468 135.66 138.32C136.017 138.172 136.4 138.096 136.786 138.096C137.173 138.096 137.556 138.172 137.913 138.32C138.27 138.468 138.595 138.685 138.868 138.958C139.142 139.231 139.358 139.556 139.506 139.913C139.654 140.27 139.731 140.653 139.731 141.04C139.731 141.426 139.654 141.809 139.506 142.166C139.358 142.524 139.142 142.848 138.868 143.121L122.01 159.979C121.738 160.253 121.413 160.471 121.056 160.619C120.699 160.767 120.316 160.843 119.93 160.843L119.929 160.842ZM126.091 110.248C125.704 110.248 125.321 110.172 124.964 110.024C124.606 109.875 124.282 109.658 124.009 109.384C123.735 109.111 123.518 108.786 123.37 108.429C123.222 108.072 123.146 107.689 123.146 107.302C123.146 106.916 123.222 106.533 123.37 106.176C123.518 105.819 123.735 105.494 124.009 105.221L130.753 98.4764C131.305 97.9241 132.054 97.6138 132.836 97.6138C133.617 97.6138 134.366 97.9241 134.918 98.4764C135.191 98.7497 135.408 99.0742 135.556 99.4314C135.705 99.7886 135.781 100.172 135.781 100.558C135.781 100.945 135.705 101.328 135.556 101.685C135.408 102.042 135.191 102.367 134.918 102.64L128.173 109.385C127.9 109.658 127.576 109.876 127.218 110.024C126.861 110.172 126.478 110.248 126.091 110.248ZM166.734 36.5461C165.981 36.5461 165.226 36.2595 164.651 35.6824C164.378 35.4091 164.161 35.0846 164.013 34.7274C163.865 34.3703 163.788 33.9874 163.788 33.6008C163.788 33.2142 163.865 32.8313 164.013 32.4742C164.161 32.117 164.378 31.7925 164.651 31.5191L172.728 23.4423C173.281 22.8906 174.03 22.5808 174.811 22.5808C175.591 22.5808 176.34 22.8906 176.893 23.4423C177.445 23.995 177.755 24.744 177.755 25.5249C177.755 26.3058 177.445 27.0548 176.893 27.6075L168.816 35.6828C168.543 35.957 168.219 36.1745 167.861 36.3227C167.504 36.4708 167.121 36.5468 166.734 36.5461ZM40.2438 27.7928H40.2301C39.8434 27.791 39.4609 27.7131 39.1044 27.5634C38.7478 27.4138 38.4243 27.1954 38.1521 26.9207C37.88 26.646 37.6646 26.3204 37.5183 25.9625C37.372 25.6046 37.2977 25.2214 37.2995 24.8347L37.3038 23.8074C37.3117 22.1817 38.626 20.8567 40.2623 20.8768C41.043 20.8807 41.7903 21.1945 42.3397 21.7492C42.8892 22.3039 43.1959 23.0541 43.1925 23.8348L43.1882 24.8622C43.1843 25.6407 42.8724 26.3859 42.3207 26.9351C41.769 27.4842 41.0223 27.7926 40.2438 27.7928ZM40.2116 38.2499H40.1959C38.5707 38.242 37.2594 36.9171 37.2673 35.2899L37.2716 34.264C37.2755 33.4856 37.5873 32.7404 38.1391 32.1912C38.6908 31.642 39.4375 31.3337 40.216 31.3335H40.2317C41.0123 31.3375 41.7594 31.6515 42.3086 32.2063C42.8578 32.7611 43.1642 33.5113 43.1603 34.2919L43.156 35.3193C43.1521 36.0977 42.8403 36.843 42.2885 37.3921C41.7368 37.9413 40.9901 38.2497 40.2116 38.2499ZM45.9727 32.5253H45.9574L44.93 32.5206C44.1491 32.5188 43.401 32.2068 42.8501 31.6534C42.2992 31.0999 41.9907 30.3503 41.9926 29.5694C41.9944 28.7885 42.3063 28.0403 42.8598 27.4895C43.4133 26.9386 44.1629 26.6301 44.9438 26.632H44.9579L45.9853 26.6367C46.7661 26.6405 47.5134 26.9543 48.063 27.509C48.6125 28.0637 48.9193 28.8139 48.9159 29.5947C48.9123 30.3731 48.6007 31.1183 48.0492 31.6675C47.4976 32.2167 46.7511 32.5251 45.9727 32.5253ZM35.5144 32.4931H35.5007L34.4729 32.4884C33.692 32.4865 32.9439 32.1745 32.393 31.6211C31.8422 31.0676 31.5338 30.3179 31.5357 29.537C31.5375 28.7561 31.8495 28.008 32.403 27.4571C32.9565 26.9063 33.7062 26.5979 34.4871 26.5998H34.5024L35.5297 26.6057C36.3047 26.6164 37.0442 26.9324 37.5877 27.4849C38.1312 28.0375 38.4348 28.7821 38.4328 29.5572C38.4307 30.3322 38.1231 31.0752 37.5766 31.6248C37.0302 32.1745 36.2895 32.4865 35.5144 32.4931ZM8.70096 119.253H8.68565C7.06037 119.245 5.74916 117.92 5.75701 116.293L5.76094 115.265C5.77036 113.64 7.10748 112.321 8.72098 112.337C9.50149 112.341 10.2484 112.655 10.7976 113.209C11.3468 113.764 11.6533 114.514 11.6496 115.294L11.6457 116.322C11.6418 117.101 11.33 117.846 10.7782 118.395C10.2265 118.944 9.4798 119.253 8.70135 119.253H8.70096ZM8.66877 129.709H8.65503C7.8742 129.706 7.12686 129.392 6.57731 128.837C6.02776 128.282 5.72099 127.532 5.72443 126.751L5.72914 125.724C5.73068 125.337 5.80845 124.955 5.95799 124.598C6.10753 124.241 6.32591 123.918 6.60065 123.645C6.87539 123.373 7.20108 123.158 7.55911 123.012C7.91715 122.866 8.30049 122.791 8.68722 122.793C9.07387 122.795 9.45639 122.873 9.81292 123.023C10.1695 123.172 10.493 123.391 10.7652 123.665C11.0373 123.94 11.2527 124.266 11.399 124.624C11.5453 124.982 11.6196 125.365 11.6178 125.751L11.6131 126.779C11.6093 127.557 11.2974 128.303 10.7457 128.852C10.1939 129.401 9.44721 129.709 8.66877 129.709ZM14.4302 123.985H14.4145L13.3876 123.981C12.6068 123.977 11.8597 123.663 11.3104 123.108C10.7611 122.553 10.4547 121.803 10.4585 121.022C10.4664 119.395 11.7925 118.069 13.4166 118.092L14.444 118.096C14.8308 118.098 15.2135 118.176 15.5701 118.326C15.9268 118.476 16.2505 118.694 16.5226 118.969C16.7948 119.244 17.0101 119.57 17.1563 119.928C17.3025 120.286 17.3766 120.669 17.3746 121.056C17.3705 121.834 17.0585 122.579 16.5068 123.128C15.955 123.677 15.2084 123.985 14.4302 123.985ZM3.97314 123.953H3.95783L2.93202 123.948C2.54532 123.946 2.16273 123.868 1.80613 123.719C1.44952 123.569 1.12589 123.351 0.85373 123.076C0.581567 122.802 0.36621 122.476 0.219967 122.118C0.0737243 121.76 -0.000537658 121.377 0.00142593 120.99C0.00927749 119.365 1.33541 118.047 2.95793 118.059L3.98531 118.064C4.37197 118.066 4.75448 118.144 5.11102 118.293C5.46755 118.443 5.79112 118.661 6.06325 118.936C6.33539 119.211 6.55075 119.536 6.69705 119.894C6.84335 120.252 6.91771 120.635 6.9159 121.022C6.91289 121.8 6.6015 122.546 6.04993 123.095C5.49835 123.645 4.75157 123.953 3.97314 123.953ZM156.186 154.506H156.172C155.391 154.502 154.644 154.188 154.095 153.634C153.545 153.079 153.238 152.329 153.242 151.548L153.246 150.521C153.25 149.742 153.562 148.997 154.113 148.448C154.665 147.898 155.412 147.59 156.191 147.59H156.203C156.984 147.594 157.731 147.907 158.281 148.461C158.831 149.016 159.138 149.766 159.135 150.547L159.131 151.574C159.127 152.353 158.815 153.099 158.263 153.648C157.712 154.197 156.965 154.506 156.186 154.506ZM156.154 164.963H156.138C154.513 164.955 153.202 163.63 153.208 162.004L153.214 160.976C153.218 160.198 153.53 159.453 154.082 158.904C154.633 158.355 155.38 158.047 156.158 158.047H156.173C156.953 158.051 157.701 158.365 158.25 158.919C158.8 159.474 159.106 160.224 159.103 161.005L159.097 162.033C159.093 162.811 158.782 163.556 158.23 164.105C157.679 164.654 156.932 164.963 156.154 164.963ZM161.914 159.239H161.9L160.872 159.234C160.092 159.232 159.343 158.92 158.793 158.367C158.242 157.813 157.933 157.064 157.935 156.283C157.937 155.502 158.249 154.754 158.802 154.203C159.356 153.652 160.105 153.344 160.886 153.345H160.9L161.928 153.35C162.314 153.352 162.697 153.43 163.053 153.579C163.41 153.729 163.734 153.947 164.006 154.222C164.278 154.497 164.493 154.822 164.639 155.18C164.786 155.538 164.86 155.921 164.858 156.308C164.855 157.087 164.543 157.832 163.991 158.381C163.439 158.93 162.693 159.239 161.914 159.239ZM151.458 159.206H151.443L150.415 159.202C148.79 159.194 147.479 157.869 147.485 156.244C147.489 155.465 147.801 154.72 148.353 154.171C148.904 153.622 149.651 153.313 150.43 153.313H150.445L151.472 153.318C153.097 153.326 154.409 154.651 154.401 156.277C154.397 157.056 154.086 157.801 153.534 158.349C152.983 158.898 152.237 159.207 151.458 159.206Z" fill="white"/>
</g>
</svg>
