<svg width="273" height="428" viewBox="0 0 273 428" fill="none" xmlns="http://www.w3.org/2000/svg">
<g opacity="0.05">
<path d="M17.0201 349.21C15.7399 349.21 14.4683 348.809 13.3809 348.019C11.458 346.622 10.5135 344.298 10.9155 341.956L13.6804 325.832C13.6894 325.783 13.6859 325.731 13.6704 325.683C13.6549 325.635 13.6277 325.591 13.5913 325.556L1.87677 314.139C0.174553 312.48 -0.426484 310.043 0.308029 307.783C1.04254 305.522 2.96107 303.906 5.3134 303.564L21.5014 301.212C21.5513 301.204 21.5987 301.184 21.6395 301.154C21.6803 301.125 21.7133 301.085 21.7357 301.04L28.9757 286.372C30.0278 284.24 32.1575 282.915 34.5346 282.915C36.9128 282.915 39.0429 284.24 40.095 286.372C40.4404 287.072 40.4936 287.881 40.2428 288.62C39.9921 289.36 39.458 289.969 38.7579 290.315C38.0575 290.66 37.2485 290.713 36.5089 290.463C35.7693 290.212 35.1595 289.677 34.8137 288.977C34.7862 288.921 34.7293 288.805 34.5346 288.805C34.3414 288.805 34.2845 288.921 34.2554 288.977L27.0171 303.647C26.5724 304.549 25.9151 305.328 25.1019 305.919C24.2887 306.51 23.3441 306.894 22.3493 307.039L6.15941 309.391C6.09816 309.401 5.96783 309.419 5.90973 309.603C5.84966 309.787 5.94349 309.878 5.98785 309.922L17.7024 321.341C18.4221 322.042 18.9604 322.908 19.2709 323.864C19.5813 324.82 19.6546 325.837 19.4843 326.828L16.7194 342.951C16.7084 343.012 16.6872 343.141 16.8434 343.254C17.0001 343.369 17.1151 343.308 17.17 343.279L31.6495 335.667C32.5394 335.199 33.5297 334.955 34.535 334.955C35.5403 334.955 36.5305 335.199 37.4204 335.667L51.8995 343.279C51.9544 343.308 52.0698 343.368 52.2261 343.254C52.3827 343.141 52.3611 343.012 52.3505 342.951L49.5856 326.828C49.4154 325.837 49.4886 324.82 49.799 323.864C50.1095 322.908 50.6478 322.042 51.3675 321.341L63.0821 309.922C63.128 309.878 63.2214 309.787 63.1618 309.603C63.1021 309.42 62.9733 309.401 62.9101 309.391L46.721 307.039C45.7262 306.894 44.7816 306.51 43.9684 305.919C43.1553 305.328 42.498 304.548 42.0532 303.647L40.2905 300.075C40.1194 299.729 40.0183 299.352 39.9929 298.966C39.9675 298.58 40.0184 298.193 40.1426 297.827C40.2668 297.461 40.4619 297.123 40.7168 296.832C40.9717 296.541 41.2813 296.304 41.6281 296.133C41.9747 295.961 42.3517 295.86 42.7375 295.835C43.1233 295.809 43.5103 295.86 43.8765 295.984C44.2427 296.108 44.5808 296.303 44.8715 296.558C45.1622 296.813 45.3998 297.123 45.5707 297.47L47.3342 301.04C47.3789 301.132 47.4677 301.196 47.5689 301.21L63.7565 303.563C66.1088 303.904 68.0278 305.522 68.7619 307.783C69.4964 310.043 68.8954 312.48 67.1931 314.138L55.4786 325.556C55.4423 325.591 55.4153 325.635 55.3998 325.683C55.3843 325.731 55.3809 325.782 55.3899 325.832L58.1548 341.955C58.5564 344.299 57.6119 346.622 55.6875 348.019C53.7642 349.416 51.2631 349.597 49.1589 348.491L34.6798 340.879C34.6351 340.856 34.5854 340.843 34.535 340.843C34.4845 340.843 34.4348 340.856 34.3901 340.879L19.9106 348.491C19.0199 348.963 18.0279 349.209 17.0201 349.21ZM19.0108 259.787C17.8775 259.787 16.7519 259.433 15.7905 258.733C14.0867 257.496 13.2494 255.44 13.605 253.365L15.732 240.971L6.72747 232.193C5.21997 230.724 4.68763 228.568 5.33774 226.567C5.98785 224.565 7.68575 223.133 9.76838 222.831L22.2127 221.023L27.7779 209.747C28.7103 207.86 30.5966 206.688 32.7004 206.688C34.8058 206.688 36.6922 207.86 37.623 209.747L43.1882 221.023L55.6325 222.831C57.7151 223.133 59.4126 224.565 60.0627 226.567C60.7128 228.569 60.1805 230.724 58.6734 232.193L49.6688 240.971L51.7943 253.365C52.1499 255.44 51.3141 257.496 49.6119 258.733C47.9081 259.97 45.694 260.131 43.8304 259.151L32.7004 253.299L21.5701 259.151C20.7812 259.568 19.9031 259.786 19.0108 259.787ZM32.7 247.36C33.5775 247.36 34.4549 247.57 35.2553 247.99L45.853 253.563L43.8288 241.759C43.6783 240.882 43.7434 239.981 44.0186 239.135C44.2937 238.289 44.7706 237.522 45.4082 236.901L53.9837 228.542L42.1325 226.82C41.2518 226.692 40.4155 226.352 39.6955 225.829C38.9756 225.306 38.3936 224.615 37.9998 223.817L32.7 213.078L27.4002 223.817C27.0066 224.615 26.4246 225.306 25.7047 225.829C24.9847 226.352 24.1483 226.692 23.2676 226.82L11.4164 228.542L19.9919 236.9C20.6292 237.521 21.1058 238.288 21.3807 239.135C21.6557 239.981 21.7206 240.882 21.5701 241.759L19.5455 253.561L30.1451 247.988C30.9335 247.576 31.8102 247.36 32.7 247.36ZM86.4546 356.999C85.4425 356.999 84.4379 356.682 83.5789 356.059C82.0597 354.953 81.3126 353.118 81.6302 351.267L83.2021 342.1L76.542 335.608C75.197 334.297 74.7232 332.373 75.3026 330.586C75.5822 329.715 76.1014 328.94 76.8009 328.35C77.5004 327.76 78.3519 327.379 79.2579 327.251L88.4618 325.913L92.5776 317.573C93.4091 315.889 95.0929 314.843 96.9714 314.843C98.8498 314.843 100.532 315.889 101.363 317.574L105.479 325.913L114.683 327.252C116.542 327.522 118.059 328.799 118.638 330.586C119.218 332.373 118.744 334.297 117.399 335.608L110.738 342.101L112.311 351.267C112.629 353.12 111.881 354.955 110.362 356.059C108.842 357.163 106.866 357.306 105.203 356.432L96.9698 352.104L88.7378 356.432C88.0342 356.804 87.2505 356.999 86.4546 356.999ZM96.9714 346.085C97.7549 346.085 98.537 346.274 99.2499 346.648L106.169 350.285L104.847 342.583C104.713 341.8 104.771 340.996 105.017 340.24C105.262 339.485 105.688 338.8 106.257 338.246L111.854 332.791L104.119 331.667C103.333 331.553 102.587 331.249 101.944 330.782C101.302 330.315 100.782 329.699 100.431 328.987L96.9714 321.978L93.5116 328.987C93.1602 329.699 92.6409 330.315 91.9984 330.782C91.356 331.249 90.6096 331.553 89.8237 331.667L82.0887 332.791L87.6857 338.246C88.2544 338.8 88.6797 339.484 88.9249 340.239C89.1702 340.995 89.2281 341.798 89.0935 342.581L87.7733 350.285L94.6909 346.648C95.3943 346.279 96.1769 346.086 96.9714 346.085V346.085ZM141.014 205.028C140.261 205.028 139.506 204.742 138.931 204.165C138.658 203.892 138.441 203.567 138.293 203.21C138.145 202.853 138.069 202.47 138.069 202.084C138.069 201.697 138.145 201.314 138.293 200.957C138.441 200.6 138.658 200.275 138.931 200.002L182.073 156.862C182.626 156.31 183.374 156 184.155 156C184.936 156 185.685 156.31 186.237 156.862C186.51 157.135 186.727 157.459 186.875 157.817C187.023 158.174 187.1 158.557 187.1 158.943C187.1 159.33 187.023 159.713 186.875 160.07C186.727 160.427 186.51 160.752 186.237 161.025L143.096 204.167C142.823 204.441 142.498 204.658 142.141 204.806C141.783 204.954 141.4 205.029 141.014 205.029L141.014 205.028ZM55.7522 290.29C55.3656 290.29 54.9827 290.214 54.6256 290.066C54.2684 289.918 53.9441 289.701 53.6712 289.427C53.3977 289.153 53.1808 288.829 53.0328 288.472C52.8848 288.115 52.8086 287.732 52.8086 287.345C52.8086 286.958 52.8848 286.576 53.0328 286.218C53.1808 285.861 53.3977 285.537 53.6712 285.263L96.0449 242.889C96.3182 242.616 96.6427 242.399 97 242.251C97.3572 242.103 97.7401 242.027 98.1267 242.027C98.5134 242.027 98.8963 242.103 99.2535 242.251C99.6107 242.399 99.9352 242.616 100.209 242.889C100.482 243.163 100.699 243.487 100.847 243.845C100.995 244.202 101.071 244.585 101.071 244.971C101.071 245.358 100.995 245.741 100.847 246.098C100.699 246.455 100.482 246.78 100.209 247.053L57.8345 289.427C57.5614 289.701 57.2369 289.918 56.8796 290.066C56.5222 290.215 56.1391 290.291 55.7522 290.29V290.29ZM71.621 293.197C71.2341 293.198 70.8509 293.122 70.4935 292.974C70.1361 292.826 69.8115 292.608 69.5384 292.334C69.2649 292.061 69.048 291.736 68.9 291.379C68.752 291.022 68.6758 290.639 68.6758 290.253C68.6758 289.866 68.752 289.483 68.9 289.126C69.048 288.769 69.2649 288.444 69.5384 288.171L88.77 268.939C89.0433 268.666 89.3679 268.449 89.7251 268.301C90.0823 268.153 90.4652 268.077 90.8519 268.077C91.2385 268.077 91.6214 268.153 91.9786 268.301C92.3358 268.449 92.6604 268.666 92.9337 268.939C93.2072 269.213 93.4241 269.537 93.5721 269.894C93.7201 270.251 93.7962 270.634 93.7962 271.021C93.7962 271.408 93.7201 271.79 93.5721 272.148C93.4241 272.505 93.2072 272.829 92.9337 273.103L73.7017 292.334C73.4289 292.608 73.1046 292.825 72.7475 292.974C72.3905 293.122 72.0076 293.198 71.621 293.197ZM132.835 278.87C132.448 278.87 132.065 278.794 131.708 278.646C131.351 278.498 131.026 278.281 130.753 278.007C130.479 277.733 130.262 277.409 130.114 277.052C129.966 276.694 129.89 276.312 129.89 275.925C129.89 275.538 129.966 275.156 130.114 274.798C130.262 274.441 130.479 274.117 130.753 273.843L185.509 219.089C185.782 218.816 186.107 218.599 186.464 218.451C186.821 218.303 187.204 218.227 187.591 218.227C187.977 218.227 188.36 218.303 188.717 218.451C189.075 218.599 189.399 218.816 189.672 219.089C189.946 219.363 190.163 219.687 190.311 220.045C190.459 220.402 190.535 220.785 190.535 221.171C190.535 221.558 190.459 221.941 190.311 222.298C190.163 222.655 189.946 222.98 189.672 223.253L134.918 278.006C134.645 278.28 134.32 278.498 133.963 278.646C133.605 278.794 133.222 278.87 132.835 278.87ZM108.834 302.871C108.447 302.871 108.064 302.795 107.707 302.647C107.35 302.499 107.025 302.281 106.752 302.007C106.479 301.734 106.262 301.409 106.114 301.052C105.966 300.695 105.89 300.312 105.89 299.926C105.89 299.539 105.966 299.156 106.114 298.799C106.262 298.442 106.479 298.117 106.752 297.844L120.817 283.779C121.369 283.226 122.118 282.916 122.899 282.916C123.68 282.916 124.429 283.226 124.982 283.778C125.534 284.33 125.844 285.079 125.845 285.86C125.845 286.641 125.535 287.39 124.983 287.942L110.915 302.008C110.643 302.282 110.318 302.499 109.961 302.647C109.604 302.796 109.221 302.872 108.835 302.871L108.834 302.871ZM65.5345 241.614C64.9523 241.613 64.3833 241.44 63.8994 241.116C63.4155 240.793 63.0384 240.333 62.8158 239.795C62.5931 239.257 62.5349 238.665 62.6485 238.094C62.762 237.523 63.0423 236.998 63.4538 236.587L72.7493 227.29C73.0228 227.017 73.3475 226.8 73.7048 226.652C74.0621 226.504 74.4451 226.428 74.8319 226.428C75.2187 226.428 75.6017 226.504 75.959 226.652C76.3164 226.8 76.6411 227.017 76.9145 227.29C78.0632 228.439 78.0632 230.304 76.9145 231.454L67.6167 240.752C67.3434 241.025 67.0187 241.242 66.6614 241.39C66.3041 241.538 65.9212 241.614 65.5345 241.614ZM103.723 185.311C103.336 185.311 102.953 185.235 102.596 185.087C102.238 184.938 101.914 184.721 101.641 184.447C100.492 183.299 100.492 181.434 101.641 180.284L114.748 167.179C115.021 166.905 115.346 166.689 115.703 166.541C116.06 166.393 116.443 166.316 116.829 166.316C117.216 166.316 117.599 166.393 117.956 166.541C118.313 166.689 118.638 166.905 118.911 167.179C119.184 167.452 119.401 167.777 119.549 168.134C119.697 168.491 119.774 168.874 119.774 169.261C119.774 169.647 119.697 170.03 119.549 170.387C119.401 170.744 119.184 171.069 118.911 171.342L105.806 184.448C105.533 184.722 105.208 184.939 104.851 185.087C104.493 185.236 104.11 185.312 103.723 185.311L103.723 185.311ZM65.5345 223.5C64.7815 223.5 64.027 223.213 63.4534 222.636C63.18 222.363 62.9631 222.039 62.8151 221.681C62.6671 221.324 62.5909 220.941 62.5909 220.555C62.5909 220.168 62.6671 219.785 62.8151 219.428C62.9631 219.071 63.18 218.746 63.4534 218.473L92.7037 189.223C93.8519 188.074 95.7167 188.074 96.8669 189.223C97.1404 189.496 97.3574 189.821 97.5054 190.178C97.6535 190.536 97.7297 190.919 97.7297 191.306C97.7297 191.692 97.6535 192.075 97.5054 192.433C97.3574 192.79 97.1404 193.115 96.8669 193.388L67.6167 222.636C67.3437 222.91 67.0192 223.128 66.6618 223.276C66.3045 223.424 65.9214 223.5 65.5345 223.5V223.5ZM57.3901 206.217C57.0033 206.218 56.6202 206.142 56.2628 205.994C55.9054 205.846 55.5807 205.629 55.3074 205.356C54.1588 204.205 54.1588 202.341 55.3074 201.192L68.9798 187.52C69.5321 186.968 70.2808 186.658 71.0614 186.658C71.842 186.658 72.5907 186.968 73.1431 187.52C73.4166 187.793 73.6335 188.117 73.7816 188.475C73.9296 188.832 74.0058 189.215 74.0058 189.601C74.0058 189.988 73.9296 190.371 73.7816 190.728C73.6335 191.085 73.4166 191.41 73.1431 191.683L59.4719 205.356C59.1987 205.63 58.8741 205.847 58.5167 205.994C58.1594 206.142 57.7764 206.218 57.3897 206.218L57.3901 206.217ZM126.352 238.045C125.61 238.045 124.866 237.866 124.177 237.505L117.122 233.794L110.064 237.505C108.483 238.336 106.603 238.2 105.157 237.151C104.451 236.642 103.903 235.945 103.575 235.139C103.247 234.333 103.153 233.45 103.303 232.593L104.651 224.736L98.9417 219.171C97.6627 217.922 97.2104 216.093 97.7624 214.394C98.3144 212.695 99.7559 211.479 101.524 211.223L109.414 210.075L112.943 202.927C113.324 202.145 113.919 201.486 114.657 201.027C115.396 200.567 116.25 200.325 117.12 200.329C117.99 200.325 118.844 200.567 119.584 201.026C120.323 201.486 120.918 202.144 121.301 202.926L124.829 210.075L132.717 211.223C133.579 211.344 134.389 211.706 135.054 212.266C135.719 212.827 136.213 213.564 136.479 214.392C136.751 215.219 136.785 216.105 136.577 216.95C136.368 217.795 135.926 218.564 135.301 219.169L129.592 224.734L130.938 232.592C131.242 234.354 130.531 236.099 129.086 237.15C128.292 237.73 127.335 238.043 126.352 238.045ZM117.122 227.746C117.867 227.746 118.612 227.926 119.29 228.283L124.714 231.134L123.679 225.093C123.551 224.349 123.606 223.584 123.839 222.866C124.072 222.148 124.477 221.497 125.018 220.969L129.407 216.691L123.343 215.811C122.596 215.702 121.885 215.413 121.274 214.969C120.663 214.525 120.169 213.939 119.834 213.262L117.122 207.766L114.409 213.26C114.075 213.938 113.581 214.525 112.969 214.969C112.358 215.413 111.648 215.702 110.9 215.811L104.837 216.691L109.226 220.969C109.767 221.497 110.171 222.147 110.405 222.866C110.638 223.584 110.693 224.349 110.564 225.093L109.529 231.134L114.953 228.281C115.622 227.93 116.366 227.747 117.122 227.746ZM119.929 316.842C119.542 316.843 119.159 316.767 118.802 316.619C118.444 316.471 118.12 316.253 117.847 315.979C117.573 315.706 117.356 315.382 117.208 315.024C117.06 314.667 116.984 314.284 116.984 313.898C116.984 313.511 117.06 313.128 117.208 312.771C117.356 312.414 117.573 312.089 117.847 311.816L134.705 294.958C134.978 294.685 135.303 294.468 135.66 294.32C136.017 294.172 136.4 294.096 136.786 294.096C137.173 294.096 137.556 294.172 137.913 294.32C138.27 294.468 138.595 294.685 138.868 294.958C139.142 295.231 139.358 295.556 139.506 295.913C139.654 296.27 139.731 296.653 139.731 297.04C139.731 297.426 139.654 297.809 139.506 298.166C139.358 298.524 139.142 298.848 138.868 299.121L122.01 315.979C121.738 316.253 121.413 316.471 121.056 316.619C120.699 316.767 120.316 316.843 119.93 316.843L119.929 316.842ZM126.091 266.248C125.704 266.248 125.321 266.172 124.964 266.024C124.606 265.875 124.282 265.658 124.009 265.384C123.735 265.111 123.518 264.786 123.37 264.429C123.222 264.072 123.146 263.689 123.146 263.302C123.146 262.916 123.222 262.533 123.37 262.176C123.518 261.819 123.735 261.494 124.009 261.221L130.753 254.476C131.305 253.924 132.054 253.614 132.836 253.614C133.617 253.614 134.366 253.924 134.918 254.476C135.191 254.75 135.408 255.074 135.556 255.431C135.705 255.789 135.781 256.172 135.781 256.558C135.781 256.945 135.705 257.328 135.556 257.685C135.408 258.042 135.191 258.367 134.918 258.64L128.173 265.385C127.9 265.658 127.576 265.876 127.218 266.024C126.861 266.172 126.478 266.248 126.091 266.248ZM166.734 192.546C165.981 192.546 165.226 192.26 164.651 191.682C164.378 191.409 164.161 191.085 164.013 190.727C163.865 190.37 163.788 189.987 163.788 189.601C163.788 189.214 163.865 188.831 164.013 188.474C164.161 188.117 164.378 187.792 164.651 187.519L172.728 179.442C173.281 178.891 174.03 178.581 174.811 178.581C175.591 178.581 176.34 178.891 176.893 179.442C177.445 179.995 177.755 180.744 177.755 181.525C177.755 182.306 177.445 183.055 176.893 183.608L168.816 191.683C168.543 191.957 168.219 192.174 167.861 192.323C167.504 192.471 167.121 192.547 166.734 192.546ZM40.2438 183.793H40.2301C39.8434 183.791 39.4609 183.713 39.1044 183.563C38.7478 183.414 38.4243 183.195 38.1521 182.921C37.88 182.646 37.6646 182.32 37.5183 181.963C37.372 181.605 37.2977 181.221 37.2995 180.835L37.3038 179.807C37.3117 178.182 38.626 176.857 40.2623 176.877C41.043 176.881 41.7903 177.195 42.3397 177.749C42.8892 178.304 43.1959 179.054 43.1925 179.835L43.1882 180.862C43.1843 181.641 42.8724 182.386 42.3207 182.935C41.769 183.484 41.0223 183.793 40.2438 183.793ZM40.2116 194.25H40.1959C38.5707 194.242 37.2594 192.917 37.2673 191.29L37.2716 190.264C37.2755 189.486 37.5873 188.74 38.1391 188.191C38.6908 187.642 39.4375 187.334 40.216 187.333H40.2317C41.0123 187.338 41.7594 187.651 42.3086 188.206C42.8578 188.761 43.1642 189.511 43.1603 190.292L43.156 191.319C43.1521 192.098 42.8403 192.843 42.2885 193.392C41.7368 193.941 40.9901 194.25 40.2116 194.25ZM45.9727 188.525H45.9574L44.93 188.521C44.1491 188.519 43.401 188.207 42.8501 187.653C42.2992 187.1 41.9907 186.35 41.9926 185.569C41.9944 184.789 42.3063 184.04 42.8598 183.489C43.4133 182.939 44.1629 182.63 44.9438 182.632H44.9579L45.9853 182.637C46.7661 182.641 47.5134 182.954 48.063 183.509C48.6125 184.064 48.9193 184.814 48.9159 185.595C48.9123 186.373 48.6007 187.118 48.0492 187.668C47.4976 188.217 46.7511 188.525 45.9727 188.525ZM35.5144 188.493H35.5007L34.4729 188.488C33.692 188.487 32.9439 188.175 32.393 187.621C31.8422 187.068 31.5338 186.318 31.5357 185.537C31.5375 184.756 31.8495 184.008 32.403 183.457C32.9565 182.906 33.7062 182.598 34.4871 182.6H34.5024L35.5297 182.606C36.3047 182.616 37.0442 182.932 37.5877 183.485C38.1312 184.038 38.4348 184.782 38.4328 185.557C38.4307 186.332 38.1231 187.075 37.5766 187.625C37.0302 188.174 36.2895 188.486 35.5144 188.493ZM8.70096 275.253H8.68565C7.06037 275.245 5.74916 273.92 5.75701 272.293L5.76094 271.265C5.77036 269.64 7.10748 268.321 8.72098 268.337C9.50149 268.341 10.2484 268.655 10.7976 269.209C11.3468 269.764 11.6533 270.514 11.6496 271.294L11.6457 272.322C11.6418 273.101 11.33 273.846 10.7782 274.395C10.2265 274.944 9.4798 275.253 8.70135 275.253H8.70096ZM8.66877 285.709H8.65503C7.8742 285.706 7.12686 285.392 6.57731 284.837C6.02776 284.282 5.72099 283.532 5.72443 282.751L5.72914 281.724C5.73068 281.337 5.80845 280.955 5.95799 280.598C6.10753 280.241 6.32591 279.918 6.60065 279.645C6.87539 279.373 7.20108 279.158 7.55911 279.012C7.91715 278.866 8.30049 278.791 8.68722 278.793C9.07387 278.795 9.45639 278.873 9.81292 279.023C10.1695 279.172 10.493 279.391 10.7652 279.665C11.0373 279.94 11.2527 280.266 11.399 280.624C11.5453 280.982 11.6196 281.365 11.6178 281.751L11.6131 282.779C11.6093 283.557 11.2974 284.303 10.7457 284.852C10.1939 285.401 9.44721 285.709 8.66877 285.709ZM14.4302 279.985H14.4145L13.3876 279.981C12.6068 279.977 11.8597 279.663 11.3104 279.108C10.7611 278.553 10.4547 277.803 10.4585 277.022C10.4664 275.395 11.7925 274.069 13.4166 274.092L14.444 274.096C14.8308 274.098 15.2135 274.176 15.5701 274.326C15.9268 274.476 16.2505 274.694 16.5226 274.969C16.7948 275.244 17.0101 275.57 17.1563 275.928C17.3025 276.286 17.3766 276.669 17.3746 277.056C17.3705 277.834 17.0585 278.579 16.5068 279.128C15.955 279.677 15.2084 279.985 14.4302 279.985ZM3.97314 279.953H3.95783L2.93202 279.948C2.54532 279.946 2.16273 279.868 1.80613 279.719C1.44952 279.569 1.12589 279.351 0.85373 279.076C0.581567 278.802 0.36621 278.476 0.219967 278.118C0.0737243 277.76 -0.000537658 277.377 0.00142593 276.99C0.00927749 275.365 1.33541 274.047 2.95793 274.059L3.98531 274.064C4.37197 274.066 4.75448 274.144 5.11102 274.293C5.46755 274.443 5.79112 274.661 6.06325 274.936C6.33539 275.211 6.55075 275.536 6.69705 275.894C6.84335 276.252 6.91771 276.635 6.9159 277.022C6.91289 277.8 6.6015 278.546 6.04993 279.095C5.49835 279.645 4.75157 279.953 3.97314 279.953ZM156.186 310.506H156.172C155.391 310.502 154.644 310.188 154.095 309.634C153.545 309.079 153.238 308.329 153.242 307.548L153.246 306.521C153.25 305.742 153.562 304.997 154.113 304.448C154.665 303.898 155.412 303.59 156.191 303.59H156.203C156.984 303.594 157.731 303.907 158.281 304.461C158.831 305.016 159.138 305.766 159.135 306.547L159.131 307.574C159.127 308.353 158.815 309.099 158.263 309.648C157.712 310.197 156.965 310.506 156.186 310.506ZM156.154 320.963H156.138C154.513 320.955 153.202 319.63 153.208 318.004L153.214 316.976C153.218 316.198 153.53 315.453 154.082 314.904C154.633 314.355 155.38 314.047 156.158 314.047H156.173C156.953 314.051 157.701 314.365 158.25 314.919C158.8 315.474 159.106 316.224 159.103 317.005L159.097 318.033C159.093 318.811 158.782 319.556 158.23 320.105C157.679 320.654 156.932 320.963 156.154 320.963ZM161.914 315.239H161.9L160.872 315.234C160.092 315.232 159.343 314.92 158.793 314.367C158.242 313.813 157.933 313.064 157.935 312.283C157.937 311.502 158.249 310.754 158.802 310.203C159.356 309.652 160.105 309.344 160.886 309.345H160.9L161.928 309.35C162.314 309.352 162.697 309.43 163.053 309.579C163.41 309.729 163.734 309.947 164.006 310.222C164.278 310.497 164.493 310.822 164.639 311.18C164.786 311.538 164.86 311.921 164.858 312.308C164.855 313.087 164.543 313.832 163.991 314.381C163.439 314.93 162.693 315.239 161.914 315.239ZM151.458 315.206H151.443L150.415 315.202C148.79 315.194 147.479 313.869 147.485 312.244C147.489 311.465 147.801 310.72 148.353 310.171C148.904 309.622 149.651 309.313 150.43 309.313H150.445L151.472 309.318C153.097 309.326 154.409 310.651 154.401 312.277C154.397 313.056 154.086 313.801 153.534 314.349C152.983 314.898 152.237 315.207 151.458 315.206Z" fill="white"/>
</g>
<path d="M190.643 329.295L205.341 355.08C206.171 356.538 207.524 357.626 209.125 358.125C210.727 358.625 212.458 358.498 213.97 357.77L272.355 329.673L215.343 360.462C213.867 361.259 212.749 362.586 212.214 364.175C211.678 365.765 211.766 367.498 212.458 369.026L224.712 396.059L210.014 370.274C209.184 368.817 207.832 367.729 206.23 367.23C204.629 366.731 202.898 366.857 201.387 367.584L143 395.681L200.012 364.893C201.488 364.095 202.606 362.768 203.141 361.179C203.677 359.589 203.589 357.856 202.897 356.328L190.643 329.295Z" fill="#C8F31D"/>
<path opacity="0.32" d="M83.8267 21.7057L93.824 39.245C94.3889 40.2366 95.3089 40.9768 96.3984 41.3164C97.4878 41.6561 98.6655 41.5697 99.6937 41.0749L139.408 21.9629L100.628 42.9057C99.6242 43.4479 98.8635 44.3507 98.4993 45.4319C98.1351 46.5131 98.1945 47.6921 98.6655 48.7312L107.001 67.1196L97.0033 49.5803C96.4384 48.5891 95.5185 47.8491 94.4294 47.5096C93.3402 47.1701 92.1628 47.2563 91.1347 47.7508L51.419 66.8625L90.1994 45.9197C91.2032 45.3774 91.9639 44.4746 92.3281 43.3935C92.6923 42.3123 92.6329 41.1332 92.1618 40.0941L83.8267 21.7057Z" fill="#C8F31D"/>
</svg>
