<svg width="73" height="64" viewBox="0 0 73 64" fill="none" xmlns="http://www.w3.org/2000/svg">
<path d="M59.1389 31.9981V31.4981H58.6389H47.5263C44.1214 31.4981 41.3588 28.7355 41.3588 25.3305V7.55038C41.3588 4.14545 44.1214 1.38281 47.5263 1.38281H65.3065C68.7114 1.38281 71.4741 4.14545 71.4741 7.55038V40.8883C71.4741 52.8916 61.7521 62.6136 49.7489 62.6136H48.6377C47.0662 62.6136 45.8038 61.351 45.8038 59.7797V53.1121C45.8038 51.5407 47.0664 50.2783 48.6377 50.2783H49.7489C54.9285 50.2783 59.1389 46.0678 59.1389 40.8882V31.9981Z" stroke="#C8F31D"/>
<path d="M19.1336 31.9981V31.4981H18.6336H7.52096C4.11604 31.4981 1.35339 28.7355 1.35339 25.3305V7.55038C1.35339 4.14545 4.11604 1.38281 7.52096 1.38281H25.3011C28.7061 1.38281 31.4687 4.14545 31.4687 7.55038V40.8883C31.4687 52.8916 21.7468 62.6136 9.74348 62.6136H8.63229C7.06087 62.6136 5.79844 61.351 5.79844 59.7797V53.1121C5.79844 51.5407 7.06099 50.2783 8.63229 50.2783H9.74348C14.9231 50.2783 19.1336 46.0678 19.1336 40.8882V31.9981Z" stroke="#C8F31D"/>
</svg>
