<svg width="100" height="15" viewBox="0 0 100 15" fill="none" xmlns="http://www.w3.org/2000/svg">
<path d="M10.418 4.87891L14.3281 5.45312C14.6562 5.50781 14.9297 5.72656 15.0391 6.05469C15.1484 6.35547 15.0664 6.71094 14.8203 6.92969L11.9766 9.74609L12.6602 13.7383C12.7148 14.0664 12.5781 14.3945 12.3047 14.5859C12.0312 14.8047 11.6758 14.8047 11.375 14.668L7.875 12.7812L4.34766 14.668C4.07422 14.8047 3.69141 14.8047 3.44531 14.5859C3.17188 14.3945 3.03516 14.0664 3.08984 13.7383L3.74609 9.74609L0.902344 6.92969C0.65625 6.71094 0.574219 6.35547 0.683594 6.05469C0.792969 5.72656 1.06641 5.50781 1.39453 5.45312L5.33203 4.87891L7.08203 1.24219C7.21875 0.941406 7.51953 0.75 7.875 0.75C8.20312 0.75 8.50391 0.941406 8.64062 1.24219L10.418 4.87891Z" fill="#E7E036"/>
<path d="M31.418 4.87891L35.3281 5.45312C35.6562 5.50781 35.9297 5.72656 36.0391 6.05469C36.1484 6.35547 36.0664 6.71094 35.8203 6.92969L32.9766 9.74609L33.6602 13.7383C33.7148 14.0664 33.5781 14.3945 33.3047 14.5859C33.0312 14.8047 32.6758 14.8047 32.375 14.668L28.875 12.7812L25.3477 14.668C25.0742 14.8047 24.6914 14.8047 24.4453 14.5859C24.1719 14.3945 24.0352 14.0664 24.0898 13.7383L24.7461 9.74609L21.9023 6.92969C21.6562 6.71094 21.5742 6.35547 21.6836 6.05469C21.793 5.72656 22.0664 5.50781 22.3945 5.45312L26.332 4.87891L28.082 1.24219C28.2188 0.941406 28.5195 0.75 28.875 0.75C29.2031 0.75 29.5039 0.941406 29.6406 1.24219L31.418 4.87891Z" fill="#E7E036"/>
<path d="M52.418 4.87891L56.3281 5.45312C56.6562 5.50781 56.9297 5.72656 57.0391 6.05469C57.1484 6.35547 57.0664 6.71094 56.8203 6.92969L53.9766 9.74609L54.6602 13.7383C54.7148 14.0664 54.5781 14.3945 54.3047 14.5859C54.0312 14.8047 53.6758 14.8047 53.375 14.668L49.875 12.7812L46.3477 14.668C46.0742 14.8047 45.6914 14.8047 45.4453 14.5859C45.1719 14.3945 45.0352 14.0664 45.0898 13.7383L45.7461 9.74609L42.9023 6.92969C42.6562 6.71094 42.5742 6.35547 42.6836 6.05469C42.793 5.72656 43.0664 5.50781 43.3945 5.45312L47.332 4.87891L49.082 1.24219C49.2188 0.941406 49.5195 0.75 49.875 0.75C50.2031 0.75 50.5039 0.941406 50.6406 1.24219L52.418 4.87891Z" fill="#E7E036"/>
<path d="M73.418 4.87891L77.3281 5.45312C77.6562 5.50781 77.9297 5.72656 78.0391 6.05469C78.1484 6.35547 78.0664 6.71094 77.8203 6.92969L74.9766 9.74609L75.6602 13.7383C75.7148 14.0664 75.5781 14.3945 75.3047 14.5859C75.0312 14.8047 74.6758 14.8047 74.375 14.668L70.875 12.7812L67.3477 14.668C67.0742 14.8047 66.6914 14.8047 66.4453 14.5859C66.1719 14.3945 66.0352 14.0664 66.0898 13.7383L66.7461 9.74609L63.9023 6.92969C63.6562 6.71094 63.5742 6.35547 63.6836 6.05469C63.793 5.72656 64.0664 5.50781 64.3945 5.45312L68.332 4.87891L70.082 1.24219C70.2188 0.941406 70.5195 0.75 70.875 0.75C71.2031 0.75 71.5039 0.941406 71.6406 1.24219L73.418 4.87891Z" fill="#E7E036"/>
<path d="M94.418 4.87891L98.3281 5.45312C98.6562 5.50781 98.9297 5.72656 99.0391 6.05469C99.1484 6.35547 99.0664 6.71094 98.8203 6.92969L95.9766 9.74609L96.6602 13.7383C96.7148 14.0664 96.5781 14.3945 96.3047 14.5859C96.0312 14.8047 95.6758 14.8047 95.375 14.668L91.875 12.7812L88.3477 14.668C88.0742 14.8047 87.6914 14.8047 87.4453 14.5859C87.1719 14.3945 87.0352 14.0664 87.0898 13.7383L87.7461 9.74609L84.9023 6.92969C84.6562 6.71094 84.5742 6.35547 84.6836 6.05469C84.793 5.72656 85.0664 5.50781 85.3945 5.45312L89.332 4.87891L91.082 1.24219C91.2188 0.941406 91.5195 0.75 91.875 0.75C92.2031 0.75 92.5039 0.941406 92.6406 1.24219L94.418 4.87891Z" fill="#CCCCCC"/>
</svg>
