<svg width="44" height="34" viewBox="0 0 44 34" fill="none" xmlns="http://www.w3.org/2000/svg">
<circle opacity="0.2" cx="15" cy="15.8516" r="15" fill="url(#paint0_linear_3508_309)"/>
<path opacity="0.5" d="M18.424 30.2416C16.032 30.2416 14.2727 29.3229 13.146 27.4856C12.0193 25.6482 11.456 23.2562 11.456 20.3096C11.456 17.2762 12.002 14.8756 13.094 13.1076C14.186 11.3222 15.9627 10.4296 18.424 10.4296C23.052 10.4296 25.366 13.7229 25.366 20.3096C25.366 23.3082 24.8027 25.7176 23.676 27.5376C22.5493 29.3402 20.7987 30.2416 18.424 30.2416ZM18.424 27.5896C19.8453 27.5896 20.8247 26.9136 21.362 25.5616C21.9167 24.1922 22.194 22.4416 22.194 20.3096C22.194 18.0736 21.9253 16.3056 21.388 15.0056C20.8507 13.7056 19.8627 13.0556 18.424 13.0556C16.9853 13.0556 15.9887 13.7056 15.434 15.0056C14.8967 16.3056 14.628 18.0736 14.628 20.3096C14.628 25.1629 15.8933 27.5896 18.424 27.5896ZM35.102 21.8176C35.9167 20.7256 36.5927 19.7116 37.13 18.7756C37.6847 17.8396 37.962 16.9729 37.962 16.1756C37.962 15.2049 37.702 14.4682 37.182 13.9656C36.6793 13.4456 35.9167 13.1856 34.894 13.1856C33.958 13.1856 33.204 13.4456 32.632 13.9656C32.06 14.4856 31.5833 15.1182 31.202 15.8636L28.784 14.5636C29.3907 13.4022 30.188 12.4229 31.176 11.6256C32.164 10.8282 33.4293 10.4296 34.972 10.4296C36.896 10.4296 38.3693 10.9322 39.392 11.9376C40.4147 12.9256 40.926 14.2256 40.926 15.8376C40.926 17.9349 39.886 20.2576 37.806 22.8056L34.27 27.2776H41.68V29.8516H28.68L35.102 21.8176Z" fill="white"/>
<defs>
<linearGradient id="paint0_linear_3508_309" x1="15" y1="0.851562" x2="15" y2="30.8516" gradientUnits="userSpaceOnUse">
<stop stop-color="white"/>
<stop offset="1" stop-color="white" stop-opacity="0"/>
</linearGradient>
</defs>
</svg>
