<svg width="39" height="34" viewBox="0 0 39 34" fill="none" xmlns="http://www.w3.org/2000/svg">
<circle opacity="0.2" cx="15" cy="15.8516" r="15" fill="url(#paint0_linear_3508_306)"/>
<path opacity="0.5" d="M20.424 30.2416C18.032 30.2416 16.2727 29.3229 15.146 27.4856C14.0193 25.6482 13.456 23.2562 13.456 20.3096C13.456 17.2762 14.002 14.8756 15.094 13.1076C16.186 11.3222 17.9627 10.4296 20.424 10.4296C25.052 10.4296 27.366 13.7229 27.366 20.3096C27.366 23.3082 26.8027 25.7176 25.676 27.5376C24.5493 29.3402 22.7987 30.2416 20.424 30.2416ZM20.424 27.5896C21.8453 27.5896 22.8247 26.9136 23.362 25.5616C23.9167 24.1922 24.194 22.4416 24.194 20.3096C24.194 18.0736 23.9253 16.3056 23.388 15.0056C22.8507 13.7056 21.8627 13.0556 20.424 13.0556C18.9853 13.0556 17.9887 13.7056 17.434 15.0056C16.8967 16.3056 16.628 18.0736 16.628 20.3096C16.628 25.1629 17.8933 27.5896 20.424 27.5896ZM32.188 11.0276L35.126 10.1956V29.8516H32.188V11.0276Z" fill="white"/>
<defs>
<linearGradient id="paint0_linear_3508_306" x1="15" y1="0.851562" x2="15" y2="30.8516" gradientUnits="userSpaceOnUse">
<stop stop-color="white"/>
<stop offset="1" stop-color="white" stop-opacity="0"/>
</linearGradient>
</defs>
</svg>
