<svg width="44" height="34" viewBox="0 0 44 34" fill="none" xmlns="http://www.w3.org/2000/svg">
<circle opacity="0.2" cx="15" cy="15.8516" r="15" fill="url(#paint0_linear_3508_303)"/>
<path opacity="0.5" d="M18.424 30.2416C16.032 30.2416 14.2727 29.3229 13.146 27.4856C12.0193 25.6482 11.456 23.2562 11.456 20.3096C11.456 17.2762 12.002 14.8756 13.094 13.1076C14.186 11.3222 15.9627 10.4296 18.424 10.4296C23.052 10.4296 25.366 13.7229 25.366 20.3096C25.366 23.3082 24.8027 25.7176 23.676 27.5376C22.5493 29.3402 20.7987 30.2416 18.424 30.2416ZM18.424 27.5896C19.8453 27.5896 20.8247 26.9136 21.362 25.5616C21.9167 24.1922 22.194 22.4416 22.194 20.3096C22.194 18.0736 21.9253 16.3056 21.388 15.0056C20.8507 13.7056 19.8627 13.0556 18.424 13.0556C16.9853 13.0556 15.9887 13.7056 15.434 15.0056C14.8967 16.3056 14.628 18.0736 14.628 20.3096C14.628 25.1629 15.8933 27.5896 18.424 27.5896ZM34.036 30.2416C32.9267 30.2416 31.8087 30.0856 30.682 29.7736C29.5727 29.4442 28.7667 29.0282 28.264 28.5256L29.486 26.0556C30.006 26.4716 30.6647 26.8356 31.462 27.1476C32.2593 27.4422 33.074 27.5896 33.906 27.5896C36.87 27.5896 38.352 26.3849 38.352 23.9756C38.352 22.9529 37.9447 22.1296 37.13 21.5056C36.3327 20.8816 35.2493 20.5696 33.88 20.5696C32.9267 20.5696 32.1207 20.6216 31.462 20.7256L36.246 13.2896H29.07V10.7416H41.42L36.012 18.4636C37.104 18.4982 38.066 18.7582 38.898 19.2436C39.7473 19.7289 40.3973 20.3702 40.848 21.1676C41.2987 21.9476 41.524 22.8142 41.524 23.7676C41.524 25.0156 41.2293 26.1336 40.64 27.1216C40.0507 28.0922 39.1927 28.8549 38.066 29.4096C36.9393 29.9642 35.596 30.2416 34.036 30.2416Z" fill="white"/>
<defs>
<linearGradient id="paint0_linear_3508_303" x1="15" y1="0.851562" x2="15" y2="30.8516" gradientUnits="userSpaceOnUse">
<stop stop-color="white"/>
<stop offset="1" stop-color="white" stop-opacity="0"/>
</linearGradient>
</defs>
</svg>
