<svg width="45" height="33" viewBox="0 0 45 33" fill="none" xmlns="http://www.w3.org/2000/svg">
<circle opacity="0.2" cx="15.5" cy="15" r="15" fill="url(#paint0_linear_3554_27)"/>
<path opacity="0.5" d="M18.924 29.39C16.532 29.39 14.7727 28.4713 13.646 26.634C12.5193 24.7967 11.956 22.4047 11.956 19.458C11.956 16.4247 12.502 14.024 13.594 12.256C14.686 10.4707 16.4627 9.578 18.924 9.578C23.552 9.578 25.866 12.8713 25.866 19.458C25.866 22.4567 25.3027 24.866 24.176 26.686C23.0493 28.4887 21.2987 29.39 18.924 29.39ZM18.924 26.738C20.3453 26.738 21.3247 26.062 21.862 24.71C22.4167 23.3407 22.694 21.59 22.694 19.458C22.694 17.222 22.4253 15.454 21.888 14.154C21.3507 12.854 20.3627 12.204 18.924 12.204C17.4853 12.204 16.4887 12.854 15.934 14.154C15.3967 15.454 15.128 17.222 15.128 19.458C15.128 24.3113 16.3933 26.738 18.924 26.738ZM37.24 24.216H28.504L33.99 9.24L36.694 10.254L32.56 21.486H37.24L37.396 17.144H40.282V21.486H42.934V24.216H40.282V29H37.24V24.216Z" fill="white"/>
<defs>
<linearGradient id="paint0_linear_3554_27" x1="15.5" y1="0" x2="15.5" y2="30" gradientUnits="userSpaceOnUse">
<stop stop-color="white"/>
<stop offset="1" stop-color="white" stop-opacity="0"/>
</linearGradient>
</defs>
</svg>
