<svg width="78" height="78" viewBox="0 0 78 78" fill="none" xmlns="http://www.w3.org/2000/svg">
<path fill-rule="evenodd" clip-rule="evenodd" d="M5.48939 53.7279C6.26212 54.0257 6.92963 54.2822 7.96251 53.8971C8.99484 53.5123 9.33206 52.8812 9.72132 52.1503C10.1591 51.3303 10.6543 50.4015 12.0971 49.8636C13.54 49.3258 14.5229 49.7036 15.39 50.0371C16.1633 50.3347 16.8308 50.5912 17.8631 50.2063C18.8955 49.8215 19.2322 49.1906 19.6214 48.4597C20.0586 47.6399 20.5544 46.7109 21.9967 46.1732C23.4395 45.6353 24.4221 46.0139 25.289 46.3469C26.0623 46.6444 26.7293 46.9012 27.7616 46.5163C28.7939 46.1315 29.1306 45.5006 29.5204 44.7695C29.9576 43.9497 30.4534 43.0207 31.8957 42.483C33.3385 41.9451 34.3209 42.3231 35.188 42.6567C35.9613 42.9542 36.6288 43.2108 37.6606 42.8261C38.6924 42.4415 39.0291 41.8106 39.4183 41.0797C39.8557 40.2605 40.3507 39.3311 41.793 38.7934C43.2353 38.2558 44.2184 38.6341 45.0854 38.9671C45.8586 39.2647 46.5262 39.5212 47.5585 39.1363C48.5908 38.7515 48.9275 38.1206 49.3173 37.3895C49.7545 36.5697 50.2503 35.6407 51.6926 35.103C53.1349 34.5654 54.1172 34.9433 54.9844 35.2769C55.7577 35.5744 56.4251 35.831 57.4575 35.4461C58.4898 35.0613 58.8265 34.4304 59.2163 33.6993C59.6535 32.8795 60.1487 31.9507 61.591 31.413C63.0339 30.8751 64.0162 31.2531 64.8834 31.5867C65.6567 31.8842 66.3242 32.1408 67.3565 31.7559C68.3894 31.3709 68.726 30.74 69.1153 30.0091C69.5525 29.1893 70.0483 28.2603 71.4911 27.7224C72.9334 27.1847 73.9163 27.5625 74.7835 27.8961C75.2393 28.0719 75.6605 28.2291 76.1394 28.253C76.2526 28.6407 76.3593 29.0283 76.46 29.4163C75.6332 29.4625 74.9728 29.2165 74.3714 28.9856C73.5983 28.6886 72.9308 28.4321 71.8991 28.8167C70.8667 29.2016 70.5295 29.8327 70.14 30.563C69.7028 31.3828 69.2071 32.3118 67.7642 32.8497C66.322 33.3874 65.339 33.0096 64.4719 32.676C63.6988 32.379 63.0313 32.1225 61.999 32.5073C60.9672 32.892 60.6305 33.5228 60.2405 34.2534C59.8033 35.0732 59.3081 36.0021 57.8652 36.5399C56.4229 37.0776 55.44 36.6998 54.5729 36.3662C53.7998 36.0692 53.1323 35.8127 52.1005 36.1973C51.0682 36.5822 50.7315 37.2131 50.3415 37.9436C49.9043 38.7634 49.4085 39.6925 47.9662 40.2301C46.5234 40.768 45.541 40.39 44.6741 40.057C43.9008 39.7594 43.2333 39.5029 42.201 39.8878C41.1692 40.2724 40.8325 40.9033 40.443 41.6336C40.0058 42.4534 39.5106 43.3823 38.0683 43.9199C36.626 44.4576 35.6437 44.0796 34.7765 43.746C34.0035 43.449 33.336 43.1925 32.3036 43.5773C31.2713 43.9622 30.9346 44.5931 30.5446 45.3236C30.1074 46.1434 29.6116 47.0725 28.1693 47.6101C26.7271 48.1478 25.7447 47.7698 24.8777 47.4368C24.1044 47.1392 23.437 46.8827 22.4046 47.2675C21.3729 47.6522 21.0361 48.2831 20.6461 49.0136C20.2089 49.8334 19.7132 50.7625 18.2709 51.3001C16.8286 51.8378 15.8457 51.46 14.9785 51.1264C14.2055 50.8294 13.538 50.5729 12.5051 50.958C11.4728 51.3428 11.136 51.9737 10.7462 52.7048C10.3088 53.5241 9.81309 54.4531 8.37025 54.9909C6.92742 55.5288 5.94448 55.151 5.07733 54.8175C4.59833 54.6333 4.15921 54.4652 3.64908 54.4555C3.48507 54.0779 3.32615 53.6971 3.17324 53.3123C4.11043 53.1999 4.8336 53.4758 5.48939 53.7279ZM9.60419 58.301C10.6365 57.9161 10.9737 57.2851 11.363 56.5542C11.8007 55.7341 12.296 54.8053 13.7388 54.2674C15.1816 53.7296 16.1645 54.1074 17.0317 54.4409C17.805 54.7385 18.4725 54.995 19.5048 54.6102C20.5372 54.2253 20.8738 53.5945 21.2631 52.8635C21.7003 52.0437 22.1961 51.1147 23.6384 50.577C25.0812 50.0392 26.0638 50.4177 26.9307 50.7507C27.704 51.0483 28.3709 51.305 29.4033 50.9202C30.4356 50.5353 30.7723 49.9044 31.1621 49.1733C31.5993 48.3535 32.0951 47.4245 33.5374 46.8868C34.9802 46.349 35.9626 46.727 36.8297 47.0605C37.603 47.3581 38.2705 47.6146 39.3023 47.23C40.334 46.8453 40.6707 46.2145 41.06 45.4835C41.4974 44.6643 41.9924 43.7349 43.4347 43.1972C44.877 42.6596 45.8601 43.0379 46.727 43.3709C47.5003 43.6685 48.1678 43.925 49.2002 43.5402C50.2325 43.1553 50.5692 42.5245 50.959 41.7933C51.3962 40.9735 51.892 40.0445 53.3343 39.5068C54.7765 38.9692 55.7589 39.3472 56.6261 39.6807C57.3994 39.9783 58.0668 40.2348 59.0992 39.85C60.1315 39.4651 60.4682 38.8343 60.858 38.1031C61.2952 37.2833 61.7904 36.3545 63.2327 35.8168C64.6755 35.279 65.6579 35.657 66.5251 35.9905C67.2983 36.2881 67.9658 36.5446 68.9982 36.1597C70.0311 35.7747 70.3677 35.1438 70.757 34.4129C71.1942 33.5931 71.69 32.6641 73.1328 32.1262C74.5751 31.5886 75.558 31.9663 76.4252 32.2999C76.6665 32.3928 76.8978 32.4788 77.1327 32.5459C77.204 32.958 77.2682 33.3697 77.3263 33.7817C76.8423 33.7038 76.4143 33.5435 76.0131 33.3894C75.24 33.0924 74.5725 32.8359 73.5407 33.2206C72.5084 33.6054 72.1712 34.2365 71.7817 34.9668C71.3445 35.7867 70.8488 36.7157 69.4059 37.2535C67.9636 37.7912 66.9807 37.4134 66.1135 37.0798C65.3405 36.7829 64.673 36.5263 63.6407 36.9112C62.6089 37.2958 62.2722 37.9267 61.8822 38.6572C61.445 39.4771 60.9497 40.4059 59.5069 40.9437C58.0646 41.4814 57.0817 41.1036 56.2145 40.77C55.4415 40.4731 54.774 40.2165 53.7422 40.6012C52.7099 40.986 52.3732 41.6169 51.9832 42.3475C51.546 43.1673 51.0502 44.0963 49.6079 44.6339C48.1651 45.1718 47.1827 44.7938 46.3156 44.4602C45.5425 44.1633 44.875 43.9067 43.8426 44.2916C42.8109 44.6762 42.4742 45.3071 42.0847 46.0375C41.6475 46.8573 41.1523 47.7861 39.71 48.3237C38.2677 48.8614 37.2854 48.4834 36.4182 48.1498C35.6451 47.8528 34.9776 47.5963 33.9453 47.9812C32.913 48.366 32.5763 48.9969 32.1863 49.7275C31.7491 50.5473 31.2533 51.4763 29.811 52.0139C28.3687 52.5516 27.3864 52.1736 26.5192 51.84C25.7461 51.5431 25.0787 51.2865 24.0463 51.6714C23.0145 52.056 22.6778 52.6869 22.2878 53.4175C21.8506 54.2373 21.3549 55.1663 19.9126 55.7039C18.4703 56.2416 17.4874 55.8638 16.6202 55.5302C15.8471 55.2333 15.1796 54.9767 14.1468 55.3618C13.1144 55.7466 12.7777 56.3775 12.3877 57.1081C11.9505 57.9279 11.4548 58.8569 10.0119 59.3948C8.5691 59.9326 7.58617 59.5548 6.71901 59.2213C6.46288 59.1225 6.21762 59.0311 5.96687 58.9636C5.71665 58.5453 5.47259 58.1215 5.23686 57.6914C5.97486 57.6903 6.57728 57.919 7.13107 58.1318C7.9038 58.4295 8.57131 58.686 9.60419 58.301ZM11.2459 62.7048C12.2782 62.32 12.6152 61.6883 13.0047 60.958C13.4424 60.138 13.9377 59.2091 15.3805 58.6713C16.8233 58.1334 17.8062 58.5112 18.6734 58.8448C19.4465 59.1418 20.1142 59.3988 21.1465 59.014C22.1788 58.6291 22.5153 57.9977 22.9048 57.2674C23.342 56.4475 23.8378 55.5185 25.2801 54.9809C26.7229 54.443 27.7053 54.821 28.5724 55.1546C29.3455 55.4515 30.0126 55.7088 31.045 55.324C32.0773 54.9391 32.4138 54.3077 32.8038 53.5771C33.241 52.7573 33.7368 51.8283 35.179 51.2907C36.6219 50.7528 37.6042 51.1308 38.4714 51.4644C39.2445 51.7613 39.9122 52.0184 40.9439 51.6338C41.9757 51.2492 42.3122 50.6177 42.7017 49.8874C43.1389 49.0676 43.6341 48.1387 45.0764 47.6011C46.5187 47.0634 47.5016 47.4412 48.3687 47.7748C49.1418 48.0718 49.8095 48.3288 50.8419 47.944C51.8742 47.5591 52.2107 46.9277 52.6007 46.1971C53.0379 45.3773 53.5337 44.4483 54.9759 43.9107C56.4182 43.373 57.4006 43.751 58.2677 44.0846C59.0408 44.3815 59.7085 44.6386 60.7408 44.2538C61.7732 43.8689 62.1097 43.2375 62.4997 42.5069C62.9369 41.6871 63.4321 40.7583 64.8744 40.2207C66.3172 39.6828 67.2996 40.0608 68.1667 40.3944C68.9398 40.6913 69.6075 40.9484 70.6399 40.5636C71.6727 40.1785 72.0092 39.5471 72.3987 38.8167C72.8359 37.9969 73.3316 37.0679 74.7745 36.53C75.9718 36.0837 76.8505 36.2697 77.611 36.5361C77.6402 36.9583 77.663 37.3804 77.6782 37.8021C77.6701 37.7989 77.6621 37.7962 77.6548 37.7933C76.8817 37.4963 76.214 37.2392 75.1822 37.6238C74.1499 38.0087 73.8128 38.6403 73.4234 39.3707C72.9862 40.1905 72.4904 41.1195 71.0476 41.6574C69.6053 42.195 68.6224 41.8172 67.7552 41.4837C66.9821 41.1867 66.3145 40.9296 65.2821 41.3144C64.2504 41.6991 63.9139 42.3305 63.5239 43.0611C63.0867 43.8809 62.5914 44.8097 61.1486 45.3476C59.7063 45.8852 58.7234 45.5074 57.8562 45.1739C57.0832 44.8769 56.4155 44.6198 55.3837 45.0044C54.3514 45.3893 54.0149 46.0207 53.6248 46.7513C53.1876 47.5711 52.6919 48.5001 51.2496 49.0378C49.8068 49.5756 48.8244 49.1976 47.9572 48.8641C47.1842 48.5671 46.5164 48.31 45.4841 48.6949C44.4523 49.0795 44.1158 49.7109 43.7264 50.4413C43.2892 51.2611 42.794 52.1899 41.3517 52.7276C39.9094 53.2652 38.9271 52.8872 38.0599 52.5537C37.2868 52.2567 36.6191 51.9996 35.5868 52.3844C34.5545 52.7693 34.218 53.4007 33.8279 54.1313C33.3907 54.9511 32.895 55.8801 31.4527 56.4178C30.0104 56.9554 29.028 56.5774 28.1609 56.2439C27.3878 55.9469 26.7201 55.6898 25.6878 56.0746C24.656 56.4593 24.3195 57.0907 23.9295 57.8213C23.4923 58.6411 22.9965 59.5701 21.5543 60.1078C20.112 60.6454 19.1291 60.2676 18.2619 59.9341C17.4888 59.6371 16.8211 59.38 15.7882 59.7651C14.7559 60.1499 14.4194 60.7813 14.0294 61.5119C13.5922 62.3317 13.0965 63.2607 11.6536 63.7986C10.8227 64.1083 10.1473 64.1106 9.55598 63.996C9.10349 63.4582 8.66543 62.9068 8.2405 62.3418C8.42323 62.4038 8.60126 62.47 8.77275 62.5356C9.54527 62.8328 10.213 63.0898 11.2459 62.7048ZM14.6464 65.3618C15.0841 64.5418 15.5793 63.613 17.0222 63.0751C18.465 62.5372 19.4479 62.915 20.3151 63.2486C21.0881 63.5456 21.7559 63.8026 22.7882 63.4178C23.8205 63.033 24.157 62.4015 24.5465 61.6712C24.9837 60.8514 25.4795 59.9223 26.9217 59.3847C28.3646 58.8468 29.3469 59.2248 30.2141 59.5584C30.9872 59.8554 31.6543 60.1126 32.6866 59.7278C33.719 59.343 34.0555 58.7115 34.4455 57.981C34.8827 57.1612 35.3784 56.2321 36.8207 55.6945C38.2636 55.1566 39.2459 55.5346 40.1131 55.8682C40.8862 56.1652 41.5538 56.4222 42.5856 56.0376C43.6174 55.653 43.9539 55.0216 44.3434 54.2912C44.7805 53.4714 45.2758 52.5426 46.7181 52.0049C48.1603 51.4672 49.1433 51.845 50.0104 52.1786C50.7835 52.4756 51.4512 52.7326 52.4835 52.3478C53.5159 51.963 53.8524 51.3315 54.2424 50.601C54.6796 49.7812 55.1753 48.8522 56.6176 48.3145C58.0599 47.7768 59.0423 48.1548 59.9094 48.4884C60.6825 48.7854 61.3502 49.0424 62.3825 48.6576C63.4149 48.2728 63.7513 47.6413 64.1414 46.9108C64.5786 46.091 65.0738 45.1622 66.5161 44.6245C67.9589 44.0866 68.9413 44.4646 69.8084 44.7982C70.5815 45.0952 71.2492 45.3522 72.2815 44.9674C73.3144 44.5824 73.6509 43.9509 74.0404 43.2206C74.4775 42.4008 74.9733 41.4717 76.4162 40.9339C76.8796 40.7611 77.2912 40.69 77.6713 40.6747C77.6556 41.0658 77.6336 41.4568 77.6061 41.8467C77.3663 41.8676 77.1097 41.9211 76.8239 42.0277C75.7916 42.4125 75.4545 43.0441 75.0651 43.7745C74.6279 44.5943 74.1321 45.5233 72.6893 46.0612C71.247 46.5988 70.2641 46.2211 69.3969 45.8875C68.6238 45.5905 67.9561 45.3334 66.9238 45.7183C65.892 46.1029 65.5556 46.7343 65.1655 47.4649C64.7283 48.2847 64.2331 49.2135 62.7903 49.7514C61.348 50.289 60.3651 49.9113 59.4979 49.5777C58.7248 49.2807 58.0571 49.0236 57.0254 49.4083C55.993 49.7931 55.6565 50.4245 55.2665 51.1551C54.8293 51.9749 54.3336 52.9039 52.8913 53.4416C51.4484 53.9795 50.4661 53.6015 49.5989 53.2679C48.8258 52.9709 48.1581 52.7138 47.1258 53.0987C46.094 53.4833 45.7575 54.1147 45.3681 54.8451C44.9309 55.6649 44.4357 56.5937 42.9934 57.1314C41.5511 57.669 40.5687 57.2911 39.7016 56.9575C38.9285 56.6605 38.2608 56.4034 37.2285 56.7883C36.1961 57.1731 35.8596 57.8045 35.4696 58.5351C35.0324 59.3549 34.5367 60.2839 33.0944 60.8216C31.6521 61.3592 30.6697 60.9813 29.8026 60.6477C29.0295 60.3507 28.3618 60.0936 27.3295 60.4785C26.2977 60.8631 25.9612 61.4945 25.5712 62.2251C25.134 63.0449 24.6382 63.9739 23.1959 64.5116C21.7537 65.0492 20.7707 64.6715 19.9036 64.3379C19.1305 64.0409 18.4628 63.7838 17.4299 64.1689C16.3976 64.5537 16.0611 65.1851 15.6711 65.9157C15.262 66.6829 14.7908 67.5412 13.5518 68.0898C13.224 67.8003 12.9018 67.5043 12.5829 67.2033C12.6816 67.1766 12.7816 67.1481 12.8876 67.1086C13.9199 66.7238 14.2569 66.0922 14.6464 65.3618ZM18.6639 67.4789C20.1067 66.9411 21.0896 67.3188 21.9568 67.6524C22.7298 67.9494 23.3975 68.2065 24.4299 67.8216C25.4622 67.4368 25.7987 66.8054 26.1881 66.075C26.6253 65.2552 27.1211 64.3262 28.5634 63.7885C30.0063 63.2506 30.9888 63.6292 31.8558 63.9622C32.6289 64.2592 33.296 64.5165 34.3283 64.1316C35.3607 63.7468 35.6972 63.1154 36.0872 62.3848C36.5244 61.565 37.0201 60.636 38.4624 60.0983C39.9052 59.5604 40.8876 59.9384 41.7548 60.272C42.5278 60.569 43.1955 60.8261 44.2273 60.4414C45.2591 60.0568 45.5956 59.4254 45.985 58.695C46.4224 57.8758 46.9175 56.9464 48.3597 56.4087C49.802 55.8711 50.7851 56.2494 51.6521 56.5824C52.4252 56.8794 53.0929 57.1365 54.1252 56.7516C55.1575 56.3668 55.494 55.7354 55.8841 55.0048C56.3213 54.185 56.817 53.256 58.2593 52.7183C59.7016 52.1806 60.684 52.5586 61.5511 52.8922C62.3242 53.1892 62.9919 53.4463 64.0242 53.0614C65.0565 52.6766 65.393 52.0452 65.7831 51.3146C66.2202 50.4948 66.7155 49.566 68.1577 49.0283C69.6006 48.4904 70.5829 48.8684 71.4501 49.202C72.2232 49.499 72.8909 49.7561 73.9232 49.3712C74.9561 48.9862 75.2926 48.3548 75.682 47.6244C76.0068 47.0156 76.3659 46.3468 77.1197 45.8219C76.9668 46.6979 76.7842 47.5668 76.5726 48.4269C76.1603 49.1803 75.6298 49.9808 74.331 50.465C72.8887 51.0027 71.9057 50.6249 71.0386 50.2913C70.2655 49.9943 69.5978 49.7373 68.5655 50.1221C67.5337 50.5067 67.1972 51.1381 66.8072 51.8687C66.37 52.6885 65.8748 53.6173 64.432 54.1552C62.9897 54.6929 62.0067 54.3151 61.1396 53.9815C60.3665 53.6845 59.6988 53.4275 58.667 53.8121C57.6347 54.1969 57.2982 54.8284 56.9082 55.5589C56.471 56.3787 55.9752 57.3078 54.533 57.8454C53.0901 58.3833 52.1078 58.0053 51.2406 57.6717C50.4675 57.3747 49.7998 57.1177 48.7675 57.5025C47.7357 57.8871 47.3992 58.5186 47.0098 59.2489C46.5726 60.0687 46.0773 60.9976 44.6351 61.5352C43.1928 62.0729 42.2104 61.6949 41.3433 61.3613C40.5702 61.0643 39.9025 60.8073 38.8701 61.1921C37.8378 61.5769 37.5013 62.2084 37.1113 62.9389C36.6741 63.7587 36.1784 64.6878 34.7361 65.2254C33.2938 65.7631 32.3114 65.3851 31.4443 65.0515C30.6712 64.7545 30.0035 64.4975 28.9712 64.8823C27.9394 65.2669 27.6029 65.8984 27.2129 66.6289C26.7757 67.4487 26.2799 68.3778 24.8376 68.9154C23.3953 69.4531 22.4124 69.0753 21.5453 68.7417C20.7722 68.4447 20.1045 68.1877 19.0716 68.5727C18.0393 68.9575 17.7028 69.589 17.3128 70.3195C17.2243 70.4851 17.1314 70.6555 17.0308 70.8257C16.7112 70.6022 16.3944 70.3746 16.0814 70.1418C16.1509 70.0198 16.2194 69.8949 16.2881 69.7656C16.7258 68.9456 17.221 68.0168 18.6639 67.4789ZM23.5984 72.0562C24.3715 72.3532 25.039 72.6097 26.0714 72.2249C27.1037 71.8401 27.4404 71.2092 27.8298 70.4788C28.267 69.659 28.7628 68.73 30.2051 68.1923C31.6479 67.6545 32.6303 68.0325 33.4975 68.366C34.2705 68.663 34.9375 68.9197 35.9698 68.5349C37.0021 68.1501 37.3388 67.5192 37.7288 66.7886C38.166 65.9688 38.6618 65.0398 40.1041 64.5021C41.5469 63.9643 42.5293 64.3423 43.3964 64.6758C44.1695 64.9728 44.837 65.2293 45.8688 64.8447C46.9006 64.4601 47.2373 63.8292 47.6267 63.0988C48.0639 62.279 48.5591 61.3502 50.0014 60.8125C51.4437 60.2749 52.4266 60.6527 53.2938 60.9862C54.0669 61.2832 54.7344 61.5397 55.7667 61.1549C56.799 60.7701 57.1357 60.1392 57.5257 59.4086C57.9629 58.5888 58.4587 57.6598 59.901 57.1221C61.3433 56.5845 62.3256 56.9625 63.1928 57.296C63.9659 57.593 64.6334 57.8495 65.6657 57.4647C66.698 57.0799 67.0347 56.449 67.4247 55.7184C67.8619 54.8986 68.3571 53.9698 69.7994 53.4321C71.2423 52.8943 72.2246 53.2723 73.0918 53.6058C73.6448 53.8183 74.1452 54.0057 74.7617 53.9569C74.6015 54.3466 74.436 54.7352 74.2624 55.1192C73.6647 55.0667 73.1534 54.877 72.6803 54.6951C71.9072 54.3982 71.2395 54.1411 70.2072 54.5259C69.1754 54.9106 68.8389 55.542 68.4489 56.2725C68.0117 57.0923 67.5165 58.0212 66.0736 58.559C64.6314 59.0967 63.6482 58.7184 62.7813 58.3853C62.0082 58.0884 61.3405 57.8313 60.3087 58.2159C59.2764 58.6008 58.9399 59.2322 58.5499 59.9627C58.1125 60.782 57.6169 61.7116 56.1746 62.2492C54.7318 62.7871 53.7494 62.4091 52.8823 62.0755C52.1092 61.7786 51.4415 61.5215 50.4092 61.9063C49.3774 62.291 49.0409 62.9224 48.6514 63.6527C48.214 64.472 47.719 65.4014 46.2767 65.939C44.8345 66.4767 43.8521 66.0987 42.985 65.7651C42.2119 65.4681 41.5442 65.2111 40.5118 65.5959C39.4795 65.9808 39.143 66.6122 38.753 67.3427C38.3158 68.1626 37.82 69.0916 36.3778 69.6292C34.9355 70.1669 33.9531 69.7889 33.0859 69.4553C32.3129 69.1584 31.6452 68.9013 30.6128 69.2861C29.5811 69.6707 29.2446 70.3022 28.8545 71.0327C28.4173 71.8526 27.9216 72.7816 26.4793 73.3192C25.037 73.8569 24.0541 73.4791 23.187 73.1455C22.4139 72.8486 21.7462 72.5915 20.7133 72.9765C20.6653 72.9944 20.626 73.0154 20.581 73.0346C20.1795 72.8141 19.7835 72.5846 19.3899 72.3498C19.6454 72.1754 19.9463 72.0166 20.3055 71.8827C21.7484 71.3449 22.7313 71.7227 23.5984 72.0562ZM31.8468 72.5962C33.2896 72.0583 34.272 72.4363 35.1391 72.7698C35.9122 73.0668 36.5794 73.3241 37.6117 72.9393C38.644 72.5544 38.9805 71.923 39.3705 71.1924C39.8077 70.3726 40.3035 69.4436 41.7458 68.906C43.1886 68.3681 44.171 68.7461 45.0381 69.0796C45.8112 69.3766 46.4789 69.6337 47.5107 69.2491C48.5425 68.8644 48.8789 68.233 49.2684 67.5027C49.7056 66.6828 50.2008 65.754 51.6431 65.2164C53.0854 64.6787 54.0683 65.0565 54.9355 65.3901C55.7085 65.687 56.3763 65.9441 57.4086 65.5593C58.4409 65.1744 58.7774 64.543 59.1674 63.8124C59.6046 62.9926 60.1004 62.0636 61.5427 61.526C62.9849 60.9883 63.9673 61.3663 64.8345 61.6999C65.6076 61.9968 66.2752 62.2539 67.3076 61.8691C68.3399 61.4842 68.6764 60.8528 69.0664 60.1222C69.5036 59.3024 69.9988 58.3736 71.4411 57.836C72.0519 57.6083 72.5764 57.5504 73.0486 57.578C72.8291 57.9854 72.6016 58.3883 72.3676 58.7873C72.204 58.8187 72.0337 58.8608 71.8489 58.9297C70.8171 59.3144 70.4806 59.9458 70.0906 60.6764C69.6534 61.4962 69.1581 62.425 67.7153 62.9629C66.273 63.5005 65.2899 63.1222 64.423 62.7892C63.6499 62.4922 62.9822 62.2351 61.9504 62.6197C60.9181 63.0046 60.5816 63.636 60.1916 64.3666C59.7542 65.1858 59.2586 66.1154 57.8163 66.6531C56.3735 67.1909 55.3911 66.8129 54.524 66.4794C53.7509 66.1824 53.0832 65.9253 52.0509 66.3102C51.0191 66.6948 50.6826 67.3262 50.2931 68.0566C49.8557 68.8758 49.3607 69.8052 47.9184 70.3429C46.4761 70.8805 45.4938 70.5025 44.6266 70.169C43.8536 69.872 43.1858 69.6149 42.1535 69.9997C41.1212 70.3846 40.7847 71.016 40.3947 71.7466C39.9575 72.5664 39.4617 73.4954 38.0194 74.0331C36.5771 74.5707 35.5948 74.1927 34.7276 73.8592C33.9545 73.5622 33.2869 73.3051 32.2545 73.6899C31.2228 74.0746 30.8862 74.706 30.4962 75.4366C30.2858 75.8312 30.0586 76.2502 29.7224 76.6396C29.2768 76.5266 28.8336 76.4065 28.3929 76.2779C28.9235 75.9059 29.1841 75.4216 29.4715 74.8827C29.9087 74.0628 30.4045 73.1338 31.8468 72.5962ZM36.7808 77.1737C37.5539 77.4707 38.2208 77.7274 39.2532 77.3426C40.2855 76.9577 40.6222 76.3268 41.0122 75.5963C41.4494 74.7765 41.9452 73.8474 43.3875 73.3098C44.8303 72.7719 45.8127 73.1499 46.6798 73.4835C47.4529 73.7805 48.1204 74.037 49.1522 73.6524C50.1839 73.2677 50.5206 72.6369 50.9101 71.9065C51.3473 71.0867 51.8425 70.1579 53.2848 69.6202C54.7271 69.0825 55.71 69.4603 56.5771 69.7939C57.3502 70.0909 58.0177 70.3474 59.0501 69.9626C60.0824 69.5777 60.4191 68.9468 60.8089 68.2157C61.2463 67.3965 61.7421 66.4674 63.1843 65.9298C64.6266 65.3921 65.609 65.7701 66.476 66.1031C66.5625 66.1362 66.6467 66.1683 66.7307 66.1999C66.4342 66.5053 66.1321 66.8058 65.8244 67.1015C65.1477 66.8491 64.5157 66.6792 63.5921 67.0236C62.5598 67.4084 62.2231 68.0393 61.833 68.7698C61.3959 69.5897 60.9003 70.5192 59.458 71.0569C58.0152 71.5948 57.0326 71.2162 56.1657 70.8832C55.3924 70.5857 54.7249 70.3291 53.6925 70.714C52.6608 71.0986 52.3241 71.7295 51.9346 72.4598C51.4974 73.2797 51.0024 74.209 49.5601 74.7467C48.1178 75.2843 47.1353 74.9058 46.2681 74.5722C45.495 74.2752 44.8275 74.0187 43.7952 74.4036C42.7629 74.7884 42.4262 75.4193 42.0361 76.1498C41.7428 76.6998 41.4161 77.2968 40.8019 77.7935C38.1206 77.9068 35.4572 77.7381 32.8515 77.3009C33.0436 77.1922 33.249 77.0893 33.4885 77C34.9313 76.4621 35.9137 76.8401 36.7808 77.1737ZM70.2574 24.4129C69.2251 24.7977 68.8878 25.4288 68.4983 26.1592C68.0611 26.979 67.5656 27.9086 66.1228 28.4464C64.6805 28.9841 63.6973 28.6058 62.8302 28.2722C62.0571 27.9752 61.3896 27.7187 60.3573 28.1035C59.3255 28.4882 58.9888 29.119 58.5988 29.8496C58.1616 30.6694 57.6666 31.5988 56.2237 32.1366C54.7815 32.6743 53.7983 32.296 52.9312 31.9624C52.1581 31.6654 51.4906 31.4089 50.4588 31.7935C49.4265 32.1784 49.0898 32.8092 48.6998 33.5398C48.2626 34.3596 47.767 35.2892 46.3248 35.8268C44.8819 36.3647 43.8994 35.9862 43.0324 35.6532C42.2591 35.3556 41.5916 35.0991 40.5593 35.4839C39.5275 35.8686 39.1908 36.4994 38.8013 37.2298C38.3641 38.0496 37.8691 38.979 36.4269 39.5166C34.9846 40.0543 34.002 39.6758 33.1349 39.3422C32.3618 39.0452 31.6943 38.7887 30.6619 39.1735C29.6296 39.5584 29.2929 40.1892 28.9029 40.9198C28.4657 41.7396 27.9701 42.6692 26.5279 43.2068C25.0856 43.7445 24.103 43.366 23.236 43.033C22.4628 42.7354 21.7953 42.4789 20.763 42.8637C19.7312 43.2484 19.3945 43.8792 19.0044 44.6098C18.5673 45.4296 18.0717 46.3592 16.6294 46.8968C15.1871 47.4345 14.204 47.0562 13.3369 46.7226C12.5638 46.4256 11.8963 46.1691 10.8634 46.5541C9.83107 46.939 9.49436 47.5698 9.10455 48.301C8.66715 49.1202 8.17161 50.0498 6.72878 50.5877C5.28594 51.1255 4.3028 50.7472 3.43564 50.4136C2.96684 50.2333 2.53537 50.0704 2.03917 50.0542C1.92314 49.6688 1.81249 49.2827 1.70929 48.8962C2.55967 48.8376 3.23461 49.0888 3.84791 49.3247C4.62043 49.6219 5.28795 49.8784 6.32082 49.4933C7.35315 49.1085 7.69038 48.4774 8.07964 47.7465C8.51759 46.927 9.01282 45.9982 10.4556 45.4604C11.8985 44.9225 12.8814 45.3003 13.7485 45.6338C14.5216 45.9308 15.1891 46.1873 16.2215 45.8025C17.2538 45.4177 17.5905 44.7868 17.9799 44.0564C18.4171 43.2366 18.9129 42.3076 20.3552 41.7699C21.798 41.2321 22.7804 41.6101 23.6476 41.9436C24.4206 42.2406 25.0876 42.4973 26.1199 42.1125C27.1522 41.7277 27.4889 41.0968 27.879 40.3662C28.3162 39.5464 28.8119 38.6174 30.2542 38.0797C31.697 37.5419 32.6794 37.9199 33.5466 38.2534C34.3196 38.5504 34.9871 38.8069 36.0189 38.4223C37.0507 38.0377 37.3874 37.4068 37.7768 36.6764C38.214 35.8566 38.7093 34.9278 40.1515 34.3902C41.5938 33.8525 42.5767 34.2303 43.4439 34.5638C44.217 34.8608 44.8845 35.1173 45.9168 34.7325C46.9491 34.3477 47.2858 33.7168 47.6757 32.9857C48.113 32.1664 48.6088 31.2374 50.0511 30.6997C51.4934 30.1621 52.4758 30.5401 53.3427 30.8731C54.116 31.1706 54.7835 31.4271 55.8158 31.0423C56.8481 30.6575 57.1848 30.0266 57.5748 29.296C58.012 28.4762 58.5073 27.5474 59.9495 27.0097C61.3924 26.4719 62.3747 26.8499 63.2417 27.1829C64.015 27.4804 64.6825 27.7369 65.7148 27.3521C66.7477 26.9671 67.0844 26.3362 67.4738 25.6058C67.911 24.786 68.4068 23.857 69.8496 23.3191C71.2919 22.7815 72.2748 23.1592 73.142 23.4928C73.6202 23.6766 74.0586 23.8444 74.5676 23.8545C74.7287 24.2326 74.8832 24.615 75.0326 25.0005C74.1019 25.1086 73.3827 24.833 72.7297 24.5818C71.9566 24.2848 71.2892 24.0283 70.2574 24.4129ZM68.6157 20.0091C67.5834 20.3939 67.2461 21.025 66.8567 21.7554C66.4195 22.5752 65.9239 23.5047 64.4811 24.0426C63.0388 24.5803 62.0556 24.202 61.1885 23.8684C60.4154 23.5714 59.7479 23.3149 58.7156 23.6997C57.6838 24.0843 57.3471 24.7152 56.9571 25.4458C56.5199 26.2656 56.0249 27.1949 54.5821 27.7328C53.1398 28.2705 52.1567 27.8922 51.2895 27.5586C50.5164 27.2616 49.8489 27.0051 48.8172 27.3897C47.7848 27.7745 47.4481 28.4054 47.0581 29.136C46.6209 29.9558 46.1254 30.8854 44.6831 31.423C43.2402 31.9609 42.2577 31.5823 41.3907 31.2493C40.6174 30.9518 39.9499 30.6953 38.9176 31.0801C37.8858 31.4647 37.5491 32.0956 37.1597 32.826C36.7225 33.6458 36.2274 34.5752 34.7852 35.1128C33.3429 35.6505 32.3603 35.2719 31.4932 34.9384C30.7201 34.6414 30.0526 34.3849 29.0203 34.7697C27.9879 35.1545 27.6512 35.7854 27.2612 36.516C26.824 37.3358 26.3285 38.2654 24.8862 38.803C23.4439 39.3407 22.4613 38.9621 21.5944 38.6291C20.8211 38.3316 20.1536 38.0751 19.1213 38.4599C18.0895 38.8445 17.7528 39.4754 17.3628 40.206C16.9256 41.0258 16.43 41.9554 14.9877 42.493C13.5454 43.0307 12.5623 42.6523 11.6952 42.3188C10.9221 42.0218 10.2546 41.7653 9.22171 42.1503C8.18939 42.5351 7.85268 43.166 7.46286 43.8971C7.02547 44.7164 6.52993 45.646 5.08709 46.1838C3.64426 46.7217 2.66112 46.3434 1.79397 46.0098C1.52461 45.9059 1.26744 45.8095 1.00305 45.7408C0.929598 45.3314 0.864142 44.9215 0.803362 44.5123C1.32572 44.5834 1.78012 44.7572 2.20623 44.9208C2.97875 45.218 3.64627 45.4745 4.67914 45.0895C5.71147 44.7047 6.04869 44.0736 6.43796 43.3427C6.8759 42.5232 7.37093 41.5938 8.81376 41.056C10.2566 40.5181 11.2397 40.8965 12.1069 41.23C12.8799 41.527 13.5475 41.7835 14.5798 41.3987C15.6121 41.0139 15.9488 40.383 16.3383 39.6526C16.7755 38.8328 17.271 37.9032 18.7133 37.3656C20.1562 36.8277 21.1387 37.2062 22.0059 37.5398C22.779 37.8368 23.4459 38.0935 24.4782 37.7087C25.5106 37.3239 25.8473 36.693 26.2373 35.9624C26.6745 35.1426 27.17 34.213 28.6123 33.6754C30.0551 33.1375 31.0377 33.516 31.9049 33.8496C32.6779 34.1466 33.3454 34.4031 34.3772 34.0185C35.409 33.6339 35.7457 33.003 36.1352 32.2726C36.5723 31.4528 37.0674 30.5234 38.5096 29.9858C39.9519 29.4481 40.9351 29.8265 41.8022 30.16C42.5753 30.457 43.2428 30.7135 44.2751 30.3287C45.3075 29.9439 45.6442 29.313 46.034 28.5819C46.4714 27.7626 46.9669 26.833 48.4092 26.2954C49.8515 25.7577 50.8341 26.1362 51.701 26.4693C52.4743 26.7668 53.1418 27.0233 54.1741 26.6385C55.2064 26.2537 55.5431 25.6228 55.9332 24.8922C56.3704 24.0724 56.8654 23.143 58.3077 22.6054C59.7505 22.0675 60.7331 22.446 61.6 22.7791C62.3733 23.0766 63.0408 23.3331 64.0731 22.9483C65.106 22.5632 65.4427 21.9324 65.8321 21.202C66.2693 20.3822 66.7649 19.4526 68.2077 18.9147C69.65 18.3771 70.6332 18.7554 71.5003 19.089C71.7768 19.1952 72.0397 19.2952 72.311 19.3638C72.5524 19.7754 72.7859 20.1943 73.0134 20.6174C72.2618 20.6242 71.6494 20.3942 71.088 20.178C70.315 19.881 69.6475 19.6245 68.6157 20.0091ZM66.974 15.6053C65.9417 15.9901 65.6044 16.6212 65.215 17.3515C64.7778 18.1714 64.2822 19.1009 62.8394 19.6388C61.3971 20.1765 60.414 19.7981 59.5468 19.4646C58.7737 19.1676 58.1062 18.911 57.0739 19.2959C56.0421 19.6805 55.7055 20.3114 55.3154 21.0419C54.8783 21.8618 54.3832 22.7911 52.9404 23.329C51.4981 23.8667 50.515 23.4883 49.6478 23.1548C48.8747 22.8578 48.2072 22.6012 47.1755 22.9859C46.1431 23.3707 45.8064 24.0016 45.4164 24.7322C44.9792 25.552 44.4837 26.4815 43.0414 27.0192C41.5986 27.5571 40.616 27.1785 39.749 26.8455C38.9758 26.548 38.3082 26.2914 37.2759 26.6763C36.2441 27.0609 35.9074 27.6918 35.518 28.4222C35.0808 29.242 34.5858 30.1713 33.1435 30.709C31.7012 31.2467 30.7186 30.8681 29.8515 30.5345C29.0784 30.2376 28.4109 29.981 27.3786 30.3659C26.3462 30.7507 26.0095 31.3816 25.6195 32.1122C25.1823 32.932 24.6868 33.8615 23.2445 34.3992C21.8022 34.9369 20.8196 34.5583 19.9527 34.2253C19.1794 33.9278 18.5119 33.6712 17.4796 34.0561C16.4478 34.4407 16.1111 35.0716 15.7211 35.8022C15.2839 36.622 14.7883 37.5515 13.3461 38.0892C11.9038 38.6269 10.9206 38.2485 10.0535 37.9149C9.28041 37.618 8.61291 37.3614 7.58003 37.7465C6.5477 38.1313 6.211 38.7622 5.82118 39.4933C5.38379 40.3126 4.88825 41.2421 3.44541 41.78C2.18907 42.2484 1.28209 42.022 0.495966 41.7356C0.463894 41.3107 0.439672 40.8866 0.422551 40.4631C0.46938 40.4808 0.51771 40.4993 0.564546 40.517C1.33707 40.8142 2.00459 41.0707 3.03746 40.6857C4.06979 40.3008 4.40701 39.6698 4.79627 38.9388C5.23422 38.1194 5.72945 37.1906 7.17228 36.6527C8.61512 36.1148 9.59802 36.4926 10.4652 36.8262C11.2383 37.1232 11.9058 37.3797 12.9381 36.9949C13.9704 36.61 14.3071 35.9792 14.6966 35.2488C15.1338 34.429 15.6296 33.4999 17.0718 32.9623C18.5147 32.4244 19.497 32.8024 20.3642 33.136C21.1373 33.433 21.8042 33.6897 22.8365 33.3049C23.8689 32.92 24.2056 32.2891 24.5956 31.5586C25.0328 30.7388 25.5285 29.8097 26.9708 29.2721C28.4137 28.7342 29.396 29.1122 30.2632 29.4458C31.0363 29.7428 31.7038 29.9993 32.7355 29.6147C33.7673 29.23 34.104 28.5992 34.4935 27.8688C34.9307 27.049 35.4259 26.1202 36.8682 25.5825C38.3104 25.0448 39.2934 25.4226 40.1605 25.7562C40.9336 26.0532 41.6011 26.3097 42.6334 25.9249C43.6658 25.54 44.0025 24.9091 44.3923 24.178C44.8297 23.3588 45.3254 22.4297 46.7677 21.8921C48.21 21.3544 49.1924 21.7324 50.0593 22.0654C50.8326 22.363 51.5001 22.6195 52.5324 22.2347C53.5648 21.8498 53.9015 21.2189 54.2915 20.4884C54.7287 19.6686 55.2239 18.7397 56.6662 18.2021C58.109 17.6642 59.0914 18.0422 59.9583 18.3752C60.7316 18.6728 61.3991 18.9293 62.4314 18.5445C63.4643 18.1594 63.801 17.5285 64.1905 16.7982C64.6277 15.9784 65.1234 15.0493 66.5663 14.5115C67.4618 14.1776 68.1798 14.1972 68.8034 14.3394C69.2513 14.8833 69.6863 15.4402 70.1063 16.0121C69.8763 15.9395 69.6577 15.8556 69.4464 15.7741C68.6733 15.4772 68.0058 15.2206 66.974 15.6053ZM63.5735 12.9483C63.1363 13.7681 62.6405 14.6971 61.1977 15.235C59.7554 15.7726 58.7723 15.3943 57.9053 15.0613C57.1322 14.7643 56.4646 14.5072 55.4322 14.8921C54.4005 15.2767 54.064 15.9081 53.674 16.6387C53.2368 17.4585 52.7415 18.3873 51.2987 18.9252C49.8564 19.4628 48.8733 19.0845 48.0063 18.7515C47.2333 18.4545 46.5656 18.1974 45.5338 18.5821C44.5015 18.9669 44.165 19.5983 43.7749 20.3289C43.3375 21.1481 42.842 22.0777 41.3997 22.6154C39.9569 23.1532 38.9745 22.7752 38.1074 22.4417C37.3343 22.1447 36.6666 21.8876 35.6342 22.2725C34.6025 22.6571 34.266 23.2885 33.8765 24.0189C33.4391 24.8381 32.9441 25.7675 31.5018 26.3052C30.0595 26.8428 29.0772 26.4648 28.21 26.1313C27.4369 25.8343 26.7692 25.5772 25.7369 25.9621C24.7046 26.3469 24.3681 26.9783 23.978 27.7089C23.5409 28.5287 23.0451 29.4577 21.6028 29.9954C20.1605 30.533 19.1782 30.155 18.311 29.8215C17.5379 29.5245 16.8702 29.2674 15.8379 29.6523C14.8061 30.0369 14.4696 30.6683 14.0796 31.3989C13.6424 32.2187 13.1466 33.1477 11.7044 33.6854C10.2621 34.223 9.27917 33.8452 8.41201 33.5117C7.63894 33.2147 6.97123 32.9576 5.93835 33.3427C4.90602 33.7275 4.56952 34.3589 4.1795 35.0895C3.74231 35.9093 3.24657 36.8383 1.80373 37.3762C1.28398 37.5699 0.824938 37.6417 0.408723 37.6429C0.421247 37.2517 0.438267 36.8607 0.462015 36.4709C0.744816 36.4642 1.04894 36.4118 1.39598 36.2824C2.42831 35.8976 2.76533 35.266 3.1548 34.5356C3.59254 33.7156 4.08777 32.7868 5.5306 32.2489C6.97344 31.711 7.95634 32.0888 8.8235 32.4224C9.59658 32.7194 10.2643 32.9764 11.2966 32.5916C12.329 32.2068 12.6654 31.5753 13.0549 30.845C13.4921 30.0252 13.9879 29.0961 15.4302 28.5585C16.873 28.0206 17.8554 28.3986 18.7225 28.7322C19.4956 29.0292 20.1627 29.2864 21.1951 28.9016C22.2274 28.5168 22.5639 27.8853 22.9539 27.1548C23.3911 26.335 23.8869 25.4059 25.3292 24.8683C26.772 24.3304 27.7544 24.7084 28.6215 25.042C29.3946 25.339 30.0623 25.596 31.0941 25.2114C32.1258 24.8268 32.4623 24.1953 32.8518 23.465C33.289 22.6452 33.7842 21.7163 35.2265 21.1787C36.6688 20.641 37.6517 21.0188 38.5188 21.3524C39.2919 21.6494 39.9596 21.9064 40.992 21.5216C42.0243 21.1368 42.3608 20.5053 42.7508 19.7748C43.188 18.955 43.6838 18.0259 45.126 17.4883C46.5683 16.9506 47.5507 17.3286 48.4179 17.6622C49.1909 17.9592 49.8586 18.2162 50.891 17.8314C51.9233 17.4466 52.2598 16.8151 52.6498 16.0846C53.087 15.2648 53.5822 14.3359 55.0245 13.7983C56.4673 13.2604 57.4497 13.6384 58.3169 13.972C59.0899 14.269 59.7576 14.526 60.79 14.1412C61.8229 13.7561 62.1593 13.1247 62.5488 12.3944C62.973 11.5989 63.4596 10.7041 64.8048 10.1605C65.1359 10.4588 65.4646 10.7605 65.7865 11.0711C65.6415 11.1019 65.4923 11.1418 65.3323 11.2014C64.3 11.5863 63.963 12.2179 63.5735 12.9483ZM59.556 10.8311C58.1137 11.3688 57.1306 10.9905 56.2636 10.6574C55.4904 10.3599 54.8229 10.1034 53.7906 10.4882C52.7588 10.8729 52.4221 11.5037 52.0323 12.2348C51.5951 13.0546 51.0998 13.9835 49.657 14.5213C48.2147 15.059 47.2316 14.6807 46.3647 14.3476C45.5914 14.0501 44.9239 13.7936 43.8921 14.1782C42.8598 14.5631 42.5231 15.1939 42.1333 15.925C41.6959 16.7443 41.2003 17.6739 39.758 18.2115C38.3152 18.7494 37.3328 18.3714 36.4657 18.0378C35.6924 17.7403 35.0249 17.4838 33.9925 17.8686C32.9608 18.2533 32.6241 18.8841 32.2348 19.615C31.7974 20.4343 31.3024 21.3637 29.8601 21.9013C28.4178 22.439 27.4355 22.061 26.5683 21.7274C25.7951 21.4299 25.1275 21.1734 24.0952 21.5582C23.0629 21.9431 22.7262 22.5739 22.3364 23.305C21.8992 24.1249 21.4034 25.0539 19.9611 25.5915C18.5188 26.1292 17.5365 25.7512 16.6693 25.4176C15.896 25.1201 15.2286 24.8636 14.1962 25.2484C13.1644 25.6331 12.8277 26.2639 12.4379 26.995C12.0007 27.8149 11.505 28.7439 10.0627 29.2815C8.6204 29.8192 7.63748 29.4414 6.77033 29.1078C5.99704 28.8103 5.32955 28.5538 4.29666 28.9388C3.26434 29.3237 2.92763 29.9545 2.53781 30.6857C2.18556 31.3456 1.78633 32.0733 0.894379 32.6139C1.00928 31.9123 1.14484 31.2156 1.29714 30.5234C1.37037 30.3962 1.44125 30.266 1.51312 30.1318C1.95086 29.3117 2.44609 28.3829 3.88892 27.8451C5.33176 27.3072 6.31466 27.685 7.18181 28.0185C7.95489 28.3155 8.6224 28.572 9.65473 28.1872C10.6871 27.8024 11.0237 27.1715 11.4132 26.4411C11.8504 25.6213 12.3462 24.6923 13.7885 24.1546C15.2313 23.6168 16.2137 23.9948 17.0808 24.3283C17.8539 24.6253 18.5208 24.882 19.5532 24.4972C20.5855 24.1124 20.9222 23.4815 21.3122 22.7509C21.7494 21.9311 22.2452 21.0021 23.6875 20.4644C25.1303 19.9266 26.1127 20.3046 26.9798 20.6381C27.7529 20.9351 28.4204 21.1916 29.4522 20.807C30.4839 20.4224 30.8206 19.7915 31.2101 19.0611C31.6473 18.2413 32.1425 17.3125 33.5848 16.7749C35.0271 16.2372 36.01 16.615 36.8772 16.9486C37.6502 17.2455 38.3177 17.502 39.3501 17.1172C40.3824 16.7324 40.7191 16.1015 41.1091 15.3709C41.5463 14.5511 42.0421 13.6221 43.4844 13.0844C44.9266 12.5468 45.909 12.9248 46.7762 13.2583C47.5493 13.5553 48.2167 13.8118 49.2491 13.427C50.2814 13.0422 50.6181 12.4113 51.0081 11.6807C51.4453 10.8609 51.9405 9.9321 53.3828 9.39444C54.8256 8.85657 55.808 9.23457 56.6752 9.56814C57.4482 9.86513 58.1157 10.1216 59.1481 9.73679C60.181 9.35175 60.5176 8.7209 60.9071 7.99053C61.0211 7.77708 61.1395 7.55694 61.2771 7.33781C61.5942 7.56281 61.9098 7.79085 62.221 8.02556C62.1201 8.19141 62.0274 8.36424 61.9318 8.54444C61.4946 9.36425 60.9989 10.2933 59.556 10.8311ZM54.622 6.25363C53.8489 5.95665 53.1812 5.69957 52.1489 6.08441C51.1171 6.46904 50.7806 7.10045 50.3906 7.83102C49.9534 8.65084 49.4582 9.57966 48.0153 10.1175C46.573 10.6552 45.5901 10.2774 44.723 9.94383C43.9499 9.64685 43.2822 9.38978 42.2504 9.77441C41.2181 10.1592 40.8816 10.7907 40.4916 11.5212C40.0544 12.341 39.5586 13.2701 38.1163 13.8077C36.6735 14.3456 35.6911 13.9676 34.824 13.634C34.0509 13.337 33.3832 13.08 32.3509 13.4648C31.3191 13.8495 30.9826 14.4809 30.5931 15.2112C30.1559 16.031 29.6607 16.9599 28.2184 17.4975C26.7762 18.0352 25.7938 17.6572 24.9267 17.3236C24.1536 17.0266 23.4859 16.7696 22.4535 17.1544C21.4212 17.5392 21.0847 18.1707 20.6947 18.9012C20.2575 19.721 19.7617 20.6501 18.3195 21.1877C16.8772 21.7254 15.8948 21.3474 15.0276 21.0138C14.2546 20.7168 13.5869 20.4598 12.5545 20.8446C11.5228 21.2292 11.1863 21.8607 10.7962 22.5912C10.359 23.411 9.86329 24.3401 8.421 24.8777C6.97872 25.4154 5.9958 25.0376 5.12865 24.704C4.49779 24.4615 3.93407 24.2524 3.18857 24.3902C3.35233 23.9815 3.52455 23.5754 3.7023 23.1722C4.41499 23.1825 5.00032 23.4074 5.54013 23.6147C6.31321 23.9117 6.98093 24.1688 8.01326 23.7839C9.04559 23.3991 9.38206 22.7677 9.77153 22.0373C10.2087 21.2175 10.7045 20.2885 12.1468 19.7508C13.5896 19.2129 14.5722 19.5915 15.4392 19.9245C16.2122 20.2215 16.8794 20.4788 17.9117 20.0939C18.944 19.7091 19.2805 19.0777 19.6705 18.3471C20.1077 17.5273 20.6035 16.5983 22.0458 16.0606C23.4886 15.5227 24.471 15.9007 25.3381 16.2343C26.1112 16.5313 26.7789 16.7884 27.8107 16.4037C28.8425 16.0191 29.179 15.3877 29.5684 14.6573C30.0058 13.8381 30.5008 12.9087 31.9431 12.371C33.3854 11.8334 34.3685 12.2117 35.2355 12.5447C36.0086 12.8417 36.6763 13.0988 37.7086 12.714C38.7409 12.3291 39.0774 11.6977 39.4674 10.9671C39.9046 10.1473 40.4004 9.21827 41.8427 8.68061C43.285 8.14295 44.2673 8.52094 45.1345 8.85451C45.9076 9.1515 46.5753 9.40859 47.6076 9.02375C48.6399 8.63891 48.9764 8.00748 49.3664 7.2769C49.8036 6.45709 50.2988 5.52827 51.7411 4.99061C53.184 4.45274 54.1663 4.83074 55.0335 5.16431C55.8066 5.4613 56.4743 5.71838 57.5066 5.33354C57.6368 5.285 57.7555 5.23257 57.8648 5.17675C58.2434 5.39009 58.6192 5.60893 58.9912 5.8348C58.7013 6.05852 58.3563 6.26256 57.9144 6.42731C56.4721 6.96498 55.4891 6.5872 54.622 6.25363ZM46.3736 5.7137C44.9314 6.25136 43.9484 5.87357 43.0813 5.54C42.3082 5.24302 41.6405 4.98595 40.6087 5.37058C39.5764 5.75542 39.2399 6.38684 38.8499 7.11741C38.4127 7.93722 37.9169 8.86623 36.4747 9.4039C35.0318 9.94176 34.0495 9.56377 33.1823 9.2302C32.4092 8.93322 31.7415 8.67616 30.7092 9.06099C29.6774 9.44563 29.3409 10.077 28.9514 10.8074C28.5143 11.6272 28.019 12.556 26.5768 13.0937C25.1345 13.6314 24.1521 13.2534 23.285 12.9198C22.5119 12.6228 21.8442 12.3657 20.8119 12.7506C19.7795 13.1354 19.443 13.7668 19.053 14.4974C18.6158 15.3172 18.12 16.2462 16.6778 16.7839C15.2355 17.3216 14.2531 16.9436 13.3859 16.61C12.6129 16.313 11.9452 16.0559 10.9129 16.4408C9.88109 16.8254 9.54457 17.4568 9.15455 18.1874C8.71736 19.0072 8.2216 19.9362 6.77932 20.4739C6.04714 20.7468 5.43464 20.7828 4.89395 20.7097C5.0973 20.3247 5.30541 19.9422 5.52095 19.5646C5.78053 19.5495 6.05818 19.4969 6.37157 19.3801C7.4039 18.9953 7.74038 18.3639 8.12985 17.6335C8.56704 16.8137 9.06283 15.8847 10.5051 15.347C11.948 14.8091 12.9303 15.1871 13.7975 15.5207C14.5706 15.8177 15.2377 16.075 16.27 15.6901C17.3024 15.3053 17.6389 14.6739 18.0289 13.9433C18.4661 13.1235 18.9618 12.1945 20.4041 11.6568C21.8469 11.1189 22.8293 11.4969 23.6965 11.8305C24.4695 12.1275 25.1372 12.3846 26.169 11.9999C27.2008 11.6153 27.5373 10.9839 27.9267 10.2535C28.3639 9.43369 28.8592 8.50487 30.3014 7.96721C31.7437 7.42955 32.7266 7.80733 33.5938 8.14091C34.3669 8.43789 35.0346 8.69496 36.0669 8.31012C37.0992 7.92528 37.4357 7.29386 37.8258 6.56329C38.263 5.74348 38.7587 4.81446 40.201 4.2768C41.6433 3.73913 42.6257 4.11712 43.4928 4.4507C44.2659 4.74768 44.9336 5.00476 45.9659 4.61992C46.9982 4.23508 47.3347 3.60366 47.7248 2.87309C47.9744 2.40479 48.2493 1.90318 48.7026 1.45701C49.1758 1.58169 49.6463 1.71614 50.1136 1.85873C49.3827 2.24623 49.0842 2.79936 48.7489 3.4272C48.3117 4.247 47.8165 5.17583 46.3736 5.7137ZM41.4396 1.13619C40.6665 0.839206 39.9988 0.582113 38.9671 0.966745C37.9347 1.35158 37.5982 1.98302 37.2082 2.71359C36.771 3.5334 36.2753 4.46241 34.833 5.00007C33.3901 5.53794 32.4078 5.15996 31.5406 4.82639C30.7675 4.52941 30.0998 4.27232 29.0675 4.65716C28.0357 5.04179 27.6992 5.67323 27.3098 6.40359C26.8726 7.2234 26.3774 8.1522 24.9351 8.68987C23.4928 9.22753 22.5104 8.84954 21.6433 8.51598C20.8702 8.21899 20.2025 7.96191 19.1702 8.34674C18.1378 8.73158 17.8013 9.36302 17.4113 10.0936C16.9741 10.9134 16.4784 11.8424 15.0361 12.3801C13.5938 12.9177 12.6114 12.5398 11.7443 12.2062C11.5494 12.1318 11.3616 12.0597 11.1732 11.9992C11.469 11.6903 11.7721 11.3875 12.0797 11.088C12.1046 11.0976 12.1309 11.1073 12.1558 11.1169C12.9289 11.4139 13.596 11.6711 14.6283 11.2863C15.6607 10.9015 15.9972 10.27 16.3872 9.53946C16.8244 8.71965 17.3201 7.79063 18.7624 7.25297C20.2053 6.7151 21.1876 7.09309 22.0548 7.42666C22.8279 7.72365 23.4955 7.98072 24.5273 7.59609C25.5591 7.21146 25.8956 6.58004 26.2851 5.84967C26.7222 5.02986 27.2175 4.10104 28.6598 3.56338C30.102 3.02572 31.085 3.40351 31.9521 3.73707C32.7252 4.03407 33.3929 4.29113 34.4252 3.90629C35.4576 3.52145 35.7941 2.89003 36.1841 2.15946C36.5444 1.48397 36.953 0.737652 37.8896 0.193672C40.5302 0.124447 43.1494 0.331596 45.7103 0.793672C45.4408 0.98779 45.1237 1.16383 44.732 1.30987C43.2897 1.84753 42.3068 1.46976 41.4396 1.13619Z" fill="white"/>
</svg>
